<svg width="147" height="52" viewBox="0 0 147 52" fill="none" xmlns="http://www.w3.org/2000/svg">
<path d="M75.9948 29.7263V15.8289H82.2484V9.49355H75.9948V0.333252H69.4906V4.8214C69.4906 7.46595 68.0661 9.49355 64.8467 9.49355H63.2988V15.8289H68.8728V30.8952C68.8728 36.4874 72.3394 39.8102 77.9134 39.8102C80.5152 39.8102 81.8778 39.3195 82.3102 39.1319V33.2295C82.0013 33.2905 80.824 33.4748 79.832 33.4748C77.1685 33.4748 75.9948 32.3708 75.9948 29.7263Z" fill="white"/>
<path d="M15.1742 33.8457C10.465 33.8457 7.06024 30.1549 7.06024 24.4364C7.06024 18.8407 10.465 15.1499 15.1742 15.1499C20.0034 15.1499 23.2846 18.8407 23.2846 24.4364C23.2846 30.1549 19.9416 33.8457 15.1742 33.8457ZM2.49634 51.1128C5.51229 51.1128 6.95123 49.3305 7.12201 46.9313V36.0573C8.66996 38.3338 11.9512 40.1774 16.2898 40.1774C24.9598 40.1774 30.4684 33.4127 30.4684 24.4364C30.4684 15.5828 25.4539 8.81812 16.5369 8.81812C11.8894 8.81812 8.42287 10.9684 6.93669 13.5516V9.49639H0V51.1236" fill="white"/>
<path d="M131.259 33.9683C126.859 33.9683 122.833 30.6455 122.833 24.4364C122.833 18.2273 126.859 15.0272 131.259 15.0272C135.718 15.0272 139.679 18.2273 139.679 24.4364C139.679 30.7068 135.718 33.9683 131.259 33.9683ZM131.259 8.57275C122.277 8.57275 115.649 15.2725 115.649 24.4364C115.649 33.6616 122.277 40.3614 131.259 40.3614C140.3 40.3614 146.924 33.6616 146.924 24.4364C146.924 15.2725 140.3 8.57275 131.259 8.57275Z" fill="white"/>
<path d="M40.2103 21.1785C40.4574 17.982 43.0591 14.5365 47.5794 14.5365C52.5357 14.5365 54.8867 17.6717 55.0102 21.1785H40.2103ZM62.2558 24.1297C62.2558 14.6592 56.8089 8.57275 47.5176 8.57275C39.9014 8.57275 32.8412 14.8432 32.8412 24.3137C32.8412 34.4589 40.0867 40.3614 48.2625 40.3614C55.5081 40.3614 60.2755 36.1185 61.8852 30.8944L62.1105 30.0466H55.3918C54.2435 32.4639 52.0633 34.2136 48.2625 34.2136C43.804 34.2136 40.2103 30.9557 40.0249 26.4063H62.0705C62.1322 26.28 62.2558 25.2987 62.2558 24.1297Z" fill="white"/>
<path d="M113.502 28.3112H106.903C106.22 30.5842 104.054 33.8456 99.3484 33.8456C94.8245 33.8456 90.9256 30.4615 90.9256 24.4364C90.9256 18.4113 94.8245 15.1498 99.2212 15.1498C103.807 15.1498 105.849 18.1011 106.532 20.7456L106.561 20.7348L106.536 20.7564H113.276C113.549 20.7564 113.055 18.7504 112.971 18.4113L112.968 18.4005L112.957 18.3572C111.7 13.5768 107.245 8.57275 99.164 8.57275C90.4904 8.57275 83.7427 15.2112 83.7427 24.4364C83.7427 33.5354 90.4904 40.3614 99.3493 40.3614C107.274 40.3614 111.798 35.2599 113.219 30.5842C113.219 30.5842 113.797 28.3112 113.503 28.3112" fill="white"/>
</svg>
