<svg width="95" height="119" viewBox="0 0 95 119" fill="none" xmlns="http://www.w3.org/2000/svg">
<path d="M12.4974 80.4369C12.434 80.3467 12.3409 80.2678 12.2181 80.2001C12.0953 80.1325 11.9449 80.0781 11.7669 80.0371C11.5889 79.9961 11.3873 79.9756 11.1623 79.9756C11.0763 79.9756 10.9842 79.9828 10.886 79.9972C10.7878 80.0115 10.6967 80.0371 10.6128 80.074C10.5289 80.1109 10.4594 80.1612 10.4041 80.2247C10.3489 80.2883 10.3213 80.3692 10.3213 80.4676C10.3213 80.5168 10.3284 80.564 10.3427 80.6091C10.3571 80.6542 10.3847 80.6972 10.4256 80.7382C10.4665 80.7792 10.5228 80.8172 10.5944 80.852C10.666 80.8869 10.7591 80.9145 10.8737 80.935L12.0278 81.1626C12.4453 81.2446 12.7952 81.3471 13.0775 81.4701C13.3599 81.5931 13.5871 81.7366 13.7589 81.9006C13.9308 82.0646 14.0546 82.247 14.1303 82.4479C14.2061 82.6488 14.2439 82.8661 14.2439 83.0998C14.2439 83.4647 14.159 83.7845 13.9891 84.0592C13.8193 84.3339 13.5963 84.5625 13.32 84.7449C13.0438 84.9274 12.7328 85.0647 12.3869 85.157C12.0411 85.2492 11.6922 85.2953 11.3403 85.2953C11.1111 85.2953 10.9034 85.281 10.7172 85.2523C10.531 85.2236 10.3632 85.1846 10.2138 85.1354C10.0644 85.0862 9.93144 85.0278 9.8148 84.9602C9.69817 84.8925 9.59074 84.8177 9.49252 84.7357H8.38141V83.026H10.1187V83.0629C10.1228 83.1818 10.1596 83.2853 10.2292 83.3735C10.2987 83.4616 10.3898 83.5365 10.5023 83.598C10.6149 83.6595 10.7428 83.7056 10.886 83.7363C11.0293 83.7671 11.1807 83.7825 11.3403 83.7825C11.7086 83.7825 11.9767 83.7343 12.1445 83.6379C12.3122 83.5416 12.3961 83.4176 12.3961 83.2659C12.3961 83.147 12.3552 83.0455 12.2734 82.9614C12.1915 82.8774 12.0462 82.8108 11.8375 82.7616L10.6589 82.5094C9.91814 82.3659 9.35951 82.1271 8.98301 81.7929C8.6065 81.4588 8.41824 81.0293 8.41824 80.5045C8.41824 80.197 8.48986 79.9172 8.6331 79.6651C8.77633 79.4129 8.97073 79.1977 9.21628 79.0193C9.46183 78.841 9.74932 78.7026 10.0788 78.6042C10.4082 78.5058 10.7612 78.4566 11.1377 78.4566C11.3955 78.4566 11.6247 78.472 11.8252 78.5027C12.0258 78.5335 12.2058 78.5734 12.3655 78.6226C12.5251 78.6718 12.6652 78.7303 12.786 78.7979C12.9067 78.8656 13.0141 78.9363 13.1082 79.0101H14.1764V80.7198H12.5926C12.5926 80.6214 12.5609 80.5271 12.4974 80.4369ZM19.3084 78.7702H22.3164V83.4565H23.0837V85.1416H20.3888V84.6004C20.1719 84.7972 19.9181 84.9489 19.6276 85.0555C19.337 85.1621 19.0014 85.2154 18.6208 85.2154C18.2689 85.2154 17.9374 85.16 17.6264 85.0493C17.3153 84.9386 17.0442 84.7716 16.813 84.5481C16.5817 84.3247 16.3996 84.0449 16.2666 83.7087C16.1336 83.3725 16.0671 82.9768 16.0671 82.5217V80.4553H15.2384V78.7702H18.0499V82.5217C18.0499 82.9481 18.1584 83.2669 18.3753 83.478C18.5922 83.6892 18.8746 83.7948 19.2224 83.7948C19.468 83.7948 19.691 83.7189 19.8915 83.5672C20.0921 83.4155 20.2374 83.2105 20.3274 82.9522V80.4553H19.3084V78.7702ZM28.0407 80.4369C27.9773 80.3467 27.8842 80.2678 27.7614 80.2001C27.6386 80.1325 27.4882 80.0781 27.3102 80.0371C27.1322 79.9961 26.9306 79.9756 26.7056 79.9756C26.6196 79.9756 26.5275 79.9828 26.4293 79.9972C26.3311 80.0115 26.24 80.0371 26.1561 80.074C26.0722 80.1109 26.0027 80.1612 25.9474 80.2247C25.8922 80.2883 25.8645 80.3692 25.8645 80.4676C25.8645 80.5168 25.8717 80.564 25.886 80.6091C25.9004 80.6542 25.928 80.6972 25.9689 80.7382C26.0098 80.7792 26.0661 80.8172 26.1377 80.852C26.2093 80.8869 26.3024 80.9145 26.417 80.935L27.5711 81.1626C27.9885 81.2446 28.3385 81.3471 28.6208 81.4701C28.9032 81.5931 29.1304 81.7366 29.3022 81.9006C29.4741 82.0646 29.5979 82.247 29.6736 82.4479C29.7493 82.6488 29.7872 82.8661 29.7872 83.0998C29.7872 83.4647 29.7023 83.7845 29.5324 84.0592C29.3626 84.3339 29.1396 84.5625 28.8633 84.7449C28.5871 84.9274 28.276 85.0647 27.9302 85.157C27.5844 85.2492 27.2355 85.2953 26.8836 85.2953C26.6544 85.2953 26.4467 85.281 26.2605 85.2523C26.0743 85.2236 25.9065 85.1846 25.7571 85.1354C25.6077 85.0862 25.4747 85.0278 25.3581 84.9602C25.2415 84.8925 25.134 84.8177 25.0358 84.7357H23.9247V83.026H25.662V83.0629C25.6661 83.1818 25.7029 83.2853 25.7725 83.3735C25.842 83.4616 25.9331 83.5365 26.0456 83.598C26.1582 83.6595 26.2861 83.7056 26.4293 83.7363C26.5725 83.7671 26.724 83.7825 26.8836 83.7825C27.2519 83.7825 27.52 83.7343 27.6877 83.6379C27.8555 83.5416 27.9394 83.4176 27.9394 83.2659C27.9394 83.147 27.8985 83.0455 27.8167 82.9614C27.7348 82.8774 27.5895 82.8108 27.3808 82.7616L26.2022 82.5094C25.4614 82.3659 24.9028 82.1271 24.5263 81.7929C24.1498 81.4588 23.9615 81.0293 23.9615 80.5045C23.9615 80.197 24.0332 79.9172 24.1764 79.6651C24.3196 79.4129 24.514 79.1977 24.7596 79.0193C25.0051 78.841 25.2926 78.7026 25.6221 78.6042C25.9515 78.5058 26.3045 78.4566 26.681 78.4566C26.9388 78.4566 27.168 78.472 27.3685 78.5027C27.5691 78.5335 27.7491 78.5734 27.9087 78.6226C28.0684 78.6718 28.2085 78.7303 28.3292 78.7979C28.45 78.8656 28.5574 78.9363 28.6515 79.0101H29.7197V80.7198H28.1359C28.1359 80.6214 28.1042 80.5271 28.0407 80.4369ZM33.3047 78.7702H34.5754V80.3815H33.2924L33.2801 83.0752C33.2801 83.231 33.2924 83.3571 33.317 83.4534C33.3415 83.5498 33.3773 83.6267 33.4244 83.6841C33.4715 83.7415 33.5277 83.7804 33.5932 83.8009C33.6587 83.8214 33.7344 83.8317 33.8204 83.8317C33.9759 83.8317 34.113 83.8163 34.2316 83.7855C34.3503 83.7548 34.469 83.7189 34.5877 83.6779L34.8517 84.8648C34.6429 84.996 34.4107 85.1006 34.1549 85.1785C33.8991 85.2564 33.5953 85.2953 33.2433 85.2953C32.9937 85.2953 32.7553 85.2523 32.5281 85.1662C32.301 85.0801 32.1015 84.9499 31.9296 84.7757C31.7577 84.6014 31.6206 84.3831 31.5183 84.1207C31.416 83.8583 31.3669 83.5529 31.371 83.2044L31.3894 80.3815H30.4747V78.7702H31.3955L31.4078 77.2451L33.317 76.3349L33.3047 78.7702ZM39.7872 84.7972C39.644 84.8874 39.513 84.9643 39.3943 85.0278C39.2756 85.0914 39.157 85.1426 39.0383 85.1816C38.9196 85.2205 38.7968 85.2492 38.67 85.2677C38.5431 85.2861 38.4039 85.2953 38.2525 85.2953C37.8719 85.2953 37.5312 85.2431 37.2304 85.1385C36.9296 85.034 36.6759 84.8905 36.4692 84.708C36.2625 84.5256 36.104 84.3103 35.9935 84.0623C35.883 83.8142 35.8277 83.5447 35.8277 83.2536C35.8277 82.9584 35.884 82.6857 35.9965 82.4356C36.1091 82.1855 36.2718 81.9713 36.4846 81.7929C36.6974 81.6146 36.9583 81.4752 37.2673 81.3747C37.5762 81.2743 37.9292 81.2241 38.3262 81.2241C38.6168 81.2241 38.8817 81.2394 39.1212 81.2702C39.3606 81.3009 39.5826 81.3389 39.7872 81.384V81.1872C39.7872 81.0273 39.7565 80.8889 39.6951 80.7721C39.6337 80.6552 39.5478 80.5589 39.4373 80.483C39.3268 80.4072 39.1938 80.3518 39.0383 80.317C38.8828 80.2821 38.7129 80.2647 38.5288 80.2647C38.1441 80.2647 37.8054 80.3026 37.5128 80.3785C37.2202 80.4543 36.9388 80.564 36.6687 80.7075L36.0794 79.5144C36.4968 79.2274 36.9337 79.008 37.39 78.8563C37.8463 78.7046 38.3303 78.6288 38.8418 78.6288C39.2388 78.6288 39.6061 78.6729 39.9437 78.761C40.2814 78.8492 40.5709 78.9927 40.8124 79.1915C41.0538 79.3904 41.2431 79.6497 41.3802 79.9695C41.5173 80.2893 41.5859 80.6788 41.5859 81.138V83.4565H42.4391V85.1416H39.7872V84.7972ZM38.3876 83.844C38.6781 83.844 38.9421 83.7968 39.1795 83.7025C39.4168 83.6082 39.6194 83.4934 39.7872 83.3581V82.5463H38.3139C38.2198 82.5463 38.1277 82.5607 38.0377 82.5894C37.9476 82.6181 37.8668 82.6591 37.7952 82.7124C37.7236 82.7657 37.6663 82.8313 37.6233 82.9092C37.5803 82.9871 37.5588 83.0773 37.5588 83.1798C37.5588 83.3684 37.6274 83.5262 37.7645 83.6533C37.9016 83.7804 38.1093 83.844 38.3876 83.844ZM43.7958 78.7702H46.6503V83.4565H47.5343V85.1416H43.7958V83.4565H44.7534V80.4553H43.7958V78.7702ZM44.6552 76.7162C44.6552 76.5645 44.6829 76.422 44.7381 76.2887C44.7934 76.1555 44.8701 76.0397 44.9683 75.9413C45.0665 75.8429 45.1821 75.765 45.3151 75.7076C45.4482 75.6502 45.5924 75.6215 45.7479 75.6215C45.8953 75.6215 46.0344 75.6502 46.1654 75.7076C46.2963 75.765 46.4109 75.8429 46.5091 75.9413C46.6073 76.0397 46.6851 76.1555 46.7424 76.2887C46.7997 76.422 46.8283 76.5645 46.8283 76.7162C46.8283 76.8679 46.7997 77.0103 46.7424 77.1436C46.6851 77.2768 46.6073 77.3927 46.5091 77.4911C46.4109 77.5895 46.2963 77.6674 46.1654 77.7247C46.0344 77.7821 45.8953 77.8108 45.7479 77.8108C45.5924 77.8108 45.4482 77.7821 45.3151 77.7247C45.1821 77.6674 45.0665 77.5895 44.9683 77.4911C44.8701 77.3927 44.7934 77.2768 44.7381 77.1436C44.6829 77.0103 44.6552 76.8679 44.6552 76.7162ZM53.937 81.4762C53.937 81.1195 53.8429 80.8397 53.6546 80.6368C53.4664 80.4338 53.2167 80.3323 52.9057 80.3323C52.6929 80.3323 52.478 80.3795 52.2611 80.4738C52.0442 80.5681 51.8335 80.7444 51.6288 81.0027V83.4565H52.6601V85.1416H48.7068V83.4565H49.6399V80.4553H48.7191V78.7702H51.6166V79.3299C51.8826 79.1208 52.1803 78.9558 52.5097 78.8348C52.8392 78.7139 53.186 78.6534 53.5503 78.6534C54.3156 78.6534 54.9049 78.8676 55.3182 79.2961C55.7316 79.7245 55.9382 80.3508 55.9382 81.1749V83.4565H56.8406V85.1416H53.937V81.4762ZM61.6411 84.7972C61.4979 84.8874 61.3669 84.9643 61.2482 85.0278C61.1296 85.0914 61.0109 85.1426 60.8922 85.1816C60.7735 85.2205 60.6507 85.2492 60.5239 85.2677C60.397 85.2861 60.2579 85.2953 60.1064 85.2953C59.7258 85.2953 59.3851 85.2431 59.0843 85.1385C58.7835 85.034 58.5298 84.8905 58.3231 84.708C58.1165 84.5256 57.9579 84.3103 57.8474 84.0623C57.7369 83.8142 57.6816 83.5447 57.6816 83.2536C57.6816 82.9584 57.7379 82.6857 57.8505 82.4356C57.963 82.1855 58.1257 81.9713 58.3385 81.7929C58.5513 81.6146 58.8122 81.4752 59.1212 81.3747C59.4302 81.2743 59.7831 81.2241 60.1801 81.2241C60.4707 81.2241 60.7357 81.2394 60.9751 81.2702C61.2145 81.3009 61.4365 81.3389 61.6411 81.384V81.1872C61.6411 81.0273 61.6104 80.8889 61.549 80.7721C61.4877 80.6552 61.4017 80.5589 61.2912 80.483C61.1807 80.4072 61.0477 80.3518 60.8922 80.317C60.7367 80.2821 60.5668 80.2647 60.3827 80.2647C59.998 80.2647 59.6593 80.3026 59.3667 80.3785C59.0741 80.4543 58.7928 80.564 58.5226 80.7075L57.9333 79.5144C58.3508 79.2274 58.7876 79.008 59.2439 78.8563C59.7003 78.7046 60.1842 78.6288 60.6958 78.6288C61.0927 78.6288 61.46 78.6729 61.7977 78.761C62.1353 78.8492 62.4248 78.9927 62.6663 79.1915C62.9078 79.3904 63.097 79.6497 63.2341 79.9695C63.3712 80.2893 63.4398 80.6788 63.4398 81.138V83.4565H64.2931V85.1416H61.6411V84.7972ZM60.2415 83.844C60.5321 83.844 60.796 83.7968 61.0334 83.7025C61.2708 83.6082 61.4733 83.4934 61.6411 83.3581V82.5463H60.1678C60.0737 82.5463 59.9816 82.5607 59.8916 82.5894C59.8015 82.6181 59.7207 82.6591 59.6491 82.7124C59.5775 82.7657 59.5202 82.8313 59.4772 82.9092C59.4342 82.9871 59.4128 83.0773 59.4128 83.1798C59.4128 83.3684 59.4813 83.5262 59.6184 83.6533C59.7555 83.7804 59.9632 83.844 60.2415 83.844ZM65.3366 75.5723H68.1114V78.9117C68.3324 78.8051 68.5595 78.7231 68.7928 78.6657C69.026 78.6083 69.2654 78.5796 69.511 78.5796C69.9816 78.5796 70.4175 78.6677 70.8185 78.844C71.2196 79.0203 71.5654 79.2602 71.856 79.5636C72.1466 79.867 72.3747 80.2216 72.5405 80.6275C72.7062 81.0334 72.7891 81.4639 72.7891 81.919C72.7891 82.3782 72.7083 82.8108 72.5466 83.2167C72.3849 83.6226 72.1588 83.9762 71.8683 84.2775C71.5777 84.5789 71.2319 84.8167 70.8308 84.9909C70.4298 85.1652 69.9898 85.2523 69.511 85.2523C69.2532 85.2523 69.0076 85.2277 68.7743 85.1785C68.5411 85.1293 68.3201 85.0596 68.1114 84.9694V85.1416H66.2268V77.2574H65.3366V75.5723ZM69.3821 80.277C69.112 80.277 68.8695 80.3385 68.6546 80.4615C68.4398 80.5845 68.2587 80.7608 68.1114 80.9904V82.8969C68.2423 83.0937 68.4173 83.2525 68.6362 83.3735C68.8552 83.4944 69.0997 83.5549 69.3698 83.5549C69.5785 83.5549 69.777 83.517 69.9653 83.4411C70.1535 83.3653 70.3182 83.2566 70.4594 83.1152C70.6006 82.9737 70.7121 82.8036 70.794 82.6047C70.8758 82.4059 70.9168 82.1814 70.9168 81.9313C70.9168 81.6771 70.8758 81.4475 70.794 81.2425C70.7121 81.0375 70.6016 80.8633 70.4625 80.7198C70.3234 80.5763 70.1607 80.4666 69.9745 80.3908C69.7883 80.3149 69.5908 80.277 69.3821 80.277ZM73.5933 75.5723H76.46V83.4565H77.4422V85.1416H73.5933V83.4565H74.5755V77.2574H73.5933V75.5723ZM80.2231 82.3557L80.2415 82.5463C80.2865 82.7308 80.3633 82.8928 80.4717 83.0322C80.5802 83.1716 80.7081 83.2884 80.8554 83.3827C81.0027 83.477 81.1664 83.5477 81.3465 83.5949C81.5266 83.642 81.7087 83.6656 81.8928 83.6656C82.077 83.6656 82.2519 83.6543 82.4177 83.6318C82.5834 83.6092 82.7441 83.5785 82.8996 83.5395C83.0551 83.5006 83.2065 83.4555 83.3539 83.4042C83.5012 83.353 83.6506 83.2987 83.802 83.2413L84.4772 84.502C84.244 84.6455 84.0301 84.7675 83.8357 84.8679C83.6414 84.9684 83.4459 85.0514 83.2495 85.117C83.0531 85.1826 82.8443 85.2308 82.6233 85.2615C82.4023 85.2923 82.1445 85.3076 81.8499 85.3076C81.2974 85.3076 80.8063 85.2164 80.3766 85.034C79.9469 84.8515 79.5857 84.6045 79.2931 84.2929C79.0005 83.9813 78.7774 83.6164 78.624 83.1982C78.4705 82.78 78.3938 82.3372 78.3938 81.8698C78.3938 81.4024 78.4746 80.9637 78.6362 80.5537C78.7979 80.1437 79.026 79.786 79.3207 79.4806C79.6154 79.1751 79.9673 78.9342 80.3766 78.7579C80.7858 78.5816 81.2401 78.4935 81.7394 78.4935C82.2386 78.4935 82.6817 78.5765 83.0684 78.7426C83.4551 78.9086 83.7815 79.1382 84.0475 79.4314C84.3135 79.7245 84.5182 80.0689 84.6614 80.4646C84.8046 80.8602 84.8824 81.2856 84.8947 81.7407C84.907 81.8432 84.9141 81.9446 84.9162 82.0451C84.9182 82.1455 84.9151 82.2491 84.907 82.3557H80.2231ZM81.6903 80.031C81.4611 80.031 81.2657 80.0587 81.104 80.114C80.9424 80.1694 80.8063 80.2452 80.6958 80.3416C80.5853 80.4379 80.4973 80.5476 80.4318 80.6706C80.3663 80.7936 80.3152 80.9227 80.2783 81.058H82.9364C82.9078 80.9186 82.8668 80.7874 82.8136 80.6644C82.7604 80.5414 82.6868 80.4328 82.5926 80.3385C82.4985 80.2442 82.3788 80.1694 82.2335 80.114C82.0882 80.0587 81.9072 80.031 81.6903 80.031ZM33.9523 93.567C33.7764 93.3456 33.5799 93.1786 33.363 93.0658C33.1461 92.9531 32.8903 92.9049 32.5957 92.9213C32.3583 92.9049 32.1424 92.9377 31.948 93.0197C31.7536 93.1017 31.5858 93.2165 31.4447 93.3641C31.3035 93.5117 31.194 93.687 31.1162 93.8899C31.0385 94.0929 30.9996 94.3214 30.9996 94.5756C30.9996 94.8011 31.0405 95.0143 31.1224 95.2152C31.2042 95.4161 31.3157 95.5893 31.4569 95.7349C31.5981 95.8804 31.7659 95.9942 31.9603 96.0762C32.1547 96.1582 32.3665 96.2074 32.5957 96.2238C32.788 96.2074 32.963 96.1674 33.1205 96.1039C33.2781 96.0403 33.4183 95.9583 33.541 95.8579C33.6638 95.7574 33.7692 95.6447 33.8572 95.5196C33.9452 95.3946 34.0137 95.2767 34.0628 95.166L35.751 95.6334C35.6814 95.8794 35.5617 96.1357 35.3919 96.4022C35.222 96.6687 35.001 96.9116 34.7289 97.1309C34.4567 97.3503 34.1334 97.5317 33.759 97.6752C33.3845 97.8187 32.9579 97.8905 32.479 97.8905C31.992 97.8905 31.5439 97.8013 31.1347 97.6229C30.7254 97.4446 30.3734 97.2017 30.0788 96.8942C29.7841 96.5867 29.5539 96.2259 29.3882 95.8118C29.2224 95.3977 29.1396 94.9528 29.1396 94.4772C29.1396 94.0057 29.2245 93.5681 29.3943 93.1642C29.5642 92.7604 29.7985 92.4078 30.0972 92.1064C30.396 91.8051 30.751 91.5703 31.1623 91.4023C31.5736 91.2342 32.0207 91.1583 32.5036 91.1747C32.8474 91.1583 33.1809 91.1973 33.5042 91.2916C33.8275 91.3859 34.1345 91.5273 34.425 91.7159H35.6466V93.567H33.9523ZM40.4042 97.3923C40.2609 97.4825 40.13 97.5594 40.0113 97.6229C39.8926 97.6865 39.7739 97.7377 39.6552 97.7767C39.5365 97.8156 39.4138 97.8443 39.2869 97.8628C39.16 97.8812 39.0209 97.8905 38.8695 97.8905C38.4889 97.8905 38.1482 97.8382 37.8474 97.7336C37.5466 97.6291 37.2928 97.4856 37.0862 97.3031C36.8795 97.1207 36.7209 96.9054 36.6104 96.6574C36.4999 96.4093 36.4447 96.1398 36.4447 95.8487C36.4447 95.5535 36.5009 95.2808 36.6135 95.0307C36.726 94.7806 36.8887 94.5664 37.1015 94.3881C37.3143 94.2097 37.5752 94.0703 37.8842 93.9699C38.1932 93.8694 38.5462 93.8192 38.9431 93.8192C39.2337 93.8192 39.4987 93.8346 39.7381 93.8653C39.9775 93.8961 40.1995 93.934 40.4042 93.9791V93.7823C40.4042 93.6224 40.3735 93.484 40.3121 93.3672C40.2507 93.2503 40.1647 93.154 40.0542 93.0781C39.9437 93.0023 39.8107 92.9469 39.6552 92.9121C39.4997 92.8772 39.3299 92.8598 39.1457 92.8598C38.761 92.8598 38.4224 92.8977 38.1297 92.9736C37.8371 93.0494 37.5558 93.1591 37.2857 93.3026L36.6964 92.1095C37.1138 91.8225 37.5507 91.6031 38.007 91.4515C38.4633 91.2998 38.9472 91.2239 39.4588 91.2239C39.8558 91.2239 40.2231 91.268 40.5607 91.3561C40.8983 91.4443 41.1879 91.5878 41.4293 91.7866C41.6708 91.9855 41.8601 92.2448 41.9972 92.5646C42.1343 92.8844 42.2028 93.2739 42.2028 93.7331V96.0516H43.0561V97.7367H40.4042V97.3923ZM39.0045 96.4391C39.2951 96.4391 39.5591 96.3919 39.7964 96.2976C40.0338 96.2033 40.2364 96.0885 40.4042 95.9532V95.1414H38.9309C38.8367 95.1414 38.7446 95.1558 38.6546 95.1845C38.5646 95.2132 38.4837 95.2542 38.4121 95.3075C38.3405 95.3608 38.2832 95.4264 38.2402 95.5043C38.1973 95.5822 38.1758 95.6724 38.1758 95.7749C38.1758 95.9635 38.2443 96.1213 38.3814 96.2484C38.5185 96.3755 38.7262 96.4391 39.0045 96.4391ZM46.813 91.3654H48.0837V92.9766H46.8007L46.7884 95.6703C46.7884 95.8261 46.8007 95.9522 46.8253 96.0485C46.8498 96.1449 46.8856 96.2218 46.9327 96.2792C46.9798 96.3366 47.036 96.3755 47.1015 96.396C47.167 96.4165 47.2427 96.4268 47.3287 96.4268C47.4842 96.4268 47.6213 96.4114 47.7399 96.3806C47.8586 96.3499 47.9773 96.314 48.096 96.273L48.36 97.46C48.1512 97.5912 47.919 97.6957 47.6632 97.7736C47.4074 97.8515 47.1036 97.8905 46.7516 97.8905C46.502 97.8905 46.2636 97.8474 46.0364 97.7613C45.8093 97.6752 45.6098 97.545 45.4379 97.3708C45.266 97.1965 45.1289 96.9782 45.0266 96.7158C44.9243 96.4534 44.8752 96.148 44.8793 95.7995L44.8977 92.9766H43.983V91.3654H44.9038L44.9161 89.8402L46.8253 88.93L46.813 91.3654ZM54.1488 93.567C53.9728 93.3456 53.7764 93.1786 53.5595 93.0658C53.3426 92.9531 53.0868 92.9049 52.7921 92.9213C52.5548 92.9049 52.3389 92.9377 52.1445 93.0197C51.9501 93.1017 51.7823 93.2165 51.6411 93.3641C51.4999 93.5117 51.3905 93.687 51.3127 93.8899C51.2349 94.0929 51.1961 94.3214 51.1961 94.5756C51.1961 94.8011 51.237 95.0143 51.3188 95.2152C51.4007 95.4161 51.5122 95.5893 51.6534 95.7349C51.7946 95.8804 51.9624 95.9942 52.1568 96.0762C52.3512 96.1582 52.563 96.2074 52.7921 96.2238C52.9845 96.2074 53.1594 96.1674 53.317 96.1039C53.4746 96.0403 53.6147 95.9583 53.7375 95.8579C53.8603 95.7574 53.9657 95.6447 54.0536 95.5196C54.1416 95.3946 54.2102 95.2767 54.2593 95.166L55.9474 95.6334C55.8779 95.8794 55.7582 96.1357 55.5883 96.4022C55.4185 96.6687 55.1975 96.9116 54.9253 97.1309C54.6532 97.3503 54.3299 97.5317 53.9554 97.6752C53.581 97.8187 53.1543 97.8905 52.6755 97.8905C52.1885 97.8905 51.7404 97.8013 51.3311 97.6229C50.9219 97.4446 50.5699 97.2017 50.2752 96.8942C49.9806 96.5867 49.7504 96.2259 49.5846 95.8118C49.4189 95.3977 49.336 94.9528 49.336 94.4772C49.336 94.0057 49.4209 93.5681 49.5908 93.1642C49.7606 92.7604 49.9949 92.4078 50.2937 92.1064C50.5924 91.8051 50.9474 91.5703 51.3587 91.4023C51.77 91.2342 52.2171 91.1583 52.7 91.1747C53.0438 91.1583 53.3774 91.1973 53.7007 91.2916C54.024 91.3859 54.3309 91.5273 54.6215 91.7159H55.8431V93.567H54.1488ZM56.549 88.1674H59.4158V91.9557C59.6573 91.7343 59.9223 91.5611 60.2108 91.4361C60.4993 91.311 60.8175 91.2485 61.1654 91.2485C61.9307 91.2485 62.5159 91.4627 62.9211 91.8912C63.3262 92.3196 63.5288 92.9459 63.5288 93.77V96.0516H64.4619V97.7367H61.6196V94.2005C61.6196 93.8438 61.5317 93.5629 61.3557 93.3579C61.1797 93.1529 60.9526 93.0504 60.6743 93.0504C60.4901 93.0504 60.2896 93.1017 60.0727 93.2042C59.8558 93.3067 59.6368 93.4563 59.4158 93.6531V96.0516H60.3489V97.7367H56.549V96.0516H57.5312V89.8525H56.549V88.1674Z" fill="#F1F1F1"/>
<path d="M16.2211 104.632H16.5434L16.2364 103.75H14.7452L14.446 104.632H14.845V105.072H13.5865V104.632H13.9242L15.1315 101.188H15.886L17.0907 104.632H17.4795V105.072H16.2211V104.632ZM14.891 103.325H16.0881L15.4844 101.587L14.891 103.325ZM17.8965 101.188H19.1549V101.631H18.7661V104.632H20.1038C20.1311 104.632 20.1584 104.625 20.1857 104.612C20.213 104.6 20.2377 104.583 20.2599 104.563C20.282 104.542 20.2999 104.519 20.3136 104.492C20.3272 104.466 20.334 104.439 20.334 104.411V103.922H20.82V105.072H17.8965V104.632H18.2648V101.631H17.8965V101.188ZM26.0073 101.188H27.2657V101.631H26.9281L25.8205 105.072H25.0379L23.9866 101.687L23.0172 105.072H22.2422L21.1116 101.631H20.7689V101.188H22.0273V101.631H21.6897L22.6284 104.616L23.6183 101.188H24.3831L25.4369 104.616L26.3935 101.631H26.0073V101.188ZM29.8491 104.632H30.1714L29.8644 103.75H28.3732L28.074 104.632H28.473V105.072H27.2146V104.632H27.5522L28.7595 101.188H29.514L30.7187 104.632H31.1075V105.072H29.8491V104.632ZM28.519 103.325H29.7161L29.1124 101.587L28.519 103.325ZM31.1293 101.188H32.3877V101.631H32.0194L32.7484 102.879L33.5285 101.631H33.1244V101.188H34.3828V101.631H34.0529L32.9632 103.286V104.632H33.3622V105.072H32.1038V104.632H32.4593V103.274L31.4311 101.631H31.1293V101.188ZM36.5992 101.905C36.5446 101.83 36.4845 101.772 36.4188 101.732C36.3532 101.692 36.2811 101.661 36.2027 101.64C36.1243 101.619 36.0458 101.608 35.9674 101.608C35.8378 101.608 35.7244 101.623 35.6272 101.653C35.53 101.683 35.4494 101.723 35.3855 101.775C35.3215 101.826 35.2734 101.886 35.241 101.954C35.2086 102.022 35.1924 102.094 35.1924 102.169C35.1924 102.282 35.2124 102.373 35.2525 102.442C35.2925 102.511 35.3433 102.567 35.4047 102.609C35.466 102.65 35.5338 102.683 35.608 102.707C35.6822 102.731 35.7534 102.755 35.8216 102.779L36.3383 102.948C36.4934 102.998 36.6303 103.054 36.7488 103.117C36.8673 103.18 36.9666 103.255 37.0468 103.341C37.1269 103.428 37.1879 103.527 37.2297 103.64C37.2714 103.753 37.2923 103.883 37.2923 104.032C37.2923 104.193 37.2595 104.341 37.1938 104.478C37.1282 104.615 37.0365 104.733 36.9189 104.834C36.8012 104.935 36.661 105.014 36.4981 105.071C36.3353 105.128 36.1566 105.157 35.9623 105.157C35.7627 105.157 35.5922 105.134 35.4507 105.089C35.3092 105.044 35.1902 104.983 35.0939 104.907C34.9975 104.831 34.9204 104.744 34.8624 104.647C34.8044 104.55 34.7592 104.45 34.7268 104.347H34.5324V103.907H35.177C35.177 104.096 35.197 104.23 35.2371 104.309C35.2772 104.387 35.333 104.453 35.4047 104.505C35.4763 104.557 35.5615 104.596 35.6604 104.623C35.7593 104.649 35.8685 104.662 35.9878 104.662C36.1038 104.662 36.2082 104.649 36.3012 104.621C36.3941 104.594 36.4734 104.554 36.539 104.502C36.6047 104.45 36.655 104.387 36.69 104.313C36.7249 104.238 36.7424 104.154 36.7424 104.06C36.7424 103.956 36.7206 103.868 36.6772 103.795C36.6337 103.722 36.5778 103.661 36.5096 103.609C36.4414 103.558 36.3668 103.516 36.2858 103.484C36.2048 103.451 36.1268 103.423 36.0518 103.399L35.4916 103.24C35.3688 103.203 35.2567 103.155 35.1553 103.097C35.0538 103.039 34.9668 102.968 34.8944 102.884C34.8219 102.8 34.7661 102.703 34.7268 102.591C34.6876 102.479 34.668 102.349 34.668 102.202C34.668 102.054 34.697 101.915 34.755 101.785C34.8129 101.655 34.8982 101.541 35.0108 101.444C35.1233 101.347 35.261 101.27 35.4238 101.215C35.5867 101.159 35.773 101.131 35.9827 101.131C36.1208 101.131 36.2483 101.148 36.3651 101.18C36.4819 101.212 36.5876 101.258 36.6823 101.317C36.7769 101.376 36.8605 101.447 36.9329 101.53C37.0054 101.613 37.0664 101.704 37.1158 101.803H37.3077V102.243H36.681C36.681 102.093 36.6537 101.98 36.5992 101.905ZM43.8838 101.188H45.1422V101.631H44.8046L43.6971 105.072H42.9144L41.8631 101.687L40.8937 105.072H40.1187L38.9881 101.631H38.6454V101.188H39.9038V101.631H39.5662L40.5049 104.616L41.4948 101.188H42.2596L43.3134 104.616L44.27 101.631H43.8838V101.188ZM45.5592 101.188H46.7971V101.631H46.4288V104.632H46.7971V105.072H45.5592V104.632H45.9275V101.631H45.5592V101.188ZM47.5542 101.188H48.8127V101.631H48.4239V104.632H49.7616C49.7889 104.632 49.8162 104.625 49.8435 104.612C49.8708 104.6 49.8955 104.583 49.9177 104.563C49.9398 104.542 49.9577 104.519 49.9714 104.492C49.985 104.466 49.9918 104.439 49.9918 104.411V103.922H50.4778V105.072H47.5542V104.632H47.9226V101.631H47.5542V101.188ZM50.8947 101.188H52.3373C52.5147 101.188 52.6835 101.211 52.8438 101.257C53.0041 101.303 53.1533 101.368 53.2914 101.452C53.4295 101.535 53.5549 101.636 53.6674 101.753C53.78 101.87 53.8759 102 53.9552 102.144C54.0345 102.287 54.0954 102.441 54.138 102.606C54.1807 102.771 54.202 102.942 54.202 103.12C54.202 103.301 54.1807 103.474 54.138 103.64C54.0954 103.806 54.0345 103.961 53.9552 104.106C53.8759 104.252 53.78 104.384 53.6674 104.502C53.5549 104.621 53.4295 104.723 53.2914 104.807C53.1533 104.892 53.0041 104.957 52.8438 105.003C52.6835 105.049 52.5147 105.072 52.3373 105.072H50.8947V104.632H51.2631V101.631H50.8947V101.188ZM51.7644 101.631V104.632H52.368C52.5471 104.632 52.7155 104.592 52.8732 104.514C53.0309 104.435 53.1686 104.328 53.2863 104.192C53.404 104.056 53.4969 103.897 53.5651 103.713C53.6333 103.529 53.6674 103.332 53.6674 103.12C53.6674 102.911 53.6333 102.717 53.5651 102.536C53.4969 102.354 53.404 102.197 53.2863 102.063C53.1686 101.929 53.0309 101.823 52.8732 101.746C52.7155 101.669 52.5471 101.631 52.368 101.631H51.7644ZM58.6986 102.213C58.5844 102.018 58.433 101.865 58.2446 101.754C58.0562 101.643 57.846 101.587 57.6141 101.587C57.4163 101.587 57.2355 101.629 57.0718 101.713C56.9081 101.797 56.7679 101.909 56.6511 102.05C56.5343 102.191 56.4435 102.354 56.3787 102.539C56.3139 102.725 56.2815 102.92 56.2815 103.125C56.2815 103.368 56.3173 103.582 56.3889 103.769C56.4605 103.956 56.5539 104.112 56.669 104.236C56.7841 104.36 56.9209 104.463 57.0795 104.546C57.2381 104.629 57.4163 104.67 57.6141 104.67C57.8835 104.67 58.118 104.605 58.3175 104.474C58.517 104.343 58.6875 104.129 58.8291 103.83L59.2792 104.042C59.2144 104.227 59.1045 104.405 58.9493 104.577C58.7941 104.748 58.6027 104.887 58.3751 104.992C58.1474 105.097 57.8955 105.149 57.6192 105.149C57.3549 105.149 57.1119 105.099 56.8902 104.999C56.6686 104.899 56.4712 104.757 56.2981 104.573C56.125 104.388 55.9929 104.17 55.9017 103.917C55.8104 103.664 55.7648 103.4 55.7648 103.125C55.7648 102.848 55.8104 102.587 55.9017 102.341C55.9929 102.095 56.1208 101.881 56.2853 101.699C56.4499 101.517 56.646 101.373 56.8736 101.268C57.1013 101.163 57.3481 101.111 57.6141 101.111C57.8511 101.111 58.0558 101.145 58.228 101.212C58.4002 101.28 58.5464 101.36 58.6666 101.453C58.7869 101.546 58.8905 101.647 58.9774 101.757H59.2485V102.213H58.6986ZM62.1261 104.632H62.4484L62.1414 103.75H60.6502L60.351 104.632H60.75V105.072H59.4915V104.632H59.8292L61.0365 101.188H61.791L62.9957 104.632H63.3845V105.072H62.1261V104.632ZM60.796 103.325H61.9931L61.3894 101.587L60.796 103.325ZM63.5648 101.188H64.8207V101.631H64.4243V103.44C64.4243 103.657 64.4486 103.842 64.4972 103.995C64.5458 104.148 64.6131 104.273 64.6992 104.369C64.7853 104.466 64.8877 104.536 65.0062 104.58C65.1247 104.625 65.2547 104.647 65.3962 104.647C65.5429 104.647 65.6776 104.627 65.8004 104.588C65.9231 104.549 66.0284 104.483 66.1163 104.39C66.2041 104.296 66.2723 104.173 66.3209 104.018C66.3695 103.863 66.3938 103.671 66.3938 103.44V101.631H65.9743V101.188H67.2302V101.631H66.8849V103.384C66.8849 103.664 66.8461 103.912 66.7685 104.129C66.6909 104.346 66.5848 104.528 66.4501 104.675C66.3153 104.822 66.1568 104.934 65.9743 105.01C65.7918 105.086 65.5957 105.124 65.386 105.124C65.1814 105.124 64.99 105.086 64.8118 105.011C64.6336 104.936 64.4784 104.826 64.3463 104.68C64.2141 104.535 64.1101 104.358 64.0342 104.149C63.9583 103.939 63.9204 103.7 63.9204 103.43V101.631H63.5648V101.188ZM70.4645 105.088V104.309C70.3997 104.444 70.3187 104.561 70.2215 104.661C70.1243 104.761 70.0161 104.844 69.8967 104.908C69.7773 104.973 69.6499 105.022 69.5143 105.054C69.3787 105.087 69.241 105.103 69.1012 105.103C68.8489 105.103 68.6161 105.061 68.4029 104.976C68.1898 104.892 67.9967 104.757 67.8236 104.573C67.6505 104.388 67.5184 104.17 67.4271 103.917C67.3359 103.664 67.2903 103.4 67.2903 103.125C67.2903 102.848 67.3359 102.587 67.4271 102.341C67.5184 102.095 67.6463 101.88 67.8108 101.698C67.9754 101.515 68.1715 101.371 68.3991 101.267C68.6267 101.163 68.8736 101.111 69.1396 101.111C69.3851 101.111 69.5962 101.146 69.7726 101.216C69.9491 101.286 70.1 101.371 70.2254 101.471C70.3507 101.571 70.4509 101.666 70.5259 101.757H70.774V102.213H70.2241C70.1099 102.018 69.9585 101.864 69.7701 101.751C69.5817 101.639 69.3706 101.584 69.137 101.587C68.9409 101.587 68.761 101.629 68.5973 101.713C68.4336 101.797 68.2934 101.909 68.1766 102.051C68.0598 102.193 67.969 102.356 67.9042 102.541C67.8394 102.725 67.807 102.92 67.807 103.125C67.807 103.352 67.8428 103.563 67.9144 103.758C67.986 103.953 68.0772 104.111 68.1881 104.232C68.2989 104.353 68.4358 104.454 68.5986 104.533C68.7615 104.612 68.9418 104.652 69.1396 104.652C69.467 104.652 69.7356 104.572 69.9453 104.413C70.155 104.253 70.3017 104.004 70.3852 103.666H69.3007V103.225H70.9403V105.088H70.4645ZM74.5263 101.188H75.7848V101.628H75.4165V104.632H75.7848V105.072H74.5263V104.632H74.9151V103.235H72.6719V104.632H73.0607V105.072H71.8023V104.632H72.1706V101.628H71.8023V101.188H73.0607V101.628H72.6719V102.805H74.9151V101.628H74.5263V101.188ZM77.3348 104.632H77.6903V101.608H76.8053V102.213H76.281V101.188H79.7391V102.213H79.2148V101.608H78.1917V104.632H78.5907V105.072H77.3348V104.632Z" fill="#F1F1F1"/>
<mask id="mask0_203_61" style="mask-type:alpha" maskUnits="userSpaceOnUse" x="8" y="8" width="68" height="68">
<path d="M8.38141 8.39844H75.3403V75.4796H8.38141V8.39844Z" fill="#202020"/>
</mask>
<g mask="url(#mask0_203_61)">
<path d="M65.7887 41.9389C65.7887 39.1513 66.4963 36.5518 66.5029 36.5258L66.9707 34.8281L65.4049 35.628C64.1875 36.2811 63.03 37.0404 61.9457 37.8971C60.052 27.9296 51.2902 20.3703 40.7977 20.3703C34.2841 20.3469 28.1154 23.3006 24.0426 28.3932C22.7939 28.0317 21.4855 28.7351 21.0958 29.9773C20.7061 31.2196 21.3775 32.5463 22.6081 32.9656V38.9313C21.711 39.6828 20.7938 40.4962 19.8566 41.3715L19.2493 41.9389L19.8566 42.5061C20.7952 43.383 21.7124 44.1964 22.6081 44.9461V49.7381C22.5993 50.9236 21.6375 51.8801 20.454 51.8801C19.2706 51.8801 18.3087 50.9236 18.2999 49.7381V49.6419L18.7492 49.2953L16.7512 46.6973V49.7383C16.7436 51.0686 17.4477 52.3012 18.5965 52.9686C19.7452 53.6359 21.1628 53.6359 22.3116 52.9686C23.4603 52.3012 24.1644 51.0686 24.1569 49.7383V46.1961C29.4654 50.3164 34.1386 52.1981 38.8842 52.1981C44.6209 52.1981 50.6277 49.4466 58.8708 43.0265C59.3962 43.6592 59.9636 44.2556 60.5692 44.8118C59.1737 54.4926 50.8405 61.9555 40.7973 61.9555C35.4595 61.9712 30.3406 59.8316 26.5969 56.0198C26.2951 55.7204 25.809 55.7203 25.5071 56.0196C25.2053 56.3189 25.2004 56.8059 25.4961 57.1113C29.5301 61.2186 35.046 63.5242 40.7977 63.5074C51.2898 63.5074 60.0514 55.9484 61.9456 45.9811C63.03 46.8378 64.1875 47.5972 65.4049 48.2504L66.9703 49.0496L66.5033 47.3525C66.4961 47.3258 65.7887 44.7254 65.7887 41.9389ZM64.2561 41.163H60.6612C61.8476 39.9209 63.177 38.8241 64.6215 37.8959C64.4264 38.9755 64.3044 40.0671 64.2561 41.1633V41.163ZM23.3828 29.8499C23.7251 29.8499 24.0336 30.0564 24.1646 30.3732C24.2956 30.6899 24.2233 31.0546 23.9812 31.297C23.7392 31.5395 23.3753 31.612 23.0591 31.4808C22.7429 31.3495 22.5367 31.0404 22.5368 30.6975C22.5374 30.2297 22.9158 29.8506 23.3828 29.8499V29.8499ZM24.1572 32.9656C24.8777 32.7209 25.4387 32.1468 25.6674 31.4199C25.8962 30.693 25.7653 29.9004 25.3151 29.286C29.0963 24.6088 34.7899 21.9006 40.7977 21.9218C50.8411 21.9218 59.1749 29.3852 60.5698 39.066C59.9641 39.6221 59.3966 40.2186 58.8711 40.8514C50.6278 34.4306 44.621 31.679 38.8842 31.679C34.1387 31.679 29.4656 33.561 24.1572 37.6814V32.9656ZM27.6447 37.0811C28.2274 37.7819 29.2693 39.3799 29.3727 41.9389C29.2693 44.499 28.2262 46.0973 27.6456 46.7964C25.7067 45.5176 23.6822 43.9074 21.5277 41.9389C23.6816 39.9703 25.706 38.36 27.6447 37.0811ZM30.8788 42.5983C34.7681 45.0836 37.3103 45.3712 38.8846 45.3712C41.3611 45.3712 44.157 44.4694 47.4316 42.614L48.6236 41.9389L47.4316 41.2636C44.1567 39.4082 41.3611 38.5063 38.8842 38.5063C37.3098 38.5063 34.7674 38.7937 30.8788 41.2787C30.8176 40.6109 30.6922 39.9504 30.5045 39.3066C33.4727 37.5173 36.2209 36.6444 38.8842 36.6444C42.6179 36.6444 46.6896 38.2835 51.9889 41.9389C46.6892 45.5939 42.6179 47.2332 38.8846 47.2332C36.2207 47.2332 33.4726 46.3605 30.5044 44.5711C30.6922 43.9271 30.8176 43.2664 30.8788 42.5983V42.5983ZM32.7839 41.9385C35.7198 40.2684 37.6484 40.0578 38.8842 40.0578C40.7761 40.0578 42.9213 40.6748 45.4133 41.9389C42.9216 43.2029 40.7762 43.8196 38.8846 43.8196C37.6489 43.8196 35.7201 43.6092 32.7839 41.9385ZM38.8846 50.6463C35.6583 50.6463 32.4386 49.6831 28.9638 47.6237C29.3451 47.132 29.6729 46.6009 29.9416 46.0394C33.0689 47.8831 36.0039 48.7847 38.8846 48.7847C43.1691 48.7847 47.7655 46.8681 53.7876 42.5707L54.673 41.9389L53.7876 41.307C47.7655 37.0091 43.1691 35.0927 38.8842 35.0927C36.0041 35.0927 33.069 35.9938 29.9418 37.8381C29.673 37.2766 29.3452 36.7454 28.9638 36.2537C32.4385 34.1939 35.6579 33.2306 38.8842 33.2306C44.2108 33.2306 49.8872 35.8436 57.7452 41.9389C49.8874 48.0335 44.2114 50.6463 38.8846 50.6463ZM60.6612 42.7146H64.2561C64.3044 43.8107 64.4264 44.9023 64.6215 45.9819C63.177 45.0536 61.8476 43.9568 60.6612 42.7146ZM27.068 41.9389C27.0678 42.5105 26.6052 42.9737 26.0347 42.9737C25.4641 42.9736 25.0017 42.5102 25.0017 41.9386C25.0017 41.367 25.4643 40.9036 26.0348 40.9036C26.3089 40.9036 26.5717 41.0127 26.7655 41.2068C26.9592 41.401 27.0681 41.6643 27.068 41.9389V41.9389Z" fill="#F1F1F1"/>
</g>
</svg>
