<svg width="143" height="44" viewBox="0 0 143 44" fill="none" xmlns="http://www.w3.org/2000/svg">
<g clip-path="url(#clip0_171_25)">
<path d="M88.6656 34.2519C80.3759 40.3495 68.3606 43.6028 58.0156 43.6028C43.5103 43.6028 30.4517 38.2488 20.5725 29.3441C19.7963 28.6439 20.4917 27.6896 21.4232 28.2349C32.0848 34.4255 45.2676 38.1497 58.8849 38.1497C68.0688 38.1497 78.1716 36.2535 87.461 32.3186C88.8643 31.7237 90.0379 33.2357 88.6656 34.2519Z" fill="white"/>
<path d="M92.1119 30.3169C91.0563 28.966 85.1076 29.6787 82.4375 29.9947C81.6241 30.0938 81.4999 29.3874 82.2326 28.8793C86.9704 25.5516 94.7447 26.5121 95.6513 27.6275C96.5579 28.7491 95.4153 36.5261 90.9631 40.2379C90.2801 40.808 89.6281 40.5044 89.9324 39.7484C90.9321 37.2573 93.1737 31.674 92.1119 30.3169Z" fill="white"/>
<path d="M82.6238 5.38738V2.15269C82.6238 1.66314 82.9963 1.33472 83.4434 1.33472H97.955C98.4207 1.33472 98.7933 1.66934 98.7933 2.15269V4.92263C98.7871 5.38738 98.3959 5.99466 97.7004 6.95516L90.1807 17.6693C92.975 17.6012 95.9245 18.0163 98.458 19.4416C99.0292 19.7638 99.1845 20.2348 99.2279 20.6995V24.1511C99.2279 24.6221 98.7063 25.1736 98.1599 24.8885C93.6953 22.5523 87.7652 22.2983 82.8287 24.9133C82.3257 25.186 81.7979 24.6406 81.7979 24.1697V20.8916C81.7979 20.3649 81.8041 19.4664 82.3319 18.667L91.0438 6.19915H83.4621C82.9963 6.19915 82.6238 5.87073 82.6238 5.38738Z" fill="white"/>
<path d="M29.688 25.5703H25.273C24.8508 25.5393 24.5155 25.2233 24.4844 24.8205V2.2086C24.4844 1.75624 24.8632 1.39683 25.3351 1.39683H29.452C29.8805 1.41541 30.222 1.74384 30.253 2.15283V5.10868H30.3338C31.408 2.25198 33.4261 0.919678 36.1458 0.919678C38.9091 0.919678 40.6353 2.25198 41.8772 5.10868C42.9452 2.25198 45.3731 0.919678 47.9749 0.919678C49.8253 0.919678 51.8496 1.68188 53.0853 3.39218C54.4824 5.29457 54.1968 8.05832 54.1968 10.4812L54.1906 24.7523C54.1906 25.2047 53.8118 25.5703 53.3399 25.5703H48.9312C48.4903 25.5393 48.1363 25.1861 48.1363 24.7523V12.7678C48.1363 11.8135 48.2233 9.434 48.0122 8.52927C47.6831 7.01107 46.6957 6.58349 45.4166 6.58349C44.3486 6.58349 43.2309 7.29612 42.7776 8.43632C42.3243 9.57652 42.3677 11.4851 42.3677 12.7678V24.7523C42.3677 25.2047 41.989 25.5703 41.517 25.5703H37.1083C36.6612 25.5393 36.3135 25.1861 36.3135 24.7523L36.3073 12.7678C36.3073 10.2458 36.7233 6.53392 33.5875 6.53392C30.4145 6.53392 30.5387 10.1528 30.5387 12.7678V24.7523C30.5387 25.2047 30.1599 25.5703 29.688 25.5703Z" fill="white"/>
<path d="M111.287 0.919678C117.838 0.919678 121.383 6.53392 121.383 13.6726C121.383 20.5695 117.465 26.0412 111.287 26.0412C104.854 26.0412 101.352 20.427 101.352 13.4309C101.352 6.3914 104.897 0.919678 111.287 0.919678ZM111.324 5.53625C108.07 5.53625 107.865 9.96072 107.865 12.7183C107.865 15.482 107.822 21.3813 111.287 21.3813C114.708 21.3813 114.87 16.6222 114.87 13.7221C114.87 11.8135 114.789 9.53314 114.211 7.72369C113.715 6.14973 112.727 5.53625 111.324 5.53625Z" fill="white"/>
<path d="M129.878 25.5703H125.482C125.041 25.5393 124.687 25.1861 124.687 24.7523L124.681 2.13424C124.718 1.71906 125.084 1.39683 125.531 1.39683H129.623C130.008 1.41541 130.325 1.67568 130.412 2.02889V5.48667H130.493C131.728 2.3945 133.461 0.919678 136.51 0.919678C138.49 0.919678 140.422 1.6323 141.664 3.58427C142.818 5.39372 142.818 8.43632 142.818 10.6238V24.8577C142.769 25.2543 142.402 25.5703 141.968 25.5703H137.54C137.137 25.5393 136.802 25.2419 136.758 24.8577V12.5757C136.758 10.1032 137.044 6.48435 133.995 6.48435C132.921 6.48435 131.933 7.20317 131.443 8.29379C130.822 9.67567 130.741 11.0513 130.741 12.5757V24.7523C130.735 25.2047 130.35 25.5703 129.878 25.5703Z" fill="white"/>
<path d="M71.0555 14.7692V13.8149C67.8638 13.8149 64.4921 14.4966 64.4921 18.2518C64.4921 20.1542 65.4794 21.4431 67.1746 21.4431C68.4165 21.4431 69.528 20.6809 70.2297 19.4416C71.099 17.9172 71.0555 16.4857 71.0555 14.7692ZM75.5077 25.5082C75.2159 25.7684 74.7936 25.787 74.4645 25.6135C72.9991 24.399 72.7383 23.8351 71.9311 22.6763C69.5094 25.1426 67.7955 25.88 64.6535 25.88C60.9403 25.88 58.0467 23.5934 58.0467 19.014C58.0467 15.4385 59.9902 13.0032 62.7534 11.8134C65.1503 10.7599 68.4972 10.574 71.0555 10.2828V9.71269C71.0555 8.66544 71.1362 7.4261 70.5215 6.52138C69.9813 5.7096 68.9505 5.37498 68.0439 5.37498C66.3612 5.37498 64.8585 6.23632 64.4921 8.02098C64.4176 8.41758 64.1257 8.80797 63.7283 8.82656L59.4438 8.368C59.0836 8.28745 58.6862 7.9962 58.7856 7.44469C59.7729 2.26422 64.4611 0.702637 68.6587 0.702637C70.8071 0.702637 73.6138 1.27274 75.309 2.89628C77.4575 4.89783 77.2526 7.56862 77.2526 10.4749V17.3409C77.2526 19.4044 78.1095 20.3091 78.9167 21.4245C79.2024 21.8211 79.2645 22.2983 78.9043 22.5957C78.0039 23.3455 76.4019 24.7398 75.5201 25.5206L75.5077 25.5082" fill="white"/>
<path d="M13.177 14.7692V13.8149C9.98531 13.8149 6.61356 14.4966 6.61356 18.2518C6.61356 20.1542 7.60086 21.4431 9.29605 21.4431C10.5379 21.4431 11.6494 20.6809 12.3511 19.4416C13.2204 17.9172 13.177 16.4857 13.177 14.7692ZM17.6292 25.5082C17.3373 25.7684 16.9151 25.787 16.586 25.6135C15.1205 24.399 14.8597 23.8351 14.0525 22.6763C11.6308 25.1426 9.91701 25.88 6.775 25.88C3.06173 25.88 0.168121 23.5934 0.168121 19.014C0.168121 15.4385 2.11169 13.0032 4.8749 11.8134C7.27176 10.7599 10.6187 10.574 13.177 10.2828V9.71269C13.177 8.66544 13.2577 7.4261 12.643 6.52138C12.1027 5.7096 11.072 5.37498 10.1654 5.37498C8.48261 5.37498 6.97992 6.23632 6.61356 8.02098C6.53904 8.41758 6.2472 8.80797 5.84979 8.82656L1.56525 8.368C1.2051 8.28745 0.807697 7.9962 0.907048 7.44469C1.89436 2.26422 6.58251 0.702637 10.7801 0.702637C12.9286 0.702637 15.7353 1.27274 17.4305 2.89628C19.579 4.89783 19.374 7.56862 19.374 10.4749V17.3409C19.374 19.4044 20.2309 20.3091 21.0382 21.4245C21.3238 21.8211 21.3859 22.2983 21.0258 22.5957C20.1254 23.3455 18.5233 24.7398 17.6416 25.5206L17.6292 25.5082" fill="white"/>
</g>
<defs>
<clipPath id="clip0_171_25">
<rect width="142.821" height="43.0184" fill="white" transform="translate(0.0819092 0.644531)"/>
</clipPath>
</defs>
</svg>
