<svg width="80" height="15" viewBox="0 0 80 15" fill="none" xmlns="http://www.w3.org/2000/svg">
<path d="M5.068 14.7688H2.05352V7.4888H0V5.11858H2.05344V3.43199C2.05344 1.43339 2.96168 0 5.968 0C6.60384 0 7.60208 0.124157 7.60208 0.124157V2.32504H6.5536C5.48528 2.32504 5.06816 2.63985 5.06816 3.51019V5.11858H7.56208L7.34 7.4888H5.06808L5.068 14.7688ZM11.9848 4.92916C11.9409 4.92916 11.8957 4.93071 11.851 4.9318C9.05576 4.9318 7.77688 6.96869 7.77688 9.86011C7.77688 13.5025 9.43576 14.9603 11.8728 14.9603C13.2671 14.9603 14.1832 14.3918 14.74 13.3308V14.7698H17.6072V5.11958H14.74V6.60366C14.2854 5.64884 13.3437 4.94048 11.9848 4.92916ZM12.7138 7.20949C13.8878 7.20949 14.5925 8.00279 14.5925 9.35217L14.5952 10.7304C14.5952 11.6399 14.0132 12.7039 12.7138 12.7039C10.7162 12.7039 10.7696 10.6143 10.7696 9.91831C10.7696 7.57723 11.8339 7.20949 12.7138 7.20949ZM18.7651 9.94521C18.7651 8.77253 18.7072 4.93544 23.8675 4.93544C25.939 4.93544 26.8039 5.57351 26.8039 5.57351L26.1087 7.6624C26.1087 7.6624 25.2449 7.20158 24.1193 7.20158C22.6776 7.20158 21.7577 8.01124 21.7577 9.43579L21.7593 10.4573C21.7593 11.8261 22.6469 12.7398 24.1222 12.7398C25.1477 12.7398 26.0928 12.2747 26.0928 12.2747L26.7862 14.3199C26.7862 14.3199 25.9954 14.962 23.882 14.962C18.9686 14.962 18.7651 11.5194 18.7651 9.94521ZM43.6154 4.9318C46.4106 4.9318 47.7097 6.96869 47.7097 9.86011C47.7097 13.5025 46.0507 14.9603 43.6137 14.9603C42.2194 14.9603 41.1886 14.3918 40.6318 13.3308V14.7698L37.8007 14.7687V0.29342L40.8066 0.0394482V6.47291C41.2405 5.34736 42.6662 4.9318 43.6154 4.9318ZM42.7726 7.20949C41.5986 7.20949 40.8066 8.00279 40.8066 9.35217L40.8038 10.7304C40.8021 11.6399 41.3523 12.7039 42.7726 12.7039C44.7702 12.7039 44.7169 10.6143 44.7169 9.91831C44.7169 7.57723 43.6526 7.20949 42.7726 7.20949ZM32.0194 4.93978C28.849 4.93978 27.1753 6.61435 27.1753 9.59025V10.1431C27.1753 14.0056 29.5258 15 32.328 15C35.0518 15 36.2846 14.262 36.2846 14.262L35.7222 12.2965C35.7222 12.2965 34.2719 12.8943 32.6884 12.8943C31.0468 12.8943 30.3408 12.489 30.1598 10.9606H36.525V9.38386C36.525 6.15578 34.6466 4.93978 32.0194 4.93978ZM32.0958 6.90785C33.1933 6.90785 33.9044 7.55979 33.8654 9.07177H30.1654C30.2295 7.48043 30.9964 6.90785 32.0958 6.90785ZM53.7034 4.92653C50.4476 4.92653 48.7336 6.70394 48.7336 9.88917C48.7336 14.2595 51.6882 14.963 53.7088 14.963C56.6669 14.963 58.6349 13.4201 58.6349 9.92885C58.6349 6.29505 56.4221 4.92653 53.7034 4.92653ZM53.6624 7.21739C55.094 7.21739 55.6613 8.25537 55.6613 9.43688V10.4527C55.6613 11.884 54.8675 12.7119 53.657 12.7119C52.5248 12.7119 51.7291 11.9375 51.7291 10.4527V9.43688C51.7291 7.85337 52.6759 7.21739 53.6624 7.21739ZM64.6232 4.92653C61.3674 4.92653 59.6534 6.70394 59.6534 9.88917C59.6534 14.2595 62.608 14.963 64.6286 14.963C67.5866 14.963 69.5547 13.4201 69.5547 9.92885C69.5547 6.29505 67.3418 4.92653 64.6232 4.92653ZM64.5822 7.21739C66.0138 7.21739 66.581 8.25537 66.581 9.43688V10.4527C66.581 11.884 65.7873 12.7119 64.5768 12.7119C63.4446 12.7119 62.649 11.9375 62.649 10.4527V9.43688C62.649 7.85337 63.5958 7.21739 64.5822 7.21739ZM70.6906 14.7688V0.29342L73.7053 0.0395257V9.74184L76.6962 5.11865H79.8798L76.7598 9.90692L80 14.7688H76.8073L73.7053 10.0479V14.7688H70.6906Z" fill="#F1F1F1"/>
</svg>
