<svg width="65" height="19" viewBox="0 0 65 19" fill="none" xmlns="http://www.w3.org/2000/svg">
<path d="M3.34535 0.0666191C2.01496 0.640442 0.552426 2.26156 0.0905097 4.29642C-0.494471 6.87467 1.93991 7.96493 2.13958 7.60745C2.37459 7.1874 1.70336 7.04535 1.5652 5.70764C1.38663 3.97987 2.16615 2.04928 3.1472 1.2022C3.32956 1.04482 3.32089 1.26386 3.32089 1.66904C3.32089 2.39357 3.28204 8.89781 3.28204 10.2553C3.28204 12.092 3.20841 12.6721 3.07618 13.2452C2.9422 13.826 2.72681 14.2185 2.89002 14.3696C3.07237 14.5387 3.85095 14.1365 4.30168 13.4883C4.84217 12.7109 5.03137 11.7772 5.06534 10.7633C5.10636 9.54099 5.10461 7.60151 5.10636 6.49524C5.108 5.48063 5.12295 2.50962 5.0891 0.723555C5.08081 0.285471 3.90172 -0.174144 3.34528 0.0660861M50.5872 8.66265C50.5443 9.61755 50.3392 10.3639 50.0846 10.8904C49.5917 11.9096 48.569 12.2261 48.1348 10.7609C47.8981 9.96228 47.8871 8.62845 48.0572 7.51395C48.2304 6.37859 48.714 5.52114 49.5147 5.59846C50.3045 5.6749 50.6742 6.72357 50.5872 8.6626V8.66265ZM37.2725 14.5871C37.2618 16.1737 37.0194 17.5649 36.4998 17.9689C35.7627 18.5418 34.772 18.1121 34.9772 16.9543C35.1587 15.9298 36.0171 14.8835 37.2746 13.605C37.2746 13.605 37.2772 13.8966 37.2725 14.5871H37.2725ZM37.0712 8.6534C37.0261 9.52313 36.8073 10.3968 36.5686 10.8905C36.0758 11.9097 35.0456 12.2283 34.6187 10.761C34.3269 9.75854 34.3968 8.46103 34.5412 7.64348C34.7286 6.58275 35.1828 5.59869 35.9987 5.59869C36.7919 5.59869 37.183 6.49539 37.0712 8.65347V8.6534ZM29.358 8.6401C29.3096 9.56122 29.1352 10.3312 28.8553 10.8905C28.349 11.9027 27.3473 12.2237 26.9055 10.761C26.587 9.70636 26.6954 8.26826 26.8279 7.49139C27.0245 6.33857 27.5169 5.52125 28.2854 5.59869C29.0749 5.67817 29.4587 6.72367 29.358 8.64017V8.6401ZM64.706 9.71601C64.513 9.71601 64.4249 9.921 64.352 10.266C64.0993 11.4658 63.8337 11.7367 63.4911 11.7367C63.1084 11.7367 62.7645 11.1426 62.6762 9.95342C62.6067 9.01834 62.6178 7.29683 62.7067 5.58438C62.7248 5.23254 62.6306 4.88442 61.7148 4.54159C61.3207 4.39413 60.7479 4.17701 60.4626 4.88645C59.6568 6.89075 59.3414 8.48201 59.2673 9.12843C59.2634 9.16189 59.2236 9.16872 59.2166 9.09056C59.1694 8.57282 59.0637 7.63199 59.0505 5.6553C59.048 5.26963 58.9687 4.94135 58.5556 4.67259C58.2875 4.49819 57.4736 4.18975 57.1805 4.5567C56.9265 4.8568 56.6324 5.66443 56.3269 6.62177C56.0785 7.39987 55.9056 7.92623 55.9056 7.92623C55.9056 7.92623 55.9088 5.82677 55.9118 5.03041C55.9131 4.72997 55.7131 4.62986 55.6528 4.61172C55.3814 4.53054 54.8466 4.39493 54.6196 4.39493C54.3395 4.39493 54.2709 4.55625 54.2709 4.7913C54.2709 4.82208 54.2267 7.55545 54.2267 9.46674C54.2267 9.54976 54.2267 9.64035 54.2275 9.73657C54.0726 10.615 53.5702 11.8075 53.0239 11.8075C52.4768 11.8075 52.2187 11.309 52.2187 9.03039C52.2187 7.70114 52.2575 7.12315 52.2765 6.16175C52.2876 5.608 52.3089 5.18276 52.3077 5.08626C52.3037 4.79033 51.807 4.64118 51.576 4.58606C51.3438 4.53047 51.1421 4.50894 50.9845 4.51818C50.7616 4.53115 50.6038 4.68188 50.6038 4.8892C50.6038 5.00035 50.605 5.21173 50.605 5.21173C50.3178 4.7467 49.8559 4.42304 49.5486 4.32924C48.7208 4.07593 47.8571 4.30038 47.2056 5.23981C46.6877 5.98622 46.3756 6.83162 46.2527 8.04622C46.1629 8.93419 46.1922 9.83465 46.3519 10.5962C46.159 11.4555 45.8009 11.8075 45.4088 11.8075C44.8396 11.8075 44.4269 10.8501 44.4748 9.19431C44.5064 8.10524 44.7179 7.34095 44.9491 6.23525C45.0476 5.7639 44.9676 5.51713 44.7667 5.28061C44.5824 5.06371 44.1899 4.95289 43.6256 5.08919C43.2236 5.18637 42.6489 5.29087 42.1231 5.37114C42.1231 5.37114 42.1548 5.2407 42.1809 5.01073C42.3176 3.80469 41.0458 3.90254 40.64 4.28776C40.3978 4.51774 40.2329 4.78898 40.1703 5.27667C40.0711 6.0506 40.6837 6.41563 40.6837 6.41563C40.4827 7.36361 39.99 8.602 39.4814 9.49734C39.209 9.97704 39.0006 10.3325 38.7315 10.7104C38.7305 10.5697 38.7298 10.429 38.7293 10.2889C38.7231 8.29589 38.7489 6.7273 38.7603 6.16194C38.7713 5.60819 38.7929 5.19422 38.7917 5.09772C38.7886 4.88127 38.666 4.79954 38.4108 4.69605C38.1852 4.60451 37.9185 4.54115 37.6418 4.51905C37.2926 4.49099 37.0822 4.68185 37.0877 4.90754C37.0887 4.95015 37.0887 5.21181 37.0887 5.21181C36.8015 4.74678 36.3396 4.42312 36.0323 4.32932C35.2045 4.07612 34.3408 4.30058 33.6893 5.23988C33.1715 5.9863 32.8325 7.03372 32.7364 8.03706C32.6469 8.97218 32.6635 9.76686 32.7855 10.4363C32.6538 11.1066 32.2754 11.8076 31.8475 11.8076C31.3005 11.8076 30.9892 11.309 30.9892 9.03048C30.9892 7.70122 31.028 7.12323 31.047 6.16194C31.058 5.60819 31.0794 5.18284 31.0782 5.08645C31.0741 4.79052 30.5775 4.64137 30.3465 4.58613C30.1047 4.52853 29.8959 4.50733 29.7356 4.5195C29.5242 4.53574 29.3755 4.73089 29.3755 4.87643V5.21181C29.0883 4.74678 28.6264 4.42312 28.3191 4.32932C27.4913 4.07612 26.6323 4.30419 25.976 5.23988C25.548 5.85 25.2015 6.52641 25.0232 8.02376C24.9717 8.45646 24.9489 8.86166 24.9519 9.24039C24.7812 10.3159 24.0274 11.5555 23.4108 11.5555C23.0499 11.5555 22.7063 10.8344 22.7063 9.29743C22.7063 7.25017 22.8293 4.3353 22.8501 4.05437C22.8501 4.05437 23.6291 4.04073 23.78 4.03892C24.1686 4.03452 24.5206 4.04399 25.0382 4.01671C25.2978 4.00307 25.5479 3.04302 25.28 2.9242C25.1585 2.87042 24.3002 2.8233 23.96 2.81586C23.6739 2.80918 22.8774 2.74844 22.8774 2.74844C22.8774 2.74844 22.9489 0.813687 22.9655 0.609304C22.9796 0.43896 22.7657 0.351256 22.6431 0.298038C22.3448 0.168058 22.078 0.105824 21.7617 0.0386356C21.3247 -0.0542532 21.1265 0.0366062 21.0878 0.416635C21.0294 0.993393 20.9992 2.68272 20.9992 2.68272C20.6786 2.68272 19.5832 2.61813 19.2624 2.61813C18.9644 2.61813 18.6427 3.93881 19.0548 3.95504C19.5288 3.97399 20.355 3.99033 20.9026 4.00736C20.9026 4.00736 20.8782 6.97025 20.8782 7.88498C20.8782 7.9823 20.8791 8.07602 20.8792 8.16695C20.5778 9.78583 19.5161 10.6603 19.5161 10.6603C19.7441 9.58933 19.2784 8.78507 18.4395 8.10427C18.1304 7.85339 17.5202 7.37845 16.8375 6.85799C16.8375 6.85799 17.2329 6.45643 17.5836 5.64857C17.832 5.07633 17.8428 4.42145 17.2329 4.27704C16.2253 4.03827 15.3945 4.8008 15.1467 5.61486C14.9547 6.2455 15.0571 6.71346 15.4332 7.19957C15.4607 7.23509 15.4904 7.27138 15.5212 7.30791C15.2937 7.75966 14.9812 8.36787 14.7166 8.83953C13.982 10.1491 13.4271 11.1849 13.0078 11.1849C12.6726 11.1849 12.6771 10.1332 12.6771 9.14865C12.6771 8.29983 12.7379 7.0237 12.7865 5.70246C12.8025 5.2655 12.5905 5.01657 12.2351 4.79111C12.0191 4.65413 11.5582 4.38481 11.2912 4.38481C10.8916 4.38481 9.73884 4.44084 8.6496 7.68749C8.51232 8.0967 8.24265 8.84234 8.24265 8.84234L8.26586 4.93811C8.26586 4.84658 8.21854 4.75808 8.11021 4.69753C7.92666 4.59484 7.43642 4.38481 7.00051 4.38481C6.79281 4.38481 6.68916 4.48436 6.68916 4.68277L6.65114 10.791C6.65114 11.2551 6.66288 11.7965 6.70742 12.0333C6.75178 12.2704 6.82366 12.4633 6.91268 12.578C7.00157 12.6926 7.1044 12.78 7.27393 12.816C7.43172 12.8495 8.29573 12.9638 8.34064 12.6236C8.39445 12.2158 8.39651 11.7748 8.8502 10.13C9.55651 7.56923 10.4774 6.31979 10.9103 5.87607C10.986 5.79851 11.0724 5.79388 11.0683 5.92082C11.0498 6.48224 10.9848 7.88511 10.941 9.07695C10.8238 12.2664 11.3869 12.8576 12.1916 12.8576C12.8072 12.8576 13.675 12.2273 14.6053 10.6318C15.1852 9.63748 15.7484 8.66253 16.1529 7.95986C16.4349 8.2288 16.7513 8.51825 17.0675 8.82747C17.8022 9.54607 18.0435 10.2289 17.8834 10.8767C17.761 11.3719 17.2999 11.8822 16.4794 11.3862C16.2402 11.2414 16.1382 11.1296 15.8977 10.9665C15.7685 10.8788 15.5712 10.8527 15.453 10.9445C15.1457 11.1831 14.97 11.4867 14.8697 11.8626C14.7721 12.2283 15.1276 12.4217 15.4961 12.5908C15.8133 12.7363 16.4953 12.8682 16.9302 12.8832C18.6246 12.9416 19.982 12.0402 20.927 9.7149C21.0961 11.723 21.816 12.8594 23.0667 12.8594C23.9029 12.8594 24.7413 11.7457 25.1079 10.65C25.2132 11.0967 25.369 11.485 25.5702 11.8135C26.5339 13.3869 28.4036 13.0482 29.3427 11.7121C29.6331 11.2993 29.6773 11.1509 29.6773 11.1509C29.8143 12.4125 30.8002 12.8533 31.3648 12.8533C31.997 12.8533 32.6498 12.5453 33.1074 11.4839C33.161 11.5991 33.2195 11.7091 33.2834 11.8134C34.2472 13.3869 36.1168 13.0482 37.056 11.7121C37.1003 11.6494 37.1387 11.5926 37.1723 11.5415L37.1998 12.3702C37.1998 12.3702 36.6641 12.8767 36.3352 13.1873C34.8877 14.5557 33.7871 15.5939 33.7062 16.8029C33.6022 18.3444 34.8155 18.9173 35.7335 18.9924C36.7083 19.0721 37.543 18.5172 38.0561 17.7407C38.5074 17.0572 38.8028 15.5861 38.7812 14.1332C38.7725 13.5514 38.7583 12.8116 38.7472 12.0186C39.2559 11.4098 39.8291 10.6404 40.3568 9.7398C40.932 8.7583 41.5484 7.44023 41.864 6.41445C41.864 6.41445 42.3996 6.41919 42.9711 6.38064C43.1539 6.36835 43.2064 6.40678 43.1726 6.54489C43.1318 6.71173 42.4506 9.4194 43.0723 11.2232C43.4979 12.4579 44.4573 12.8552 45.0261 12.8552C45.6919 12.8552 46.3289 12.3371 46.6702 11.5677C46.7114 11.6535 46.7544 11.7365 46.8013 11.8131C47.7651 13.3865 49.6281 13.0458 50.5738 11.7118C50.7873 11.4108 50.9084 11.1506 50.9084 11.1506C51.1114 12.4563 52.0968 12.8596 52.6612 12.8596C53.2491 12.8596 53.8071 12.6112 54.2598 11.5075C54.2788 11.9935 54.3085 12.3909 54.3556 12.5161C54.3842 12.5928 54.5513 12.6889 54.6728 12.7354C55.2107 12.9409 55.7593 12.8437 55.9622 12.8015C56.1028 12.7721 56.2124 12.6559 56.2274 12.3558C56.2668 11.5678 56.2426 10.2438 56.4744 9.25988C56.8636 7.60854 57.2266 6.96798 57.3988 6.65086C57.4952 6.47319 57.6039 6.44388 57.6079 6.63192C57.616 7.0124 57.6344 8.12972 57.7851 9.63089C57.8958 10.735 58.0438 11.3875 58.1574 11.5941C58.4818 12.1847 58.8825 12.2126 59.2087 12.2126C59.4163 12.2126 59.8503 12.1535 59.8114 11.7777C59.7925 11.5945 59.8257 10.4623 60.2093 8.83543C60.4599 7.77302 60.8776 6.81307 61.0283 6.46213C61.0838 6.33271 61.1096 6.43473 61.1088 6.45461C61.077 7.18626 61.0058 9.5794 61.2951 10.8882C61.6872 12.6613 62.8215 12.8597 63.2168 12.8597C64.0607 12.8597 64.7508 12.1983 64.9833 10.4579C65.0393 10.0391 64.9564 9.7157 64.7079 9.7157" fill="#F1F1F1"/>
</svg>
