<svg width="103" height="97" viewBox="0 0 103 97" fill="none" xmlns="http://www.w3.org/2000/svg">
<path d="M11.1031 45.4473C10.2341 46.2495 9.22988 46.7748 8.0904 47.023C6.95093 47.2713 5.80873 47.2251 4.66381 46.8846C3.34542 46.4925 2.30202 45.808 1.53362 44.8313C0.765212 43.8546 0.28754 42.756 0.100601 41.5355C-0.0863382 40.3151 -0.0127461 39.1389 0.321378 38.0071C0.686344 36.7709 1.30814 35.7672 2.18678 34.9963C3.06541 34.2253 4.06321 33.7218 5.1802 33.4858C6.29719 33.2498 7.38477 33.2892 8.44296 33.6039C9.60522 33.9496 10.5951 34.5755 11.4127 35.4816C12.2302 36.3877 12.7841 37.4521 13.0741 38.6749C13.3642 39.8976 13.3242 41.1358 12.954 42.3895C12.5891 43.6258 11.9721 44.645 11.1031 45.4473ZM11.7996 38.8214C11.0228 37.9369 9.79308 37.2444 8.11039 36.7439C6.96547 36.4034 5.87323 36.268 4.83367 36.3376C3.79411 36.4072 2.9073 36.6785 2.17323 37.1515C1.43917 37.6246 0.948769 38.279 0.702032 39.1147C0.40389 40.1247 0.594049 41.0146 1.27251 41.7846C1.95097 42.5547 3.10552 43.1822 4.73616 43.6672C5.96782 44.0335 7.14375 44.1891 8.26394 44.134C9.38414 44.0789 10.3204 43.8318 11.0728 43.3926C11.8252 42.9535 12.3119 42.3595 12.5329 41.6108C12.8208 40.6357 12.5763 39.7059 11.7996 38.8214ZM24.615 22.0429C24.7002 22.1104 24.726 22.1656 24.6923 22.2083L21.934 25.7144C21.7658 25.9282 21.0398 25.9718 19.7562 25.8453C18.4725 25.7187 16.7881 25.4422 14.7029 25.0158C14.51 25.3489 14.2958 25.6651 14.0603 25.9644L13.7744 26.3278L16.7776 28.7082C17.2178 29.0571 17.5625 29.2783 17.8117 29.3717C18.061 29.4652 18.2912 29.451 18.5023 29.3291C18.7135 29.2072 18.9761 28.9467 19.29 28.5476C19.3124 28.5191 19.3663 28.5387 19.4515 28.6062C19.5366 28.6737 19.568 28.7217 19.5456 28.7502C19.2092 29.1778 18.9386 29.5071 18.7338 29.7382L17.5688 31.175L16.4968 32.5815C16.3092 32.8493 16.036 33.2113 15.6772 33.6674C15.6547 33.6959 15.6009 33.6763 15.5157 33.6088C15.4305 33.5413 15.3991 33.4933 15.4216 33.4648C15.7355 33.0657 15.9299 32.7454 16.0047 32.5038C16.0794 32.2623 16.0419 32.0243 15.8921 31.7898C15.7423 31.5553 15.4543 31.2693 15.0284 30.9316L8.51085 25.7657C8.08487 25.428 7.74725 25.2125 7.49801 25.119C7.24876 25.0256 7.0122 25.0406 6.78833 25.164C6.56447 25.2873 6.30116 25.5414 5.99842 25.9263C5.96478 25.969 5.90536 25.9566 5.82016 25.8891C5.73497 25.8216 5.70919 25.7664 5.74282 25.7237L6.58827 24.693C7.06519 24.1454 7.4382 23.7006 7.70731 23.3585C7.92036 23.0877 8.10948 22.8327 8.27469 22.5934C8.4399 22.3541 8.58268 22.1433 8.70303 21.961C9.03046 21.4569 9.35677 20.9982 9.68194 20.5849C10.5565 19.4732 11.4012 18.7658 12.2159 18.4629C13.0306 18.1599 13.7717 18.2729 14.439 18.8019C14.9928 19.2408 15.3638 19.8241 15.5521 20.5518C15.7404 21.2796 15.7369 22.0752 15.5417 22.9386C17.4394 23.1932 18.9689 23.3295 20.1304 23.3477C21.2919 23.3658 22.2046 23.2679 22.8687 23.0538C23.5328 22.8397 24.0555 22.4903 24.4367 22.0057C24.4704 21.963 24.5298 21.9754 24.615 22.0429ZM13.7734 25.494C14.4125 24.6816 14.6673 23.9695 14.5377 23.3577C14.4081 22.7459 13.967 22.1417 13.2145 21.5452C11.7377 20.3747 10.5733 20.331 9.72107 21.4142C9.4856 21.7135 9.3473 21.9626 9.30617 22.1614C9.26504 22.3602 9.31789 22.5641 9.46473 22.773C9.61157 22.982 9.89088 23.2496 10.3027 23.576L13.3484 25.9902C13.4411 25.9017 13.5828 25.7363 13.7734 25.494ZM27.0503 6.13977C27.8012 5.8623 28.4546 5.69561 29.0104 5.63968C29.147 5.6218 29.247 5.63094 29.3104 5.66713C29.3738 5.70332 29.4378 5.77611 29.5023 5.8855L31.0432 8.23045C31.0709 8.27733 31.0504 8.33171 30.9818 8.3936C30.9132 8.45549 30.8448 8.46444 30.7768 8.42043C29.5861 7.75629 28.538 7.36082 27.6327 7.23405C26.7274 7.10728 25.8777 7.27984 25.0837 7.75172C23.9783 8.40865 23.3902 9.35437 23.3195 10.5889C23.2487 11.8234 23.6465 13.1751 24.513 14.644C25.0845 15.6129 25.76 16.4461 26.5395 17.1437C27.3189 17.8412 28.1657 18.2877 29.08 18.483C29.9942 18.6783 30.9028 18.5077 31.8058 17.971C32.5998 17.4992 33.1302 16.8568 33.3972 16.0439C33.6641 15.231 33.7442 14.1281 33.6375 12.7353C33.6162 12.6635 33.6491 12.6123 33.7361 12.5817C33.8232 12.5511 33.8805 12.5592 33.9082 12.6061L35.187 15.2018C35.2452 15.336 35.2726 15.4358 35.2691 15.5012C35.2656 15.5666 35.2122 15.6722 35.109 15.818C34.1591 16.9523 33.0381 17.9035 31.7459 18.6715C30.2513 19.5597 28.854 19.9891 27.554 19.9597C26.2541 19.9303 25.1273 19.5974 24.1738 18.9612C23.2202 18.3249 22.4761 17.5536 21.9414 16.6472C21.3146 15.5846 21.0272 14.4469 21.0793 13.234C21.1313 12.0212 21.5041 10.871 22.1978 9.78342C22.8914 8.69583 23.8454 7.79118 25.0597 7.06948C25.6358 6.72714 26.2993 6.41724 27.0503 6.13977ZM53.4667 12.4624C53.4812 12.5704 53.4616 12.628 53.4078 12.6353C52.8519 12.7104 52.4204 12.7596 52.1131 12.7829L50.3343 12.9959L48.5359 13.2666C48.2335 13.3258 47.8044 13.393 47.2485 13.4681C47.1947 13.4754 47.1606 13.425 47.1461 13.3171C47.1316 13.2091 47.1512 13.1514 47.205 13.1442C47.7071 13.0763 48.0686 12.9816 48.2897 12.8601C48.5107 12.7386 48.6485 12.5413 48.7031 12.2682C48.7578 11.9951 48.7489 11.5885 48.6764 11.0486L48.1619 7.21504L41.6799 8.09153L42.1944 11.9251C42.2668 12.465 42.3648 12.8549 42.4883 13.0948C42.6117 13.3346 42.8012 13.4877 43.0565 13.5539C43.3119 13.6202 43.6906 13.6194 44.1926 13.5515C44.2285 13.5467 44.2537 13.5982 44.2682 13.7062C44.2827 13.8142 44.272 13.8706 44.2361 13.8755C43.6803 13.9506 43.2487 13.9998 42.9415 14.023L41.1358 14.2397L39.3912 14.5031C39.0708 14.5647 38.6238 14.6344 38.05 14.712C38.0141 14.7168 37.9889 14.6652 37.9744 14.5572C37.9599 14.4493 37.9706 14.3928 38.0065 14.388C38.5265 14.3177 38.9015 14.2212 39.1315 14.0984C39.3614 13.9757 39.5038 13.7778 39.5584 13.5047C39.613 13.2316 39.6041 12.8251 39.5316 12.2852L38.4229 4.02408C38.3504 3.48414 38.2524 3.09425 38.129 2.8544C38.0055 2.61455 37.8161 2.4615 37.5607 2.39524C37.3054 2.32899 36.9356 2.32859 36.4515 2.39405C36.3977 2.40133 36.3636 2.35097 36.3491 2.24298C36.3346 2.13499 36.3542 2.07736 36.408 2.07008L37.7027 1.92251C38.4247 1.86152 39.0099 1.80072 39.4582 1.74011C39.9423 1.67464 40.5406 1.57542 41.253 1.44244L42.5404 1.24087C42.5763 1.23602 42.6014 1.28759 42.6159 1.39558C42.6304 1.50357 42.6197 1.55998 42.5839 1.56483C41.8666 1.66182 41.4129 1.85145 41.2225 2.13373C41.0322 2.41601 40.989 2.94411 41.0929 3.71802L41.5856 7.38961L48.0677 6.51311L47.5749 2.84153C47.5024 2.30159 47.4038 1.90719 47.2792 1.65834C47.1545 1.4095 46.9683 1.24684 46.7208 1.17037C46.4732 1.0939 46.0983 1.08961 45.5963 1.1575C45.5425 1.16478 45.5083 1.11442 45.4938 1.00643C45.4793 0.898442 45.499 0.840814 45.5528 0.83354L46.8474 0.685967C47.5695 0.624979 48.1726 0.561746 48.6567 0.496282C49.0871 0.438091 49.6764 0.340082 50.4246 0.202252L51.712 0.000688586C51.7658 -0.00658523 51.8 0.043768 51.8145 0.151756C51.829 0.259744 51.8093 0.317378 51.7555 0.324652C51.2535 0.392541 50.888 0.492344 50.6593 0.624065C50.4305 0.755787 50.2882 0.953693 50.2323 1.21779C50.1765 1.48188 50.1848 1.8839 50.2573 2.42384L51.366 10.6849C51.4385 11.2249 51.5371 11.6193 51.6617 11.8681C51.7864 12.1169 51.9713 12.2706 52.2165 12.3291C52.4617 12.3875 52.8443 12.3816 53.3643 12.3113C53.4181 12.304 53.4522 12.3544 53.4667 12.4624ZM67.742 14.6342C67.7946 14.6477 67.8228 14.7018 67.8267 14.7965C67.8306 14.8913 67.7953 14.9384 67.7207 14.938L64.4722 15.5951C64.3931 15.6123 64.3098 15.6097 64.2221 15.5872C63.8891 15.5018 63.5962 15.2767 63.3436 14.912C63.0909 14.5473 62.9553 14.0346 62.9368 13.3738L61.124 13.8929C60.5175 14.0748 59.9926 14.1745 59.5493 14.192C59.106 14.2095 58.6652 14.1621 58.2269 14.0497C57.5433 13.8743 57.0294 13.5457 56.6852 13.0638C56.341 12.5819 56.2428 12.0507 56.3906 11.47C56.5295 10.9246 56.8312 10.4912 57.2958 10.1698C57.7604 9.84852 58.3461 9.65665 59.053 9.59425L63.8142 9.15649L64.6137 6.01572C64.8869 4.94241 64.9767 4.13132 64.883 3.58245C64.7893 3.03359 64.497 2.69621 64.0062 2.57033C63.4452 2.42647 62.942 2.56921 62.4966 2.99856C62.0512 3.4279 61.64 4.01599 61.2632 4.76282C60.8195 5.69871 60.1858 6.06101 59.3619 5.84971C58.9236 5.73732 58.6054 5.53856 58.4072 5.25343C58.209 4.9683 58.1614 4.62339 58.2645 4.2187C58.3988 3.69084 58.8652 3.23407 59.6637 2.84841C60.4621 2.46274 61.3806 2.21094 62.419 2.093C63.4574 1.97507 64.371 2.01725 65.1599 2.21955C66.089 2.45782 66.7636 2.88857 67.1839 3.51181C67.6041 4.13505 67.6911 4.93054 67.4447 5.89828L66.0137 11.52C65.8122 12.3118 65.7322 12.9192 65.7739 13.3423C65.8157 13.7653 65.9326 14.0577 66.1249 14.2195C66.3171 14.3813 66.5885 14.5071 66.9391 14.597C67.1144 14.642 67.3623 14.6587 67.6827 14.6471L67.742 14.6342ZM62.966 12.8189C62.994 12.4887 63.0573 12.1301 63.1558 11.743L63.6732 9.71074L61.1968 9.97537C60.2748 10.0763 59.7107 10.5315 59.5047 11.3408C59.3838 11.8159 59.4026 12.219 59.561 12.5502C59.7195 12.8814 59.9915 13.0964 60.3772 13.1953C60.6577 13.2672 61.0747 13.243 61.6282 13.1225L62.966 12.8189ZM80.5529 24.8998C80.4912 24.9894 80.438 25.0186 80.3933 24.9876L76.7335 22.4452C76.5104 22.2902 76.4213 21.5657 76.4663 20.2718C76.5114 18.978 76.6802 17.2732 76.9729 15.1574C76.6296 14.9852 76.3017 14.7906 75.9893 14.5735L75.6099 14.31L73.4322 17.4683C73.113 17.9312 72.9148 18.2904 72.8375 18.546C72.7603 18.8016 72.789 19.0313 72.9235 19.2352C73.0579 19.439 73.3335 19.6856 73.75 19.975C73.7798 19.9957 73.7638 20.0508 73.702 20.1404C73.6402 20.23 73.5944 20.2645 73.5647 20.2438C73.1184 19.9337 72.7739 19.6834 72.5313 19.4928L71.0293 18.4162L69.5633 17.4309C69.2852 17.2598 68.9081 17.0089 68.4321 16.6782C68.4023 16.6575 68.4183 16.6024 68.4801 16.5128C68.5419 16.4232 68.5876 16.3887 68.6174 16.4094C69.034 16.6988 69.3647 16.8733 69.6096 16.933C69.8545 16.9927 70.0887 16.9401 70.3124 16.7753C70.5361 16.6104 70.8024 16.304 71.1113 15.856L75.8375 9.00181C76.1464 8.55382 76.3394 8.20205 76.4166 7.94648C76.4938 7.69091 76.464 7.45488 76.3273 7.23839C76.1905 7.0219 75.9213 6.77414 75.5196 6.49509C75.475 6.46409 75.4835 6.40378 75.5453 6.31419C75.6071 6.22459 75.6603 6.19529 75.7049 6.2263L76.783 7.00833C77.3575 7.4516 77.8232 7.79726 78.1803 8.0453C78.4629 8.24167 78.7284 8.41508 78.9768 8.56551C79.2251 8.71594 79.4437 8.84569 79.6325 8.95478C80.1544 9.25104 80.631 9.54903 81.0624 9.84875C82.2228 10.6549 82.9793 11.4565 83.3319 12.2536C83.6844 13.0506 83.6187 13.8001 83.1348 14.5019C82.7332 15.0843 82.1766 15.4927 81.4649 15.7271C80.7531 15.9615 79.9619 16.0081 79.091 15.867C78.9574 17.784 78.9181 19.3248 78.9732 20.4894C79.0283 21.6541 79.1832 22.5623 79.4379 23.2141C79.6926 23.8659 80.0728 24.3675 80.5787 24.7189C80.6233 24.7499 80.6147 24.8102 80.5529 24.8998ZM76.4389 14.2565C77.2869 14.8456 78.011 15.0559 78.6112 14.8876C79.2113 14.7192 79.7843 14.2394 80.33 13.4479C81.4008 11.8949 81.3709 10.7257 80.2403 9.94018C79.9278 9.72314 79.6715 9.60028 79.4712 9.57159C79.271 9.5429 79.0716 9.60869 78.8731 9.76894C78.6746 9.92919 78.426 10.2258 78.1274 10.6589L75.9188 13.862C76.0126 13.9493 76.186 14.0808 76.4389 14.2565ZM83.5188 29.9173C83.4148 29.7252 83.281 29.4875 83.1174 29.2043C82.9538 28.9211 82.7577 28.6049 82.5294 28.2557L81.5385 26.7905C81.3446 26.5272 81.0888 26.1527 80.771 25.6669C80.7512 25.6365 80.7866 25.5915 80.8774 25.5317C80.9681 25.4719 81.0234 25.4571 81.0433 25.4875C81.3412 25.9429 81.595 26.2482 81.8047 26.4033C82.0143 26.5584 82.2512 26.5979 82.5152 26.5216C82.7791 26.4454 83.138 26.2578 83.5917 25.9588L90.5338 21.3839C90.9875 21.0848 91.2979 20.8314 91.465 20.6235C91.632 20.4157 91.6901 20.1819 91.6393 19.9221C91.5884 19.6624 91.4239 19.3199 91.1459 18.8949C91.1161 18.8493 91.1466 18.7967 91.2373 18.7369C91.3281 18.6771 91.3883 18.6699 91.4181 18.7155L92.1104 19.8234C92.4774 20.4506 92.785 20.954 93.0332 21.3335C93.341 21.8041 93.6716 22.2598 94.0248 22.7005C94.4522 23.2878 94.7652 23.7332 94.9638 24.0368C95.798 25.312 96.291 26.5622 96.443 27.7872C96.595 29.0123 96.4291 30.1318 95.9453 31.1459C95.4615 32.1599 94.7129 33.0009 93.6996 33.6687C92.656 34.3564 91.5544 34.7239 90.3949 34.7711C89.2354 34.8183 88.1282 34.5486 87.0735 33.9619C86.0188 33.3752 85.119 32.5126 84.3743 31.374C84.0962 30.949 83.8111 30.4634 83.5188 29.9173ZM87.6327 32.5832C88.8565 32.6674 90.2246 32.2111 91.7371 31.2144C93.2041 30.2476 94.2143 29.1365 94.7676 27.8812C95.3208 26.6258 95.1903 25.3758 94.3761 24.1309C94.0384 23.6148 93.6918 23.3164 93.336 23.2358C92.9803 23.1552 92.5226 23.2993 91.963 23.6681L85.3159 28.0487C84.6958 28.4574 84.333 28.854 84.2274 29.2386C84.1218 29.6232 84.2826 30.1418 84.7095 30.7946C85.4344 31.9028 86.4088 32.499 87.6327 32.5832ZM98.75 40.3643C98.456 40.7259 98.2297 41.1364 98.0711 41.5957C97.9126 42.055 97.741 42.6718 97.5565 43.4459C97.3273 44.343 97.1222 45.052 96.9414 45.5729C96.7605 46.0937 96.4812 46.5733 96.1033 47.0114C95.7255 47.4496 95.2202 47.7461 94.5873 47.9008C93.8842 48.0727 93.1966 48.0212 92.5247 47.7462C91.8527 47.4713 91.262 47.0129 90.7524 46.3711C90.2429 45.7294 89.8789 44.9585 89.6605 44.0587C89.4635 43.247 89.373 42.4327 89.3889 41.6157C89.4048 40.7988 89.4994 40.2102 89.6727 39.8501C89.7263 39.6874 89.8938 39.5717 90.175 39.503L93.1225 38.6421C93.1928 38.6249 93.2475 38.6583 93.2865 38.7422C93.3255 38.8261 93.3141 38.8943 93.2523 38.9468C92.2549 39.901 91.4705 40.8124 90.8991 41.6811C90.3278 42.5497 90.1492 43.4252 90.3633 44.3074C90.4918 44.8367 90.757 45.2392 91.1591 45.5147C91.5612 45.7902 92.0786 45.8506 92.7115 45.6959C93.274 45.5583 93.7309 45.2924 94.0821 44.8981C94.4333 44.5039 94.7026 44.0595 94.8899 43.5651C95.0772 43.0707 95.2785 42.4234 95.494 41.623C95.8039 40.4445 96.1429 39.5204 96.5112 38.851C96.8794 38.1815 97.4679 37.7479 98.2765 37.5502C99.2961 37.3009 100.218 37.552 101.043 38.3036C101.868 39.0552 102.435 40.0662 102.743 41.3366C102.88 41.9013 102.962 42.5074 102.989 43.1551C103.015 43.8027 102.995 44.3311 102.926 44.7404C102.912 44.9121 102.872 45.034 102.806 45.1063C102.74 45.1786 102.636 45.2319 102.495 45.2663L99.9905 45.8788C99.9377 45.8917 99.8875 45.8572 99.8397 45.7755C99.7919 45.6937 99.7901 45.6287 99.8343 45.5805C100.456 45.0733 101.037 44.436 101.577 43.6684C102.117 42.9009 102.267 42.0231 102.027 41.035C101.882 40.4351 101.619 40.0227 101.238 39.798C100.858 39.5733 100.421 39.5211 99.9293 39.6414C99.4371 39.7617 99.044 40.0027 98.75 40.3643Z" fill="#F1F1F1"/>
<path d="M20.3002 88.7154C20.4714 88.9832 20.6788 89.2072 20.9222 89.3873C21.1656 89.5674 21.5081 89.796 21.9498 90.073C22.4186 90.3594 22.7837 90.5995 23.0451 90.7935C23.3065 90.9874 23.5296 91.2345 23.7144 91.5346C23.8992 91.8348 23.9916 92.1927 23.9916 92.6083C23.9916 93.0516 23.8834 93.4534 23.6671 93.8136C23.4507 94.1738 23.133 94.4578 22.7138 94.6656C22.2946 94.8734 21.7921 94.9773 21.2061 94.9773C20.512 94.9773 19.8765 94.8157 19.2996 94.4924C19.2545 94.4647 19.2252 94.4324 19.2117 94.3955C19.1981 94.3585 19.1869 94.3031 19.1779 94.2292L19.0021 92.3451C18.9931 92.3081 19.0133 92.2851 19.0629 92.2758C19.1125 92.2666 19.1418 92.2804 19.1508 92.3174C19.295 92.9824 19.5632 93.555 19.9554 94.0353C20.3475 94.5155 20.8681 94.7557 21.5171 94.7557C21.9678 94.7557 22.3487 94.6287 22.6597 94.3747C22.9707 94.1207 23.1262 93.7166 23.1262 93.1625C23.1262 92.7469 23.0361 92.3866 22.8558 92.0819C22.6755 91.7771 22.4569 91.5254 22.2 91.3268C21.9431 91.1283 21.5937 90.895 21.152 90.6272C20.7193 90.3594 20.379 90.1285 20.1311 89.9345C19.8832 89.7406 19.6737 89.4958 19.5024 89.2003C19.3311 88.9047 19.2455 88.5584 19.2455 88.1612C19.2455 87.6994 19.3649 87.3046 19.6038 86.9767C19.8427 86.6488 20.1537 86.4041 20.5368 86.2424C20.9199 86.0808 21.3278 86 21.7605 86C22.2924 86 22.8197 86.1108 23.3426 86.3325C23.4778 86.3787 23.5454 86.4572 23.5454 86.568L23.64 88.1612C23.64 88.1982 23.6175 88.2166 23.5724 88.2166C23.5273 88.2166 23.5003 88.1982 23.4913 88.1612C23.4192 87.6809 23.2254 87.2353 22.9099 86.8243C22.5943 86.4133 22.1391 86.2078 21.5442 86.2078C21.0394 86.2078 20.663 86.3579 20.4151 86.6581C20.1672 86.9582 20.0433 87.33 20.0433 87.7733C20.0433 88.1335 20.1289 88.4475 20.3002 88.7154ZM27.6285 94.3054C27.6826 94.4393 27.7885 94.5294 27.9462 94.5756C28.104 94.6217 28.3542 94.6448 28.6967 94.6448C28.7237 94.6448 28.7373 94.6725 28.7373 94.728C28.7373 94.7834 28.7237 94.8111 28.6967 94.8111C28.4263 94.8111 28.2099 94.8065 28.0477 94.7972L27.0876 94.7834L26.1546 94.7972C25.9924 94.8065 25.7715 94.8111 25.4921 94.8111C25.465 94.8111 25.4515 94.7834 25.4515 94.728C25.4515 94.6725 25.465 94.6448 25.4921 94.6448C25.8346 94.6448 26.0848 94.6217 26.2425 94.5756C26.4003 94.5294 26.5084 94.4393 26.567 94.3054C26.6256 94.1715 26.6549 93.966 26.6549 93.6889V87.2746C26.6549 86.9975 26.6256 86.7943 26.567 86.665C26.5084 86.5357 26.4003 86.4456 26.2425 86.3948C26.0848 86.344 25.8346 86.3186 25.4921 86.3186C25.465 86.3186 25.4515 86.2909 25.4515 86.2355C25.4515 86.1801 25.465 86.1524 25.4921 86.1524L26.1546 86.1662C26.5332 86.1847 26.8442 86.194 27.0876 86.194C27.3581 86.194 27.6826 86.1847 28.0612 86.1662L28.6967 86.1524C28.7237 86.1524 28.7373 86.1801 28.7373 86.2355C28.7373 86.2909 28.7237 86.3186 28.6967 86.3186C28.3632 86.3186 28.1175 86.3463 27.9598 86.4018C27.802 86.4572 27.6938 86.5518 27.6352 86.6858C27.5767 86.8197 27.5474 87.0252 27.5474 87.3023V93.6889C27.5474 93.966 27.5744 94.1715 27.6285 94.3054ZM39.0404 86.2355C39.0404 86.2909 39.0269 86.3186 38.9998 86.3186C38.6212 86.3186 38.3463 86.4249 38.175 86.6373C38.0037 86.8497 37.9181 87.1961 37.9181 87.6763V94.9773C37.9181 94.9958 37.8956 95.0097 37.8505 95.0189C37.8054 95.0281 37.7739 95.0235 37.7558 95.005L31.5359 87.2884L31.4142 87.1499V93.301C31.4142 93.7813 31.4975 94.1253 31.6643 94.3331C31.8311 94.5409 32.0993 94.6448 32.4689 94.6448C32.4959 94.6448 32.5094 94.6725 32.5094 94.728C32.5094 94.7834 32.4959 94.8111 32.4689 94.8111C32.2435 94.8111 32.0722 94.8065 31.955 94.7972L31.2789 94.7834L30.5893 94.7972C30.4631 94.8065 30.2783 94.8111 30.0349 94.8111C30.0169 94.8111 30.0079 94.7834 30.0079 94.728C30.0079 94.6725 30.0169 94.6448 30.0349 94.6448C30.4226 94.6448 30.6975 94.5409 30.8598 94.3331C31.022 94.1253 31.1032 93.7813 31.1032 93.301V86.8174C30.7516 86.4849 30.3955 86.3186 30.0349 86.3186C30.0079 86.3186 29.9944 86.2909 29.9944 86.2355C29.9944 86.1801 30.0079 86.1524 30.0349 86.1524L30.5353 86.1662C30.6434 86.1755 30.7922 86.1801 30.9815 86.1801C31.1798 86.1801 31.342 86.1755 31.4683 86.1662C31.5945 86.157 31.6936 86.1524 31.7657 86.1524C31.8378 86.1524 31.8897 86.1686 31.9212 86.2009C31.9528 86.2332 32.0046 86.3048 32.0767 86.4156C32.1849 86.5819 32.2931 86.7343 32.4012 86.8728L37.6071 93.4257V87.6763C37.6071 87.1961 37.5282 86.8497 37.3705 86.6373C37.2127 86.4249 36.9491 86.3186 36.5795 86.3186C36.5614 86.3186 36.5524 86.2909 36.5524 86.2355C36.5524 86.1801 36.5614 86.1524 36.5795 86.1524L37.1068 86.1662C37.3772 86.1847 37.5981 86.194 37.7694 86.194C37.9316 86.194 38.157 86.1847 38.4455 86.1662L38.9998 86.1524C39.0269 86.1524 39.0404 86.1801 39.0404 86.2355ZM46.369 86.1247C46.8108 86.2078 47.1623 86.3279 47.4237 86.4849C47.5049 86.5218 47.5567 86.5611 47.5792 86.6026C47.6018 86.6442 47.6175 86.7158 47.6266 86.8174L47.7753 88.369C47.7753 88.3967 47.7528 88.4129 47.7077 88.4175C47.6626 88.4221 47.6356 88.4106 47.6266 88.3829C47.4282 87.6717 47.0609 87.1476 46.5245 86.8105C45.9882 86.4733 45.3234 86.3048 44.5301 86.3048C43.845 86.3048 43.2455 86.4595 42.7317 86.7689C42.2179 87.0783 41.8212 87.5147 41.5418 88.0781C41.2623 88.6415 41.1226 89.2926 41.1226 90.0315C41.1226 90.8904 41.2961 91.6847 41.6432 92.4144C41.9903 93.144 42.459 93.7212 43.0495 94.1461C43.6399 94.5709 44.2777 94.7834 44.9628 94.7834C45.6118 94.7834 46.1752 94.601 46.653 94.2361C47.1308 93.8713 47.4959 93.3102 47.7483 92.5529C47.7483 92.5252 47.7663 92.5113 47.8023 92.5113C47.8294 92.5113 47.8542 92.516 47.8767 92.5252C47.8992 92.5344 47.9105 92.5483 47.9105 92.5668L47.7212 94.1322C47.7032 94.2431 47.6829 94.3147 47.6604 94.347C47.6378 94.3793 47.586 94.4139 47.5049 94.4509C46.6936 94.8018 45.8372 94.9773 44.9357 94.9773C43.854 94.9773 42.9503 94.7534 42.2246 94.3054C41.499 93.8575 40.9649 93.2872 40.6223 92.5945C40.2798 91.9018 40.1085 91.1721 40.1085 90.4055C40.1085 89.5558 40.3384 88.7939 40.7981 88.1196C41.2578 87.4454 41.8663 86.9236 42.6235 86.5542C43.3807 86.1847 44.192 86 45.0574 86C45.4901 86 45.9273 86.0416 46.369 86.1247ZM55.1033 92.7191C55.1304 92.7191 55.1552 92.7238 55.1777 92.733C55.2002 92.7422 55.2115 92.7561 55.2115 92.7746C55.1304 93.3564 55.0898 93.966 55.0898 94.6033C55.0898 94.6772 55.074 94.7303 55.0425 94.7626C55.0109 94.7949 54.9546 94.8111 54.8735 94.8111H49.2079C49.1898 94.8111 49.1808 94.7834 49.1808 94.728C49.1808 94.6725 49.1898 94.6448 49.2079 94.6448C49.5504 94.6448 49.8006 94.6217 49.9583 94.5756C50.1161 94.5294 50.2242 94.4393 50.2828 94.3054C50.3414 94.1715 50.3707 93.966 50.3707 93.6889V87.2746C50.3707 86.9975 50.3414 86.7943 50.2828 86.665C50.2242 86.5357 50.1161 86.4456 49.9583 86.3948C49.8006 86.344 49.5504 86.3186 49.2079 86.3186C49.1898 86.3186 49.1808 86.2909 49.1808 86.2355C49.1808 86.1801 49.1898 86.1524 49.2079 86.1524H54.6436C54.7247 86.1524 54.7653 86.194 54.7653 86.2771L54.7923 87.9811C54.7923 88.0088 54.7698 88.025 54.7247 88.0296C54.6797 88.0342 54.6526 88.0227 54.6436 87.995C54.6166 87.5055 54.4723 87.1245 54.2109 86.852C53.9495 86.5796 53.6024 86.4433 53.1697 86.4433H52.3449C52.0294 86.4433 51.7973 86.4687 51.6485 86.5195C51.4998 86.5703 51.3961 86.6581 51.3375 86.7827C51.2789 86.9074 51.2496 87.0945 51.2496 87.3438V90.1562H52.8993C53.332 90.1562 53.6407 90.0823 53.8255 89.9345C54.0103 89.7867 54.1027 89.5374 54.1027 89.1864C54.1027 89.1679 54.1298 89.1587 54.1839 89.1587C54.2379 89.1587 54.265 89.1679 54.265 89.1864L54.2515 90.3086C54.2515 90.5764 54.256 90.7796 54.265 90.9181L54.2785 91.5831C54.2785 91.6016 54.2515 91.6108 54.1974 91.6108C54.1433 91.6108 54.1162 91.6016 54.1162 91.5831C54.1162 91.1767 54.0193 90.8858 53.8255 90.7103C53.6317 90.5348 53.3095 90.4471 52.8587 90.4471H51.2496V93.6335C51.2496 93.8921 51.2767 94.0814 51.3308 94.2015C51.3849 94.3216 51.484 94.4047 51.6283 94.4509C51.7725 94.4971 51.9978 94.5202 52.3043 94.5202H53.3861C53.8188 94.5202 54.1793 94.3631 54.4678 94.0491C54.7563 93.7351 54.9501 93.301 55.0492 92.7469C55.0492 92.7284 55.0673 92.7191 55.1033 92.7191ZM59.9973 94.728C59.9973 94.6725 60.0108 94.6448 60.0379 94.6448C60.4075 94.6448 60.6802 94.6194 60.8559 94.5686C61.0317 94.5178 61.1534 94.4278 61.221 94.2985C61.2886 94.1692 61.3224 93.966 61.3224 93.6889V89.9345C61.3224 89.5928 61.2999 89.3526 61.2548 89.2141C61.2098 89.0756 61.1151 89.0063 60.9709 89.0063C60.8086 89.0063 60.4976 89.1125 60.0379 89.3249H60.0244C59.9793 89.3249 59.9477 89.3018 59.9297 89.2557C59.9117 89.2095 59.9207 89.1818 59.9568 89.1725L61.9985 88.1889C62.0075 88.1797 62.0211 88.1751 62.0391 88.1751C62.0571 88.1751 62.0752 88.1866 62.0932 88.2097C62.1112 88.2328 62.1202 88.2582 62.1202 88.2859V93.6889C62.1202 93.9752 62.1495 94.183 62.2081 94.3123C62.2667 94.4416 62.3862 94.5294 62.5664 94.5756C62.7467 94.6217 63.0307 94.6448 63.4183 94.6448C63.4363 94.6448 63.4454 94.6725 63.4454 94.728C63.4454 94.7834 63.4363 94.8111 63.4183 94.8111C63.1208 94.8111 62.891 94.8065 62.7287 94.7972L61.7281 94.7834L60.741 94.7972C60.5697 94.8065 60.3354 94.8111 60.0379 94.8111C60.0108 94.8111 59.9973 94.7834 59.9973 94.728ZM65.0746 91.8256C64.7817 91.4423 64.6352 91.0013 64.6352 90.5025C64.6352 90.0592 64.7546 89.6574 64.9935 89.2972C65.2324 88.937 65.5569 88.6553 65.9671 88.4521C66.3772 88.249 66.8257 88.1474 67.3125 88.1474C67.8443 88.1474 68.3244 88.2951 68.7525 88.5907C69.1807 88.8862 69.5165 89.2995 69.7599 89.8306C70.0033 90.3617 70.125 90.9643 70.125 91.6385C70.125 92.4698 69.938 93.2664 69.5639 94.0283C69.1898 94.7903 68.6444 95.4322 67.9277 95.954C67.2111 96.4759 66.3615 96.806 65.3789 96.9446H65.3654C65.3383 96.9446 65.3203 96.9238 65.3113 96.8822C65.3023 96.8407 65.3113 96.8153 65.3383 96.806C66.1676 96.6306 66.8708 96.2958 67.4477 95.8016C68.0246 95.3075 68.4551 94.7187 68.739 94.0353C69.023 93.3518 69.165 92.6453 69.165 91.9156C69.165 91.306 69.0726 90.7334 68.8878 90.1977C68.703 89.662 68.4438 89.2303 68.1103 88.9024C67.7767 88.5745 67.3936 88.4106 66.9609 88.4106C66.5282 88.4106 66.1947 88.5607 65.9603 88.8608C65.7259 89.161 65.6087 89.5928 65.6087 90.1562C65.6087 90.7011 65.7169 91.1467 65.9333 91.4931C66.1496 91.8394 66.4561 92.0126 66.8527 92.0126C67.0961 92.0126 67.3192 91.9664 67.5221 91.8741C67.7249 91.7817 67.9525 91.6201 68.2049 91.3892C68.2139 91.3799 68.2275 91.3753 68.2455 91.3753C68.2725 91.3753 68.2996 91.3892 68.3266 91.4169C68.3537 91.4446 68.3627 91.4677 68.3537 91.4861C68.1193 91.7817 67.8308 92.008 67.4883 92.165C67.1457 92.322 66.7671 92.4005 66.3524 92.4005C65.7935 92.4005 65.3676 92.2089 65.0746 91.8256ZM76.7638 90.4263C77.0884 90.6341 77.3611 90.8927 77.5819 91.2021C77.8028 91.5115 77.9132 91.8833 77.9132 92.3174C77.9132 92.8161 77.769 93.271 77.4805 93.682C77.192 94.093 76.8067 94.4139 76.3244 94.6448C75.8421 94.8757 75.317 94.9912 74.7491 94.9912C74.1812 94.9912 73.6764 94.8734 73.2347 94.6379C72.793 94.4024 72.4504 94.0907 72.207 93.7028C71.9636 93.3149 71.8419 92.8992 71.8419 92.4559C71.8419 91.8925 72.0267 91.3776 72.3963 90.9112C72.7659 90.4448 73.2302 90.0684 73.7891 89.7821C73.4014 89.5605 73.1017 89.3226 72.8899 89.0686C72.678 88.8147 72.5721 88.5122 72.5721 88.1612C72.5721 87.7825 72.6916 87.4593 72.9304 87.1914C73.1693 86.9236 73.4758 86.7204 73.8499 86.5819C74.224 86.4433 74.6094 86.3741 75.006 86.3741C75.628 86.3741 76.1261 86.5218 76.5002 86.8174C76.8743 87.1129 77.0613 87.4777 77.0613 87.9118C77.0613 88.2997 76.9171 88.653 76.6286 88.9717C76.3402 89.2903 75.9706 89.5466 75.5198 89.7406C76.0247 89.9899 76.4393 90.2185 76.7638 90.4263ZM73.7079 86.9144C73.4916 87.1083 73.3834 87.3762 73.3834 87.7179C73.3834 88.0134 73.4713 88.2743 73.6471 88.5006C73.8229 88.7269 74.0415 88.9232 74.3029 89.0894C74.5643 89.2557 74.9114 89.445 75.3441 89.6574C75.921 89.3434 76.2095 88.8678 76.2095 88.2305C76.2095 87.7779 76.0607 87.3969 75.7632 87.0875C75.4658 86.7781 75.0736 86.6234 74.5869 86.6234C74.2173 86.6234 73.9243 86.7204 73.7079 86.9144ZM76.4866 94.2084C76.8337 93.8621 77.0072 93.4026 77.0072 92.83C77.0072 92.3866 76.8968 92.0057 76.676 91.687C76.4551 91.3684 76.1892 91.1098 75.8782 90.9112C75.5672 90.7126 75.1503 90.484 74.6274 90.2254L74.0054 89.9068C73.1851 90.3963 72.7749 91.1167 72.7749 92.068C72.7749 92.539 72.8741 92.9777 73.0724 93.3841C73.2707 93.7905 73.5502 94.1161 73.9108 94.3608C74.2713 94.6056 74.6815 94.728 75.1412 94.728C75.6911 94.728 76.1396 94.5548 76.4866 94.2084ZM80.2793 89.3804L79.9953 90.9597C81.3475 90.9689 82.3413 91.1744 82.9769 91.5762C83.6124 91.978 83.9301 92.5437 83.9301 93.2733C83.9301 93.9845 83.6079 94.6287 82.9633 95.2059C82.3188 95.7832 81.2619 96.3812 79.7925 97H79.779C79.7429 97 79.7136 96.9792 79.6911 96.9377C79.6685 96.8961 79.6753 96.8661 79.7114 96.8476C80.9193 96.3027 81.7712 95.7601 82.267 95.2198C82.7628 94.6795 83.0107 94.1092 83.0107 93.5088C83.0107 92.8254 82.7335 92.2966 82.1791 91.9225C81.6247 91.5485 80.8292 91.3615 79.7925 91.3615C79.7474 91.3615 79.7114 91.3453 79.6843 91.313C79.6573 91.2806 79.6483 91.2414 79.6573 91.1952L80.09 88.7292C80.099 88.6646 80.1103 88.6253 80.1238 88.6115C80.1373 88.5976 80.1846 88.5861 80.2658 88.5768C81.5098 88.4383 82.3458 88.3413 82.774 88.2859C83.2022 88.2305 83.4772 88.1728 83.5989 88.1127C83.7206 88.0527 83.8039 87.9534 83.849 87.8149C83.867 87.7872 83.8986 87.7756 83.9437 87.7802C83.9887 87.7848 84.0068 87.8056 83.9978 87.8426L83.7273 88.8678C83.6913 88.9786 83.6484 89.0479 83.5989 89.0756C83.5493 89.1033 83.4659 89.1171 83.3487 89.1171L80.4821 89.1864C80.3559 89.1864 80.2883 89.251 80.2793 89.3804Z" fill="#F1F1F1"/>
<path d="M54.1999 26.216C68.2768 27.9145 78.5994 40.32 77.7514 54.5198C76.9034 68.7197 65.1784 79.7998 51 79.7998C36.8216 79.7998 25.0966 68.7197 24.2486 54.5198C23.4007 40.32 33.7232 27.9145 47.8001 26.216V25C33.0563 26.7017 22.1971 39.6501 23.0466 54.5159C23.8961 69.3816 36.159 81 51 81C65.8411 81 78.104 69.3816 78.9534 54.5159C79.8029 39.6501 68.9437 26.7017 54.1999 25V26.216Z" fill="#F1F1F1"/>
<path d="M54.1999 31C65.6047 32.6857 73.7812 42.9366 72.9406 54.4952C72.1 66.0538 62.5274 75 51 75C39.4726 75 29.9 66.0538 29.0594 54.4952C28.2188 42.9366 36.3953 32.6857 47.8001 31V32.224C37.0648 33.9045 29.4245 43.609 30.2628 54.4996C31.101 65.3902 40.1353 73.7974 51 73.7974C61.8647 73.7974 70.899 65.3902 71.7372 54.4996C72.5755 43.609 64.9352 33.9045 54.1999 32.224V31Z" fill="#F1F1F1"/>
<path d="M47.8002 38.2436C40.4283 39.8928 35.4675 46.8842 36.2886 54.4669C37.1098 62.0496 43.4496 67.792 51 67.792C58.5504 67.792 64.8902 62.0496 65.7114 54.4669C66.5325 46.8842 61.5717 39.8928 54.1998 38.2436V37C62.2472 38.6595 67.7436 46.2056 66.9181 54.4613C66.0926 62.7169 59.2134 69 51 69C42.7866 69 35.9074 62.7169 35.0819 54.4613C34.2564 46.2056 39.7528 38.6595 47.8002 37V38.2436Z" fill="#F1F1F1"/>
<path d="M47.8003 43C43.1612 44.6094 40.3393 49.4325 41.1332 54.3952C41.9272 59.3579 46.1034 63 51 63C55.8966 63 60.0728 59.3579 60.8668 54.3952C61.6607 49.4325 58.8388 44.6094 54.1997 43V44.3156C58.1419 45.8961 60.4302 50.1351 59.6473 54.4066C58.8643 58.678 55.2319 61.7721 51 61.7721C46.7681 61.7721 43.1357 58.678 42.3527 54.4066C41.5698 50.1351 43.8581 45.8961 47.8003 44.3156V43Z" fill="#F1F1F1"/>
</svg>
