<svg width="220" height="56" viewBox="0 0 220 56" fill="none" xmlns="http://www.w3.org/2000/svg">
<path d="M109.697 10.1826C109.697 11.1736 109.504 12.1549 109.129 13.0705C108.754 13.9861 108.204 14.8181 107.511 15.5189C106.818 16.2197 105.995 16.7757 105.089 17.155C104.183 17.5343 103.212 17.7295 102.231 17.7295C101.251 17.7295 100.28 17.5343 99.3736 17.155C98.4677 16.7757 97.6446 16.2197 96.9513 15.5189C96.258 14.8181 95.7081 13.9861 95.333 13.0705C94.9579 12.1549 94.765 11.1736 94.7653 10.1826C94.765 9.19164 94.9579 8.21032 95.333 7.2947C95.7081 6.37908 96.258 5.54711 96.9513 4.84629C97.6446 4.14547 98.4677 3.58954 99.3736 3.21025C100.28 2.83096 101.251 2.63574 102.231 2.63574C103.212 2.63574 104.183 2.83096 105.089 3.21025C105.995 3.58954 106.818 4.14547 107.511 4.84629C108.204 5.54711 108.754 6.37908 109.129 7.2947C109.504 8.21032 109.697 9.19164 109.697 10.1826Z" fill="white"/>
<path d="M10.3623 47.9527L12.0165 17.99L23.4571 20.0119C27.4829 20.7234 30.3782 22.1168 32.1431 24.1922C33.908 26.2676 34.6857 29.2019 34.4763 32.995C34.2812 36.5288 33.3019 38.9631 31.5386 40.2979C29.7752 41.6326 27.0747 41.9785 23.4369 41.3356L20.4358 40.8053L19.9477 49.6467L10.3623 47.9527ZM21.1784 28.0202L20.9027 33.014L22.3942 33.2776C23.3036 33.4383 24.0127 33.3467 24.5215 33.0026C25.0302 32.6585 25.3064 32.0908 25.3501 31.2994C25.3938 30.5081 25.1793 29.8468 24.7066 29.3154C24.234 28.7842 23.555 28.4403 22.6699 28.2838L21.1784 28.0202Z" fill="white"/>
<path d="M35.2392 51.6962L36.2131 22.6233L54.3836 24.0699L54.1195 31.9537L45.5261 31.2696L45.4323 34.0696L53.2276 34.6902L52.9782 42.1372L45.1829 41.5166L45.0804 44.5748L53.8965 45.2767L53.6324 53.1605L35.2392 51.6962Z" fill="white"/>
<path d="M61.0615 52.9263L61.4324 33.755L56.2859 33.599L56.4662 24.2761L75.9982 24.8681L75.8178 34.191L70.6714 34.035L70.3005 53.2063L61.0615 52.9263Z" fill="white"/>
<path d="M80.7558 50.0193L83.4569 42.0456C84.9308 42.9611 86.2356 43.6167 87.3712 44.0125C88.5068 44.4083 89.5569 44.5774 90.5214 44.5197C91.1978 44.4793 91.7226 44.3177 92.0958 44.035C92.4689 43.7523 92.6425 43.3895 92.6166 42.9464C92.5714 42.1742 91.5661 41.6436 89.6009 41.3545C88.9664 41.2527 88.4716 41.1743 88.1164 41.1193C86.0325 40.7357 84.4079 39.9309 83.2425 38.7048C82.0772 37.4788 81.4382 35.9037 81.3257 33.9796C81.1509 30.9921 82.0671 28.4984 84.0744 26.4984C86.0817 24.4985 88.8015 23.3959 92.2337 23.1908C93.812 23.0965 95.3774 23.2126 96.9301 23.539C98.4827 23.8654 100.06 24.4063 101.663 25.1616L99.0826 32.6136C98.0891 31.9616 97.1023 31.4776 96.1222 31.1614C95.1421 30.8452 94.2011 30.7141 93.2992 30.7679C92.6103 30.8091 92.0848 30.958 91.7227 31.2147C91.3606 31.4713 91.1918 31.8085 91.2162 32.2262C91.2622 33.0111 92.6741 33.619 95.4522 34.05C95.8965 34.1251 96.2392 34.1809 96.4802 34.2172C98.3968 34.5346 99.9389 35.3253 101.106 36.5894C102.274 37.8534 102.913 39.4285 103.023 41.3146C103.203 44.3907 102.251 46.9691 100.167 49.0499C98.0826 51.1307 95.2805 52.2763 91.7607 52.4866C89.9569 52.5944 88.1379 52.4427 86.3038 52.0315C84.4696 51.6203 82.6203 50.9495 80.7558 50.0193Z" fill="white"/>
<path d="M127.927 48.1559L126.937 37.3313C126.875 36.4957 126.814 35.6632 126.752 34.8338C126.691 34.0045 126.64 33.1706 126.6 32.332C126.502 33.1392 126.363 33.9991 126.185 34.9117C126.006 35.8244 125.787 36.8025 125.528 37.8459L122.81 48.8582L117.805 49.5451L115.15 39.2702C114.887 38.2985 114.671 37.3801 114.503 36.5149C114.335 35.6498 114.205 34.8268 114.111 34.046C114.055 34.9103 113.997 35.7624 113.936 36.6023C113.874 37.4422 113.811 38.2887 113.744 39.1419L112.688 50.2474L104.437 51.3798L108.517 23.154L117.2 21.9623L118.843 28.5777C118.895 28.7847 118.974 29.0951 119.08 29.5089C119.775 32.2986 120.199 34.6151 120.354 36.4584L120.498 36.4387C120.629 35.249 120.825 33.975 121.084 32.6165C121.344 31.258 121.69 29.724 122.121 28.0144L123.884 21.0449L132.551 19.8554L136.179 47.0235L127.927 48.1559Z" fill="white"/>
<path d="M148.964 36.3244L152.466 36.2504L151.756 33.1285C151.409 31.5484 151.173 30.3314 151.047 29.4773C150.922 28.6233 150.844 27.8187 150.815 27.0634L150.671 27.0664C150.636 27.823 150.554 28.6311 150.424 29.4905C150.293 30.3499 150.05 31.5771 149.693 33.172L148.964 36.3244ZM137.772 46.6141L146.202 18.7703L155.573 18.5724L163.678 46.0672L154.627 46.2583L153.886 42.7968L147.537 42.9308L146.807 46.4234L137.772 46.6141Z" fill="white"/>
<path d="M174.96 26.7335L174.942 31.999L176.432 32.059C177.341 32.0957 178.041 31.8999 178.534 31.4717C179.026 31.0434 179.274 30.412 179.277 29.5774C179.28 28.7182 179.037 28.0486 178.547 27.5686C178.058 27.0885 177.359 26.8302 176.451 26.7936L174.96 26.7335ZM165.512 46.3682L165.606 19.4148L177.638 19.8996C181.128 20.0402 183.791 20.927 185.627 22.56C187.463 24.193 188.376 26.4762 188.366 29.4096C188.359 31.3244 187.89 32.8829 186.959 34.0852C186.028 35.2875 184.774 35.9612 183.198 36.1064L190.267 47.3656L179.543 46.9335L174.921 37.8536L174.89 46.746L165.512 46.3682Z" fill="white"/>
<path d="M194.701 48.862L195.072 30.2418L189.925 29.5024L190.106 20.4475L209.638 23.2538L209.457 32.3087L204.311 31.5692L203.94 50.1895L194.701 48.862Z" fill="white"/>
<path fill-rule="evenodd" clip-rule="evenodd" d="M33.5449 10.9371C57.0045 0.382513 70.7906 6.93549 78.3402 24.5178C62.7855 6.14001 48.1201 7.53616 33.5449 10.9371Z" fill="white"/>
<path fill-rule="evenodd" clip-rule="evenodd" d="M90.659 10.5598C81.4989 18.2751 80.95 22.7271 79.4601 27.5357C83.2723 22.1629 87.4857 17.6011 93.272 16.2184C90.8101 14.3322 91.3435 12.446 90.659 10.5598Z" fill="white"/>
<path fill-rule="evenodd" clip-rule="evenodd" d="M97.3783 9.42801C98.5245 3.97504 101.774 4.89764 104.844 5.27833C102.184 6.31493 99.1204 6.5359 97.3783 9.42801Z" fill="white"/>
</svg>
