<svg width="303" height="72" viewBox="0 0 303 72" fill="none" xmlns="http://www.w3.org/2000/svg">
<path d="M111.043 26.1425C110.867 25.8947 110.61 25.6779 110.27 25.4921C109.931 25.3062 109.515 25.157 109.023 25.0444C108.531 24.9317 107.974 24.8754 107.352 24.8754C107.114 24.8754 106.86 24.8951 106.588 24.9345C106.317 24.974 106.065 25.0444 105.833 25.1457C105.601 25.2471 105.409 25.3851 105.256 25.5596C105.104 25.7342 105.027 25.9567 105.027 26.227C105.027 26.3621 105.047 26.4917 105.087 26.6156C105.126 26.7395 105.203 26.8577 105.316 26.9704C105.429 27.083 105.584 27.1872 105.782 27.2829C105.98 27.3786 106.238 27.4547 106.554 27.511L109.744 28.1361C110.898 28.3613 111.865 28.6429 112.646 28.9808C113.427 29.3187 114.054 29.7129 114.529 30.1634C115.005 30.614 115.347 31.1152 115.556 31.6671C115.765 32.219 115.87 32.8159 115.87 33.4579C115.87 34.4603 115.635 35.3389 115.166 36.0935C114.696 36.8481 114.08 37.476 113.316 37.9772C112.553 38.4785 111.693 38.8558 110.737 39.1092C109.781 39.3626 108.817 39.4893 107.844 39.4893C107.211 39.4893 106.636 39.4499 106.122 39.3711C105.607 39.2922 105.143 39.1852 104.73 39.0501C104.317 38.9149 103.95 38.7544 103.627 38.5686C103.305 38.3827 103.008 38.1772 102.737 37.9519H99.6653V33.2552H104.467V33.3565C104.479 33.6832 104.58 33.9676 104.773 34.2097C104.965 34.4519 105.217 34.6574 105.528 34.8264C105.839 34.9953 106.192 35.122 106.588 35.2065C106.984 35.291 107.403 35.3332 107.844 35.3332C108.862 35.3332 109.603 35.2009 110.067 34.9362C110.531 34.6715 110.763 34.3308 110.763 33.9141C110.763 33.5874 110.649 33.3087 110.423 33.0778C110.197 32.8469 109.795 32.6639 109.218 32.5287L105.961 31.836C103.913 31.4418 102.369 30.7857 101.328 29.8678C100.288 28.9498 99.7672 27.77 99.7672 26.3284C99.7672 25.4836 99.9651 24.7149 100.361 24.0222C100.757 23.3295 101.294 22.7382 101.973 22.2483C102.652 21.7583 103.446 21.3782 104.357 21.1079C105.268 20.8376 106.243 20.7024 107.284 20.7024C107.997 20.7024 108.63 20.7447 109.185 20.8291C109.739 20.9136 110.237 21.0234 110.678 21.1586C111.119 21.2937 111.506 21.4542 111.84 21.6401C112.174 21.8259 112.471 22.0202 112.731 22.2229H115.683V26.9197H111.306C111.306 26.6494 111.218 26.3903 111.043 26.1425ZM129.767 38.1208C129.371 38.3686 129.009 38.5798 128.681 38.7544C128.353 38.929 128.025 39.0698 127.697 39.1768C127.369 39.2838 127.029 39.3626 126.679 39.4133C126.328 39.464 125.943 39.4893 125.525 39.4893C124.473 39.4893 123.531 39.3457 122.7 39.0585C121.868 38.7713 121.167 38.3771 120.596 37.8759C120.024 37.3747 119.586 36.7834 119.281 36.1019C118.975 35.4205 118.822 34.68 118.822 33.8803C118.822 33.0693 118.978 32.3203 119.289 31.6333C119.6 30.9462 120.05 30.3577 120.638 29.8678C121.226 29.3778 121.947 28.9949 122.801 28.719C123.656 28.443 124.631 28.305 125.729 28.305C126.532 28.305 127.264 28.3473 127.926 28.4317C128.588 28.5162 129.201 28.6204 129.767 28.7443V28.2037C129.767 27.7644 129.682 27.3843 129.512 27.0633C129.343 26.7423 129.105 26.4776 128.8 26.2692C128.494 26.0609 128.127 25.9088 127.697 25.8131C127.267 25.7173 126.798 25.6695 126.288 25.6695C125.225 25.6695 124.289 25.7736 123.48 25.982C122.671 26.1904 121.894 26.4917 121.147 26.8859L119.518 23.6083C120.672 22.8199 121.88 22.2173 123.141 21.8006C124.402 21.3838 125.74 21.1755 127.154 21.1755C128.251 21.1755 129.266 21.2965 130.2 21.5387C131.133 21.7809 131.933 22.1751 132.601 22.7213C133.268 23.2676 133.791 23.98 134.17 24.8585C134.549 25.737 134.739 26.807 134.739 28.0685V34.4378H137.097V39.067H129.767V38.1208ZM125.898 35.5022C126.701 35.5022 127.431 35.3726 128.087 35.1136C128.743 34.8545 129.303 34.5392 129.767 34.1675V31.9374H125.695C125.434 31.9374 125.18 31.9768 124.931 32.0557C124.682 32.1345 124.459 32.2471 124.261 32.3935C124.063 32.54 123.904 32.7202 123.786 32.9342C123.667 33.1482 123.607 33.396 123.607 33.6775C123.607 34.1956 123.797 34.6293 124.176 34.9784C124.555 35.3276 125.129 35.5022 125.898 35.5022ZM140.355 21.564H148.975V26.1932H147.617L150.146 32.7483L152.742 26.1932H151.232V21.564H159.852V26.1932H157.934L151.13 42.3952H154.15V47.0244H143.24V42.3952H146.311L147.634 39.067L142.137 26.1932H140.355V21.564ZM182.368 27.6123C181.882 27.0041 181.339 26.5452 180.739 26.2354C180.14 25.9257 179.433 25.7934 178.618 25.8384C177.962 25.7934 177.366 25.8835 176.828 26.1087C176.291 26.334 175.827 26.6494 175.437 27.0548C175.047 27.4603 174.744 27.9418 174.529 28.4993C174.314 29.0568 174.207 29.6848 174.207 30.3831C174.207 31.0026 174.32 31.5882 174.546 32.1401C174.772 32.692 175.081 33.1679 175.471 33.5677C175.861 33.9676 176.325 34.2801 176.862 34.5054C177.4 34.7306 177.985 34.8658 178.618 34.9109C179.15 34.8658 179.634 34.756 180.069 34.5814C180.505 34.4068 180.892 34.1816 181.232 33.9056C181.571 33.6297 181.862 33.3199 182.105 32.9764C182.349 32.6329 182.538 32.3091 182.674 32.005L187.34 33.289C187.148 33.9648 186.817 34.6687 186.347 35.4008C185.878 36.1329 185.267 36.8002 184.515 37.4028C183.763 38.0054 182.869 38.5038 181.834 38.898C180.799 39.2922 179.62 39.4893 178.296 39.4893C176.95 39.4893 175.711 39.2443 174.58 38.7544C173.449 38.2645 172.476 37.5971 171.661 36.7524C170.847 35.9076 170.211 34.9165 169.753 33.7789C169.294 32.6413 169.065 31.4193 169.065 30.1128C169.065 28.8175 169.3 27.6152 169.769 26.5057C170.239 25.3963 170.887 24.4277 171.712 23.5999C172.538 22.772 173.519 22.1272 174.656 21.6654C175.793 21.2036 177.029 20.9953 178.364 21.0403C179.314 20.9953 180.236 21.1023 181.13 21.3613C182.023 21.6204 182.872 22.0089 183.675 22.527H187.052V27.6123H182.368ZM189.003 12.7788H196.927V23.1859C197.595 22.5777 198.327 22.1019 199.124 21.7583C199.922 21.4148 200.802 21.243 201.763 21.243C203.878 21.243 205.496 21.8315 206.616 23.0085C207.736 24.1855 208.296 25.906 208.296 28.1699V34.4378H210.875V39.067H203.019V29.3525C203.019 28.3726 202.775 27.6011 202.289 27.0379C201.803 26.4748 201.175 26.1932 200.406 26.1932C199.897 26.1932 199.342 26.334 198.743 26.6156C198.143 26.8971 197.538 27.3082 196.927 27.8489V34.4378H199.506V39.067H189.003V34.4378H191.718V17.408H189.003V12.7788ZM217.645 31.4137L217.696 31.9374C217.821 32.4442 218.033 32.8891 218.333 33.2721C218.632 33.655 218.986 33.976 219.393 34.2351C219.8 34.4941 220.253 34.6884 220.75 34.8179C221.248 34.9475 221.752 35.0122 222.261 35.0122C222.77 35.0122 223.253 34.9813 223.711 34.9193C224.17 34.8574 224.614 34.7729 225.043 34.6659C225.473 34.5589 225.892 34.435 226.299 34.2942C226.706 34.1534 227.119 34.0042 227.538 33.8465L229.404 37.3099C228.759 37.7041 228.168 38.0392 227.631 38.3151C227.094 38.5911 226.554 38.8192 226.011 38.9994C225.468 39.1796 224.891 39.3119 224.28 39.3964C223.669 39.4809 222.956 39.5231 222.142 39.5231C220.615 39.5231 219.257 39.2725 218.069 38.7713C216.882 38.2701 215.883 37.5915 215.075 36.7355C214.266 35.8795 213.649 34.8771 213.225 33.7282C212.801 32.5794 212.589 31.363 212.589 30.079C212.589 28.795 212.812 27.5898 213.259 26.4635C213.706 25.3372 214.336 24.3545 215.151 23.5154C215.965 22.6763 216.938 22.0146 218.069 21.5303C219.201 21.0459 220.456 20.8038 221.836 20.8038C223.217 20.8038 224.441 21.0319 225.51 21.488C226.579 21.9442 227.481 22.5749 228.216 23.3802C228.952 24.1855 229.517 25.1316 229.913 26.2185C230.309 27.3054 230.524 28.474 230.558 29.7242C230.592 30.0058 230.612 30.2845 230.617 30.5605C230.623 30.8364 230.615 31.1208 230.592 31.4137H217.645ZM221.701 25.0275C221.067 25.0275 220.527 25.1035 220.08 25.2555C219.633 25.4076 219.257 25.616 218.952 25.8806C218.646 26.1453 218.403 26.4466 218.222 26.7845C218.041 27.1224 217.9 27.4772 217.798 27.8489H225.145C225.066 27.4659 224.953 27.1055 224.806 26.7676C224.659 26.4297 224.455 26.1312 224.195 25.8722C223.935 25.6131 223.604 25.4076 223.202 25.2555C222.801 25.1035 222.3 25.0275 221.701 25.0275ZM237.939 31.4137L237.99 31.9374C238.115 32.4442 238.327 32.8891 238.626 33.2721C238.926 33.655 239.28 33.976 239.687 34.2351C240.094 34.4941 240.547 34.6884 241.044 34.8179C241.542 34.9475 242.046 35.0122 242.555 35.0122C243.064 35.0122 243.547 34.9813 244.005 34.9193C244.464 34.8574 244.908 34.7729 245.337 34.6659C245.767 34.5589 246.186 34.435 246.593 34.2942C247 34.1534 247.413 34.0042 247.832 33.8465L249.698 37.3099C249.053 37.7041 248.462 38.0392 247.925 38.3151C247.388 38.5911 246.848 38.8192 246.305 38.9994C245.762 39.1796 245.185 39.3119 244.574 39.3964C243.963 39.4809 243.25 39.5231 242.436 39.5231C240.909 39.5231 239.551 39.2725 238.363 38.7713C237.176 38.2701 236.177 37.5915 235.369 36.7355C234.56 35.8795 233.943 34.8771 233.519 33.7282C233.095 32.5794 232.883 31.363 232.883 30.079C232.883 28.795 233.106 27.5898 233.553 26.4635C234 25.3372 234.63 24.3545 235.445 23.5154C236.259 22.6763 237.232 22.0146 238.363 21.5303C239.495 21.0459 240.75 20.8038 242.13 20.8038C243.51 20.8038 244.735 21.0319 245.804 21.488C246.873 21.9442 247.775 22.5749 248.51 23.3802C249.246 24.1855 249.811 25.1316 250.207 26.2185C250.603 27.3054 250.818 28.474 250.852 29.7242C250.886 30.0058 250.906 30.2845 250.911 30.5605C250.917 30.8364 250.909 31.1208 250.886 31.4137H237.939ZM241.995 25.0275C241.361 25.0275 240.821 25.1035 240.374 25.2555C239.927 25.4076 239.551 25.616 239.246 25.8806C238.94 26.1453 238.697 26.4466 238.516 26.7845C238.335 27.1224 238.194 27.4772 238.092 27.8489H245.439C245.36 27.4659 245.247 27.1055 245.1 26.7676C244.953 26.4297 244.749 26.1312 244.489 25.8722C244.229 25.6131 243.898 25.4076 243.496 25.2555C243.095 25.1035 242.594 25.0275 241.995 25.0275ZM264.622 26.1425C264.446 25.8947 264.189 25.6779 263.85 25.4921C263.51 25.3062 263.095 25.157 262.603 25.0444C262.11 24.9317 261.553 24.8754 260.931 24.8754C260.694 24.8754 260.439 24.8951 260.168 24.9345C259.896 24.974 259.644 25.0444 259.413 25.1457C259.181 25.2471 258.988 25.3851 258.836 25.5596C258.683 25.7342 258.607 25.9567 258.607 26.227C258.607 26.3621 258.626 26.4917 258.666 26.6156C258.706 26.7395 258.782 26.8577 258.895 26.9704C259.008 27.083 259.164 27.1872 259.362 27.2829C259.56 27.3786 259.817 27.4547 260.134 27.511L263.324 28.1361C264.478 28.3613 265.445 28.6429 266.225 28.9808C267.006 29.3187 267.634 29.7129 268.109 30.1634C268.584 30.614 268.926 31.1152 269.135 31.6671C269.345 32.219 269.449 32.8159 269.449 33.4579C269.449 34.4603 269.215 35.3389 268.745 36.0935C268.276 36.8481 267.659 37.476 266.896 37.9772C266.132 38.4785 265.272 38.8558 264.316 39.1092C263.36 39.3626 262.396 39.4893 261.423 39.4893C260.79 39.4893 260.216 39.4499 259.701 39.3711C259.186 39.2922 258.722 39.1852 258.31 39.0501C257.897 38.9149 257.529 38.7544 257.207 38.5686C256.884 38.3827 256.587 38.1772 256.316 37.9519H253.245V33.2552H258.047V33.3565C258.058 33.6832 258.16 33.9676 258.352 34.2097C258.544 34.4519 258.796 34.6574 259.107 34.8264C259.418 34.9953 259.772 35.122 260.168 35.2065C260.564 35.291 260.982 35.3332 261.423 35.3332C262.441 35.3332 263.182 35.2009 263.646 34.9362C264.11 34.6715 264.342 34.3308 264.342 33.9141C264.342 33.5874 264.229 33.3087 264.002 33.0778C263.776 32.8469 263.375 32.6639 262.798 32.5287L259.54 31.836C257.492 31.4418 255.948 30.7857 254.907 29.8678C253.867 28.9498 253.346 27.77 253.346 26.3284C253.346 25.4836 253.544 24.7149 253.94 24.0222C254.336 23.3295 254.874 22.7382 255.552 22.2483C256.231 21.7583 257.026 21.3782 257.936 21.1079C258.847 20.8376 259.823 20.7024 260.863 20.7024C261.576 20.7024 262.209 20.7447 262.764 20.8291C263.318 20.9136 263.816 21.0234 264.257 21.1586C264.698 21.2937 265.086 21.4542 265.419 21.6401C265.753 21.8259 266.05 22.0202 266.31 22.2229H269.263V26.9197H264.885C264.885 26.6494 264.797 26.3903 264.622 26.1425ZM277.102 31.4137L277.153 31.9374C277.277 32.4442 277.489 32.8891 277.789 33.2721C278.089 33.655 278.442 33.976 278.85 34.2351C279.257 34.4941 279.709 34.6884 280.207 34.8179C280.705 34.9475 281.208 35.0122 281.717 35.0122C282.226 35.0122 282.71 34.9813 283.168 34.9193C283.626 34.8574 284.07 34.7729 284.5 34.6659C284.93 34.5589 285.348 34.435 285.756 34.2942C286.163 34.1534 286.576 34.0042 286.994 33.8465L288.861 37.3099C288.216 37.7041 287.625 38.0392 287.088 38.3151C286.55 38.5911 286.01 38.8192 285.467 38.9994C284.924 39.1796 284.347 39.3119 283.736 39.3964C283.126 39.4809 282.413 39.5231 281.598 39.5231C280.071 39.5231 278.714 39.2725 277.526 38.7713C276.338 38.2701 275.34 37.5915 274.531 36.7355C273.722 35.8795 273.106 34.8771 272.682 33.7282C272.257 32.5794 272.045 31.363 272.045 30.079C272.045 28.795 272.269 27.5898 272.716 26.4635C273.162 25.3372 273.793 24.3545 274.608 23.5154C275.422 22.6763 276.395 22.0146 277.526 21.5303C278.657 21.0459 279.913 20.8038 281.293 20.8038C282.673 20.8038 283.898 21.0319 284.967 21.488C286.036 21.9442 286.938 22.5749 287.673 23.3802C288.408 24.1855 288.974 25.1316 289.37 26.2185C289.766 27.3054 289.981 28.474 290.015 29.7242C290.049 30.0058 290.068 30.2845 290.074 30.5605C290.08 30.8364 290.071 31.1208 290.049 31.4137H277.102ZM281.157 25.0275C280.524 25.0275 279.984 25.1035 279.537 25.2555C279.09 25.4076 278.714 25.616 278.408 25.8806C278.103 26.1453 277.86 26.4466 277.679 26.7845C277.498 27.1224 277.356 27.4772 277.255 27.8489H284.602C284.523 27.4659 284.41 27.1055 284.262 26.7676C284.115 26.4297 283.912 26.1312 283.652 25.8722C283.391 25.6131 283.061 25.4076 282.659 25.2555C282.257 25.1035 281.757 25.0275 281.157 25.0275Z" fill="#F1F1F1"/>
<path d="M99.7431 58.0111H100.761V49.7679H99.7431V48.536L104.565 48.5501C104.999 48.5501 105.406 48.631 105.788 48.7929C106.17 48.9548 106.502 49.1754 106.785 49.4546C107.068 49.7339 107.29 50.0635 107.453 50.4437C107.616 50.8238 107.697 51.2321 107.697 51.6685C107.697 52.1237 107.57 52.5391 107.315 52.9145C107.061 53.29 106.698 53.5903 106.226 53.8156C106.457 53.9376 106.667 54.0795 106.856 54.2414C107.044 54.4034 107.204 54.5805 107.336 54.7729C107.468 54.9653 107.571 55.1695 107.644 55.3854C107.717 55.6012 107.754 55.8218 107.754 56.0471C107.754 56.4929 107.672 56.9082 107.51 57.2931C107.347 57.6779 107.124 58.0134 106.841 58.2997C106.559 58.586 106.228 58.8112 105.848 58.9755C105.469 59.1397 105.062 59.2219 104.629 59.2219H99.7431V58.0111ZM102.147 54.4773V58.0111H104.643C104.869 58.0111 105.079 57.9548 105.272 57.8421C105.465 57.7295 105.635 57.5828 105.781 57.4022C105.927 57.2215 106.041 57.0162 106.124 56.7862C106.206 56.5563 106.248 56.3216 106.248 56.0823C106.248 55.8758 106.205 55.6763 106.12 55.4839C106.035 55.2915 105.921 55.1202 105.777 54.97C105.634 54.8199 105.464 54.7002 105.268 54.611C105.073 54.5219 104.864 54.4773 104.643 54.4773H102.147ZM102.147 49.7679V53.2524H104.579C104.805 53.2524 105.016 53.2078 105.212 53.1187C105.407 53.0295 105.577 52.9098 105.721 52.7596C105.865 52.6095 105.979 52.4358 106.064 52.2387C106.149 52.0416 106.191 51.8375 106.191 51.6263C106.191 51.3963 106.149 51.1699 106.064 50.947C105.979 50.7241 105.863 50.5258 105.717 50.3522C105.571 50.1785 105.4 50.0377 105.205 49.9298C105.009 49.8218 104.801 49.7679 104.579 49.7679H102.147ZM109.373 48.5501H117.051V51.57H115.601V49.7679H111.776V53.182H114.993V54.3928H111.776V58.0111H115.601V56.209H117.051V59.2219H109.373V58.0111H110.391V49.7679H109.373V48.5501ZM123.803 50.5211C123.652 50.3146 123.486 50.1562 123.304 50.0459C123.123 49.9357 122.924 49.8512 122.707 49.7925C122.49 49.7339 122.273 49.7045 122.056 49.7045C121.698 49.7045 121.385 49.7456 121.116 49.8277C120.847 49.9098 120.625 50.0213 120.448 50.1621C120.271 50.3029 120.138 50.4671 120.048 50.6548C119.959 50.8426 119.914 51.0397 119.914 51.2462C119.914 51.5559 119.969 51.8058 120.08 51.9959C120.191 52.1859 120.331 52.3385 120.501 52.4534C120.671 52.5684 120.858 52.6587 121.063 52.7244C121.268 52.7901 121.465 52.8559 121.653 52.9216L123.081 53.3862C123.51 53.5223 123.889 53.6771 124.216 53.8508C124.544 54.0244 124.818 54.2297 125.04 54.4667C125.261 54.7037 125.43 54.9771 125.545 55.2868C125.661 55.5965 125.719 55.9556 125.719 56.3638C125.719 56.805 125.628 57.2133 125.446 57.5887C125.265 57.9641 125.012 58.2903 124.686 58.5672C124.361 58.8441 123.973 59.0611 123.523 59.2183C123.073 59.3756 122.579 59.4542 122.042 59.4542C121.491 59.4542 121.019 59.392 120.628 59.2676C120.237 59.1433 119.908 58.9767 119.642 58.7678C119.376 58.559 119.162 58.3208 119.002 58.0533C118.842 57.7858 118.717 57.5113 118.627 57.2297H118.09V56.0189H119.872C119.872 56.5398 119.927 56.9082 120.038 57.1241C120.149 57.34 120.303 57.5195 120.501 57.6626C120.699 57.8058 120.935 57.9137 121.208 57.9864C121.481 58.0592 121.783 58.0956 122.113 58.0956C122.433 58.0956 122.722 58.058 122.979 57.9829C123.236 57.9078 123.455 57.7987 123.636 57.6556C123.818 57.5124 123.957 57.3388 124.054 57.1347C124.15 56.9305 124.199 56.6994 124.199 56.4413C124.199 56.155 124.138 55.9121 124.018 55.7127C123.898 55.5132 123.744 55.3431 123.555 55.2023C123.367 55.0615 123.16 54.9466 122.937 54.8574C122.713 54.7682 122.497 54.6908 122.29 54.6251L120.741 54.1887C120.402 54.0854 120.092 53.954 119.812 53.7944C119.531 53.6349 119.291 53.4401 119.09 53.2102C118.89 52.9802 118.736 52.7115 118.627 52.4042C118.519 52.0968 118.465 51.7413 118.465 51.3377C118.465 50.9294 118.545 50.5469 118.705 50.1902C118.865 49.8336 119.101 49.5215 119.412 49.254C119.723 48.9865 120.104 48.7765 120.554 48.624C121.004 48.4714 121.519 48.3952 122.099 48.3952C122.481 48.3952 122.833 48.4398 123.156 48.5289C123.479 48.6181 123.771 48.7436 124.032 48.9055C124.294 49.0675 124.525 49.2622 124.725 49.4898C124.926 49.7174 125.094 49.9673 125.231 50.2395H125.761V51.4503H124.029C124.029 51.0373 123.953 50.7276 123.803 50.5211ZM129.353 58.0111H130.335V49.7045H127.889V51.3658H126.44V48.5501H135.999V51.3658H134.549V49.7045H131.721V58.0111H132.824V59.2219H129.353V58.0111ZM148.216 51.3658C147.9 50.8308 147.482 50.4108 146.961 50.1058C146.44 49.8007 145.859 49.6482 145.218 49.6482C144.671 49.6482 144.172 49.7632 143.719 49.9931C143.267 50.2231 142.879 50.5317 142.556 50.9188C142.233 51.306 141.982 51.7542 141.803 52.2634C141.624 52.7726 141.534 53.3087 141.534 53.8719C141.534 54.5383 141.633 55.1284 141.831 55.6423C142.029 56.1562 142.287 56.5832 142.606 56.9235C142.924 57.2637 143.302 57.5476 143.74 57.7753C144.179 58.0029 144.671 58.1167 145.218 58.1167C145.963 58.1167 146.611 57.9372 147.162 57.5782C147.714 57.2191 148.185 56.629 148.576 55.8077L149.821 56.392C149.641 56.8988 149.337 57.3881 148.908 57.8597C148.48 58.3314 147.95 58.7115 147.321 59.0001C146.692 59.2887 145.996 59.433 145.232 59.433C144.501 59.433 143.83 59.2958 143.217 59.0212C142.604 58.7467 142.059 58.356 141.58 57.8492C141.102 57.3423 140.737 56.7416 140.484 56.0471C140.232 55.3525 140.106 54.6274 140.106 53.8719C140.106 53.1116 140.232 52.3936 140.484 51.7178C140.737 51.042 141.09 50.4542 141.545 49.9544C142 49.4546 142.542 49.0604 143.171 48.7718C143.8 48.4832 144.483 48.3389 145.218 48.3389C145.873 48.3389 146.439 48.4316 146.915 48.6169C147.391 48.8023 147.795 49.0229 148.127 49.2786C148.46 49.5344 148.746 49.8125 148.986 50.1128H149.736V51.3658H148.216ZM158.877 48.5501H162.356V49.7608H161.338V58.0111H162.356V59.2219H158.877V58.0111H159.952V54.1746H153.752V58.0111H154.826V59.2219H151.348V58.0111H152.366V49.7608H151.348V48.5501H154.826V49.7608H153.752V52.9919H159.952V49.7608H158.877V48.5501ZM164.449 48.5501H172.127V51.57H170.677V49.7679H166.852V53.182H170.069V54.3928H166.852V58.0111H170.677V56.209H172.127V59.2219H164.449V58.0111H165.467V49.7679H164.449V48.5501ZM173.611 48.5501H181.289V51.57H179.84V49.7679H176.015V53.182H179.232V54.3928H176.015V58.0111H179.84V56.209H181.289V59.2219H173.611V58.0111H174.629V49.7679H173.611V48.5501ZM188.041 50.5211C187.891 50.3146 187.724 50.1562 187.543 50.0459C187.362 49.9357 187.162 49.8512 186.946 49.7925C186.729 49.7339 186.512 49.7045 186.295 49.7045C185.937 49.7045 185.623 49.7456 185.355 49.8277C185.086 49.9098 184.863 50.0213 184.687 50.1621C184.51 50.3029 184.377 50.4671 184.287 50.6548C184.198 50.8426 184.153 51.0397 184.153 51.2462C184.153 51.5559 184.208 51.8058 184.319 51.9959C184.43 52.1859 184.57 52.3385 184.74 52.4534C184.909 52.5684 185.097 52.6587 185.302 52.7244C185.507 52.7901 185.704 52.8559 185.892 52.9216L187.32 53.3862C187.749 53.5223 188.127 53.6771 188.455 53.8508C188.783 54.0244 189.057 54.2297 189.279 54.4667C189.5 54.7037 189.669 54.9771 189.784 55.2868C189.9 55.5965 189.957 55.9556 189.957 56.3638C189.957 56.805 189.867 57.2133 189.685 57.5887C189.504 57.9641 189.25 58.2903 188.925 58.5672C188.6 58.8441 188.212 59.0611 187.762 59.2183C187.312 59.3756 186.818 59.4542 186.281 59.4542C185.73 59.4542 185.258 59.392 184.867 59.2676C184.476 59.1433 184.147 58.9767 183.881 58.7678C183.614 58.559 183.401 58.3208 183.241 58.0533C183.081 57.7858 182.956 57.5113 182.866 57.2297H182.329V56.0189H184.11C184.11 56.5398 184.166 56.9082 184.277 57.1241C184.387 57.34 184.542 57.5195 184.74 57.6626C184.938 57.8058 185.173 57.9137 185.447 57.9864C185.72 58.0592 186.022 58.0956 186.352 58.0956C186.672 58.0956 186.961 58.058 187.218 57.9829C187.475 57.9078 187.694 57.7987 187.875 57.6556C188.057 57.5124 188.196 57.3388 188.292 57.1347C188.389 56.9305 188.437 56.6994 188.437 56.4413C188.437 56.155 188.377 55.9121 188.257 55.7127C188.137 55.5132 187.983 55.3431 187.794 55.2023C187.605 55.0615 187.399 54.9466 187.175 54.8574C186.951 54.7682 186.736 54.6908 186.528 54.6251L184.98 54.1887C184.641 54.0854 184.331 53.954 184.05 53.7944C183.77 53.6349 183.53 53.4401 183.329 53.2102C183.129 52.9802 182.975 52.7115 182.866 52.4042C182.758 52.0968 182.704 51.7413 182.704 51.3377C182.704 50.9294 182.784 50.5469 182.944 50.1902C183.104 49.8336 183.34 49.5215 183.651 49.254C183.962 48.9865 184.343 48.7765 184.793 48.624C185.243 48.4714 185.758 48.3952 186.338 48.3952C186.719 48.3952 187.072 48.4398 187.395 48.5289C187.717 48.6181 188.01 48.7436 188.271 48.9055C188.533 49.0675 188.764 49.2622 188.964 49.4898C189.164 49.7174 189.333 49.9673 189.47 50.2395H190V51.4503H188.268C188.268 51.0373 188.192 50.7276 188.041 50.5211ZM191.4 48.5501H199.078V51.57H197.628V49.7679H193.804V53.182H197.02V54.3928H193.804V58.0111H197.628V56.209H199.078V59.2219H191.4V58.0111H192.418V49.7679H191.4V48.5501ZM203.801 48.5501H207.223V49.7679H206.204V58.0111H207.223V59.2219H203.801V58.0111H204.819V49.7679H203.801V48.5501ZM215.947 48.5501H219.426V49.7679H218.514V59.2219H216.704L211.719 50.3733V58.0111H212.822V59.2219H209.344V58.0111H210.333V49.7679H209.315V48.536H212.2L217.092 57.3001L217.149 56.9622V49.7679H215.947V48.5501ZM228.744 59.433C228.004 59.433 227.328 59.2958 226.715 59.0212C226.102 58.7467 225.555 58.356 225.075 57.8492C224.594 57.3423 224.228 56.7416 223.979 56.0471C223.729 55.3525 223.604 54.6321 223.604 53.886C223.604 53.1163 223.73 52.3936 223.982 51.7178C224.234 51.042 224.588 50.4542 225.043 49.9544C225.498 49.4546 226.04 49.0604 226.669 48.7718C227.298 48.4832 227.99 48.3389 228.744 48.3389C229.503 48.3389 230.198 48.4832 230.83 48.7718C231.461 49.0604 232.003 49.4546 232.456 49.9544C232.908 50.4542 233.259 51.042 233.509 51.7178C233.759 52.3936 233.884 53.1163 233.884 53.886C233.884 54.6556 233.758 55.3771 233.506 56.0506C233.253 56.724 232.9 57.3118 232.445 57.814C231.99 58.3161 231.448 58.7115 230.819 59.0001C230.19 59.2887 229.498 59.433 228.744 59.433ZM228.744 58.1237C229.305 58.1237 229.813 58.0087 230.268 57.7788C230.722 57.5488 231.11 57.2403 231.431 56.8531C231.751 56.4659 231.999 56.0166 232.173 55.505C232.347 54.9935 232.435 54.4538 232.435 53.886C232.435 53.304 232.339 52.742 232.148 52.2C231.957 51.658 231.691 51.1992 231.349 50.8238C231.008 50.4484 230.61 50.1586 230.158 49.9544C229.705 49.7503 229.234 49.6482 228.744 49.6482C228.183 49.6482 227.674 49.7632 227.217 49.9931C226.76 50.2231 226.371 50.5317 226.05 50.9188C225.73 51.306 225.482 51.7565 225.308 52.2704C225.133 52.7843 225.046 53.3228 225.046 53.886C225.046 54.543 225.143 55.1284 225.336 55.6423C225.529 56.1562 225.785 56.5832 226.103 56.9235C226.421 57.2637 226.801 57.5488 227.242 57.7788C227.682 58.0087 228.183 58.1237 228.744 58.1237ZM235.468 48.5501H239.929C240.405 48.5501 240.844 48.6122 241.247 48.7366C241.65 48.861 241.999 49.044 242.294 49.2857C242.588 49.5274 242.818 49.8289 242.983 50.1902C243.148 50.5516 243.231 50.9669 243.231 51.4362C243.231 51.7037 243.182 51.9677 243.086 52.2282C242.989 52.4886 242.855 52.7303 242.683 52.9532C242.511 53.1761 242.307 53.3744 242.071 53.5481C241.835 53.7217 241.578 53.8555 241.3 53.9493C241.418 54.0009 241.537 54.0748 241.657 54.1711C241.778 54.2673 241.891 54.3846 241.997 54.523C242.103 54.6615 242.199 54.8187 242.287 54.9947C242.374 55.1707 242.443 55.3595 242.495 55.5613L243.089 57.8844H244.015L244.029 59.2219H241.944L241.145 55.9767C240.999 55.3947 240.776 54.9665 240.477 54.692C240.177 54.4174 239.769 54.2802 239.25 54.2802H237.871V58.0111H238.946V59.2219H235.468V58.0111H236.486V49.7679H235.468V48.5501ZM237.871 49.7679V53.1257H239.929C240.197 53.1257 240.444 53.0905 240.668 53.0201C240.892 52.9497 241.085 52.8441 241.247 52.7033C241.41 52.5625 241.537 52.3877 241.629 52.1789C241.721 51.9701 241.767 51.7272 241.767 51.4503C241.767 50.92 241.607 50.507 241.286 50.2114C240.966 49.9157 240.457 49.7679 239.759 49.7679H237.871ZM245.846 48.5501H253.525V51.57H252.075V49.7679H248.25V53.182H251.467V54.3928H248.25V58.0111H252.075V56.209H253.525V59.2219H245.846V58.0111H246.865V49.7679H245.846V48.5501ZM263.281 59.2641V57.1241C263.102 57.4949 262.878 57.8175 262.61 58.092C262.341 58.3666 262.042 58.593 261.712 58.7713C261.382 58.9497 261.029 59.0834 260.655 59.1726C260.28 59.2618 259.899 59.3063 259.513 59.3063C258.815 59.3063 258.172 59.1902 257.583 58.9579C256.994 58.7256 256.46 58.356 255.981 57.8492C255.503 57.3423 255.138 56.7416 254.886 56.0471C254.633 55.3525 254.507 54.6274 254.507 53.8719C254.507 53.1116 254.633 52.3936 254.886 51.7178C255.138 51.042 255.491 50.4531 255.946 49.9509C256.401 49.4488 256.943 49.0545 257.572 48.7683C258.201 48.482 258.884 48.3389 259.619 48.3389C260.298 48.3389 260.881 48.4351 261.369 48.6275C261.857 48.8199 262.274 49.0534 262.62 49.3279C262.967 49.6024 263.244 49.8641 263.451 50.1128H264.137V51.3658H262.617C262.301 50.8308 261.883 50.4085 261.362 50.0987C260.841 49.789 260.258 49.6388 259.612 49.6482C259.07 49.6482 258.573 49.7632 258.12 49.9931C257.668 50.2231 257.28 50.5328 256.957 50.9223C256.634 51.3119 256.383 51.76 256.204 52.2669C256.025 52.7737 255.935 53.3087 255.935 53.8719C255.935 54.496 256.034 55.0756 256.232 55.6106C256.43 56.1456 256.683 56.5797 256.989 56.9129C257.295 57.2461 257.674 57.5218 258.124 57.7401C258.574 57.9583 259.072 58.0674 259.619 58.0674C260.524 58.0674 261.266 57.848 261.846 57.4092C262.426 56.9704 262.831 56.2864 263.062 55.3572H260.064V54.1464H264.596V59.2641H263.281ZM271.617 59.433C270.877 59.433 270.201 59.2958 269.588 59.0212C268.975 58.7467 268.428 58.356 267.948 57.8492C267.467 57.3423 267.102 56.7416 266.852 56.0471C266.602 55.3525 266.477 54.6321 266.477 53.886C266.477 53.1163 266.603 52.3936 266.855 51.7178C267.107 51.042 267.461 50.4542 267.916 49.9544C268.371 49.4546 268.913 49.0604 269.542 48.7718C270.171 48.4832 270.863 48.3389 271.617 48.3389C272.376 48.3389 273.071 48.4832 273.703 48.7718C274.334 49.0604 274.876 49.4546 275.329 49.9544C275.781 50.4542 276.132 51.042 276.382 51.7178C276.632 52.3936 276.757 53.1163 276.757 53.886C276.757 54.6556 276.631 55.3771 276.379 56.0506C276.126 56.724 275.773 57.3118 275.318 57.814C274.863 58.3161 274.321 58.7115 273.692 59.0001C273.063 59.2887 272.371 59.433 271.617 59.433ZM271.617 58.1237C272.178 58.1237 272.686 58.0087 273.141 57.7788C273.595 57.5488 273.983 57.2403 274.304 56.8531C274.624 56.4659 274.872 56.0166 275.046 55.505C275.22 54.9935 275.308 54.4538 275.308 53.886C275.308 53.304 275.212 52.742 275.021 52.2C274.83 51.658 274.564 51.1992 274.222 50.8238C273.881 50.4484 273.483 50.1586 273.031 49.9544C272.578 49.7503 272.107 49.6482 271.617 49.6482C271.056 49.6482 270.547 49.7632 270.09 49.9931C269.633 50.2231 269.244 50.5317 268.923 50.9188C268.603 51.306 268.355 51.7565 268.181 52.2704C268.006 52.7843 267.919 53.3228 267.919 53.886C267.919 54.543 268.016 55.1284 268.209 55.6423C268.402 56.1562 268.658 56.5832 268.976 56.9235C269.294 57.2637 269.674 57.5488 270.115 57.7788C270.555 58.0087 271.056 58.1237 271.617 58.1237ZM284.972 48.5501H288.451V49.7679H287.539V59.2219H285.729L280.744 50.3733V58.0111H281.847V59.2219H278.369V58.0111H279.359V49.7679H278.341V48.536H281.225L286.118 57.3001L286.174 56.9622V49.7679H284.972V48.5501Z" fill="#F1F1F1"/>
<path d="M82.7805 59.2981H82.7755C82.5144 59.2611 82.2445 59.2238 81.9659 59.1865C82.1606 59.0952 82.3604 59.0149 82.5641 58.9459C82.3243 58.996 82.0907 59.0722 81.8676 59.1732L81.5312 59.1284L81.712 58.9489L81.4383 59.1161L81.1997 59.0846C81.2304 59.0219 81.2539 58.9559 81.2699 58.8879C81.4675 58.8294 81.6819 58.7718 81.9071 58.7241C81.6939 58.7458 81.4833 58.7871 81.2778 58.8476C81.3055 58.7408 81.262 58.6284 81.1696 58.5677C81.3418 58.4629 81.5195 58.3675 81.7021 58.2819C81.2425 58.445 80.8106 58.6772 80.4217 58.9705C80.4054 58.9523 80.3886 58.9346 80.3723 58.9169L80.8455 58.3267L80.2453 58.8058C80.233 58.7959 80.2211 58.7861 80.2083 58.7767C80.2448 58.7044 80.2804 58.6292 80.3115 58.5539C80.4187 58.5259 80.5289 58.4993 80.642 58.4752C80.5349 58.4837 80.4285 58.5002 80.3239 58.5244C80.3925 58.3742 80.424 58.2097 80.4157 58.0449L80.437 58.034L80.4153 58.0414C80.407 57.9574 80.3591 57.8822 80.2863 57.8388C80.299 57.9203 80.299 58.0032 80.2863 58.0847C80.0374 58.1828 79.7985 58.3045 79.573 58.4482C79.5307 58.3825 79.4837 58.3201 79.4322 58.2613L79.5804 58.0754L79.3966 58.2229C79.3212 58.1439 79.2334 58.0775 79.1368 58.0262C79.1403 58.008 79.1432 57.9908 79.1462 57.9735C79.2032 57.9594 79.2605 57.9457 79.3181 57.9322C79.2662 57.9352 79.2089 57.9416 79.1496 57.9494C79.1576 57.8958 79.1576 57.8413 79.1496 57.7876C79.203 57.7596 79.2568 57.732 79.3117 57.705C79.2548 57.7194 79.1991 57.7376 79.1447 57.7596C79.1298 57.6881 79.0851 57.6262 79.0217 57.5894C79.0323 57.6633 79.0323 57.7383 79.0217 57.8122C78.8548 57.891 78.6923 57.9788 78.5351 58.0754C78.4492 58.0977 78.3614 58.1216 78.2718 58.1472C78.223 58.077 78.1681 58.0112 78.1078 57.9504C78.3248 57.628 78.5741 57.3282 78.8518 57.0558L78.912 57.0228L78.8705 57.0371L78.8671 57.0395C78.4883 57.1705 78.1266 57.3462 77.7897 57.5628L77.8742 57.2677L77.6637 57.6406C77.5536 57.7104 77.4449 57.7832 77.3372 57.857C77.354 57.6132 77.3427 57.3683 77.3036 57.1271L77.3219 57.101L77.3021 57.1187C77.2858 56.9062 77.173 56.7126 76.9959 56.5929C77.0796 56.81 77.1253 57.0397 77.1312 57.2722L76.5147 57.827C76.4564 57.7498 76.3947 57.6735 76.3299 57.6007C76.5432 57.1807 76.5732 56.6918 76.4129 56.2491C76.5905 56.1487 76.7743 56.0597 76.9632 55.9825C76.7224 55.9679 76.4813 56.0067 76.2573 56.0962V56.0962C75.7117 56.3274 75.2103 56.6509 74.7754 57.0523C74.6397 56.869 74.4783 56.706 74.2962 56.5683C74.9457 56.2621 75.6172 56.0046 76.3053 55.7981C75.5167 55.8549 74.7457 56.0578 74.0319 56.3962C74.0112 56.3859 73.9894 56.3775 73.9682 56.3686C74.1126 55.7903 74.3623 55.2432 74.7047 54.7544C74.1692 54.9211 73.7913 55.7455 73.5354 56.6141C73.4065 56.6731 73.2781 56.7346 73.1501 56.7965L72.9491 55.6653L72.8804 56.9293C72.7589 56.9903 72.6389 57.0513 72.5203 57.1133C72.4763 56.9657 72.4289 56.8143 72.3785 56.6647L72.8528 55.9953L72.3237 56.5044C72.2802 56.3819 72.2338 56.2585 72.1859 56.1424C72.6581 55.6303 73.1864 55.1723 73.7607 54.777C73.1165 54.9926 72.5325 55.3564 72.0559 55.8389C71.9967 55.711 71.9346 55.59 71.8697 55.4759L71.9399 55.4454C71.9107 55.4454 71.8806 55.4415 71.8509 55.441C71.8119 55.3736 71.7714 55.3102 71.7304 55.2497C71.8248 55.112 71.9226 54.9747 72.0268 54.839C71.8903 54.9248 71.7632 55.0246 71.6474 55.1366C71.6033 55.0772 71.5558 55.0203 71.5051 54.9664C71.5417 55.0357 71.5763 55.1051 71.6099 55.1739C71.4938 55.2892 71.3851 55.4116 71.2843 55.5404C70.9076 55.6817 70.5542 55.8785 70.2361 56.1242C70.202 55.6291 70.0644 55.1466 69.832 54.7077C69.938 55.2393 69.9877 55.7805 69.9802 56.3224C69.8784 56.4047 69.7796 56.4886 69.6838 56.5742C69.601 56.2027 69.4218 55.8593 69.1641 55.5782C69.2066 55.5369 69.2481 55.4951 69.2921 55.4548C69.2324 55.478 69.1749 55.5063 69.1202 55.5394C69.0982 55.5205 69.0753 55.5028 69.0515 55.4863C69.0638 55.5104 69.0747 55.5354 69.0866 55.559C69.0609 55.5748 69.0372 55.5915 69.009 55.6082C69.1539 55.1137 69.3801 54.6465 69.6784 54.2256C69.1528 54.3894 68.7793 55.1862 68.5234 56.0366C68.4009 56.165 68.2764 56.3062 68.1569 56.4552L68.0946 56.1055C68.6415 54.873 69.3845 53.7363 70.2949 52.7393C69.5415 53.0216 68.683 54.2301 67.9781 55.4474L67.9227 55.1361L67.898 55.5861C67.737 55.8689 67.5848 56.1503 67.444 56.4188C67.362 56.1542 67.2692 55.8861 67.1664 55.6318C67.1575 55.2703 67.1486 54.8798 67.1407 54.477C67.2588 53.7272 67.4575 52.9922 67.7335 52.2848C67.4504 52.5866 67.241 52.9493 67.1215 53.3447C67.1002 51.878 67.0983 50.4654 67.1546 49.9062C67.2909 48.5492 67.6318 47.5994 67.2227 43.2574L67.2183 43.2156C66.1808 43.7616 65.0641 44.1433 63.9086 44.3468C64.0568 45.6291 64.2282 46.9458 64.4272 47.9373C64.7913 49.7498 65.0946 53.4652 65.2557 55.7332L65.2176 55.7553C65.0229 55.2021 64.7016 54.7017 64.279 54.2935C64.5792 54.7966 64.8287 55.3279 65.024 55.8797C64.6811 56.1169 64.3571 56.38 64.0548 56.6667C63.8546 56.5217 63.6347 56.4058 63.4017 56.3224C63.5252 55.5337 63.8219 54.7818 64.2707 54.1204C64.1353 54.1671 64.0128 54.2448 63.913 54.3471C63.3765 54.5612 62.9134 54.9248 62.5792 55.3943L62.515 55.0308L62.4888 55.5069C62.3149 55.7287 62.1504 55.9643 61.9993 56.198C61.8353 55.6346 61.5946 55.0963 61.284 54.598C61.3355 54.2952 61.4183 53.9985 61.531 53.7126C61.3184 53.8734 61.1627 54.0974 61.0864 54.3521C61.0814 54.3466 61.077 54.3402 61.0721 54.3353L61.0839 54.3589C60.9138 54.8965 60.8252 55.4563 60.8211 56.0199C60.6285 55.8176 60.417 55.6342 60.1893 55.472L60.1468 55.3736C60.3486 55.1293 60.5671 54.8992 60.8009 54.685C60.5266 54.812 60.2814 54.9934 60.0801 55.2182L60.0307 55.0992L60.0569 55.2467C59.8544 55.459 59.6646 55.6828 59.4883 55.9171C59.4602 55.8753 59.4315 55.8355 59.4029 55.7946C59.975 54.3918 60.7877 53.0987 61.8046 51.973C60.9683 52.2868 60.0026 53.7436 59.2606 55.0834C59.228 52.9581 59.2206 50.1649 59.3836 49.437C59.6563 48.2157 60.8162 45.5701 60.6784 43.8742C60.6338 43 60.7032 42.1238 60.8848 41.2674C61.1361 40.1226 61.5215 39.0111 62.0329 37.9557C62.1218 37.7919 62.2152 37.6331 62.3135 37.4806C61.4371 39.3595 61.1506 42.5388 61.0365 43.614C61.1842 43.6896 61.3379 43.753 61.4959 43.8038C63.9575 44.6719 67.693 42.8496 69.8547 41.0003C70.5221 40.982 71.1899 41.0116 71.8529 41.0888C72.217 41.1552 72.7036 41.7021 73.1867 42.3991C73.5927 41.7016 74.1187 41.0806 74.7408 40.5645C74.1653 41.352 73.7139 42.2222 73.4021 43.1452C73.366 43.8742 73.325 44.5377 73.2791 45.0635C73.036 47.8478 76.3996 52.0566 77.149 52.5312C77.8984 53.0059 78.4151 54.9196 78.4828 55.5315C78.6407 56.1695 79.096 56.6937 79.7074 56.9412C79.9834 57.0134 80.2664 57.0555 80.5516 57.0666C80.1632 56.2302 79.8677 55.3541 79.6703 54.4539C80.1465 55.4376 80.7734 56.6441 81.0935 57.2382C82.1008 57.4389 83.2103 57.4979 83.5867 57.2018C83.9176 56.9411 83.9512 57.1438 84.3212 56.4552C84.6122 55.9142 84.3415 55.2113 84.3672 55.0195C84.5314 53.3425 84.5931 51.6571 84.5519 49.9726C84.5519 48.7573 85.4688 47.447 85.5547 43.8063C85.0528 43.6833 84.5277 43.5181 83.9078 43.3223L83.8366 43.3002C82.5947 42.9067 82.0869 42.1065 82.203 41.3603C82.2194 41.1861 82.2963 41.0229 82.4204 40.899C82.5631 40.8183 82.7592 40.2748 84.0426 40.6683C84.3464 40.7612 84.9254 41.08 85.3033 41.2359C85.2728 40.2863 84.6554 39.4547 83.7527 39.147C83.1028 38.8784 82.4774 38.5545 81.8834 38.179C81.5738 38.7839 81.2274 39.3693 80.846 39.932C81.3285 38.971 81.75 37.981 82.1082 36.9676C82.3156 36.1447 81.5495 32.9108 81.2852 32.8449C81.0209 32.779 78.2264 34.5295 78.4077 35.6239C78.5351 36.3966 78.8523 38.5415 79.0306 39.7357C78.7624 38.7727 78.3089 36.5781 78.1696 35.737C78.0942 35.2354 78.2587 34.7275 78.6142 34.3642C78.6354 34.3391 78.8612 33.7602 78.8859 33.7356C76.6431 28.6204 73.7044 23.21 73.7044 23.21C73.7044 23.21 72.8404 21.615 72.7362 21.4856C69.9098 18.1763 66.2012 15.7301 62.0383 14.4295C56.3831 12.6658 46.571 13.1409 42.2787 12.8015C40.812 12.6854 36.0099 12.1232 33.6249 11.7839C31.24 11.4445 26.0619 11.7839 24.2218 12.4961C22.3817 13.2083 18.9267 14.674 19.0433 18.568C19.1614 22.5028 18.8393 33.6968 17.6809 36.2072C17.0329 37.8174 16.6613 39.5246 16.5818 41.2575C16.6662 40.7765 16.7522 40.3028 16.8332 39.8862C16.8693 39.6929 16.9068 39.506 16.9453 39.3285C16.9924 39.0793 17.0537 38.8329 17.1291 38.5907C17.0649 38.8106 17.0036 39.058 16.9453 39.3285C16.9098 39.4967 16.8722 39.6846 16.8332 39.8862C16.7315 40.4307 16.6401 41.0288 16.559 41.6348C16.5472 41.8704 16.5393 42.1015 16.5358 42.3234C16.684 41.531 16.849 40.6437 16.9982 39.9285C17.0372 39.7318 17.0772 39.5474 17.1187 39.3693C17.1689 39.1222 17.2334 38.8781 17.3119 38.6384C17.2452 38.8568 17.1805 39.1032 17.1187 39.3693C17.0807 39.538 17.0402 39.7259 16.9982 39.9285C16.8164 40.8321 16.6613 41.8856 16.5363 42.8728C16.5404 43.3317 16.5721 43.7899 16.6312 44.245C16.7201 43.2928 16.8559 41.9018 16.9824 40.865C17.0051 40.6683 17.0293 40.4789 17.0555 40.2984C17.085 40.0481 17.1288 39.7996 17.1869 39.5542C17.1375 39.7775 17.095 40.0279 17.0555 40.2984C17.0318 40.4696 17.0061 40.6599 16.9824 40.865C16.8426 42.0799 16.7715 43.5535 16.7354 44.7831C16.7552 44.8584 16.7754 44.9272 16.7957 44.9907C16.8846 44.0375 17.0254 42.588 17.1553 41.5177C17.178 41.321 17.2026 41.1319 17.2289 40.9506C17.258 40.7004 17.3019 40.452 17.3603 40.2069C17.3109 40.4297 17.2679 40.6806 17.2289 40.9506C17.2047 41.1218 17.1795 41.3126 17.1553 41.5177C17.0219 42.6799 16.9508 44.0798 16.9132 45.2754C16.9182 45.2848 16.9226 45.2941 16.9276 45.303C17.0135 44.3685 17.1676 42.7527 17.3099 41.5856C17.3323 41.3888 17.3567 41.1998 17.383 41.0185C17.4122 40.7681 17.4561 40.5196 17.5144 40.2743C17.465 40.4976 17.4225 40.7485 17.383 41.0185C17.3593 41.1896 17.3336 41.3805 17.3099 41.5856C17.1711 42.7896 17.1 44.2489 17.0629 45.4712L17.0679 45.4751C17.1415 44.6577 17.3198 42.7395 17.4818 41.407C17.5045 41.2103 17.5291 41.0213 17.5554 40.8399C17.5846 40.5897 17.6285 40.3414 17.6868 40.0963C17.6374 40.3196 17.5945 40.5699 17.5554 40.8399C17.5317 41.0111 17.506 41.2019 17.4818 41.407C17.3336 42.6858 17.264 44.2514 17.2294 45.5169C17.3119 45.4929 17.3833 45.4406 17.4309 45.3694C17.4645 44.4919 17.5401 42.6829 17.6285 41.407C17.6409 41.2103 17.6552 41.0165 17.6725 40.8335C17.6887 40.5833 17.7195 40.3341 17.7649 40.0874C17.7283 40.3117 17.6977 40.563 17.6725 40.8335C17.6572 41.0067 17.6429 41.1995 17.6285 41.407C17.5559 42.558 17.5569 43.9361 17.5791 45.121C17.623 45.0274 17.6618 44.9315 17.6952 44.8338C17.7407 43.9224 17.8316 42.2058 17.9289 40.9821C17.9437 40.7853 17.96 40.5945 17.9783 40.413C17.9969 40.1617 18.0299 39.9115 18.0771 39.6639C18.0381 39.8892 18.005 40.141 17.9783 40.413C17.9615 40.5847 17.9452 40.7765 17.9289 40.9821C17.8538 42.015 17.8345 43.2318 17.84 44.3267C17.8543 44.2637 17.8686 44.1988 17.8825 44.1299C17.9151 43.4482 18.0208 41.3156 18.1364 39.8705C18.1507 39.6738 18.167 39.4829 18.1858 39.3009C18.2044 39.0497 18.2374 38.7998 18.2846 38.5523C18.2455 38.7776 18.2124 39.0294 18.1858 39.3009C18.169 39.4731 18.1527 39.6644 18.1364 39.8705C18.0667 40.8198 18.0455 41.924 18.046 42.947C18.2527 40.2518 18.7233 37.5832 19.4509 34.979C20.4048 31.9261 20.5559 26.9742 20.6093 24.4638C20.6225 22.2106 20.8143 19.9619 21.1828 17.7387C21.9668 16.0084 25.3052 15.7797 25.3052 15.7797C23.0911 16.2292 22.193 17.4249 22.193 17.4249C21.9885 17.7736 20.6616 19.9196 21.8897 24.2287C23.7634 30.8121 24.495 31.6236 25.2889 36.6774C25.5907 38.5956 23.5979 43.3562 24.3088 44.6542C25.0572 46.0211 27.5271 51.0193 28.6406 55.2251C28.5078 55.6756 28.4336 56.1413 28.4198 56.6106C28.2979 56.7005 28.1766 56.7918 28.0557 56.8846L27.7099 56.0893L27.7183 56.0701L27.7079 56.0853L27.6175 55.8763L27.6669 56.1448L27.1843 56.8438C27.1165 56.7411 27.0475 56.6405 26.9773 56.5418C27.363 55.8725 27.8297 55.2529 28.3669 54.6968C27.7138 55.0822 27.1653 55.6209 26.7693 56.2658C26.6451 56.1074 26.5096 55.9582 26.3638 55.8192C26.4566 55.5807 26.5614 55.3397 26.6799 55.0992C26.4997 55.2755 26.3455 55.4763 26.222 55.6958C26.1726 55.6555 26.1232 55.6195 26.0738 55.5866C26.2128 55.4526 26.3594 55.3266 26.513 55.2093C25.9104 55.3985 25.39 55.7853 25.0364 56.3067C24.9122 55.9773 24.7317 55.6717 24.5029 55.4036C24.6545 55.7649 24.778 56.1371 24.8724 56.5172C24.7623 56.6647 24.6565 56.8123 24.5568 56.9648C24.4039 56.689 24.1718 56.4648 23.8904 56.3209C24.1001 56.5851 24.2769 56.8736 24.417 57.1802C24.3434 57.2963 24.2737 57.4114 24.208 57.5245C24.0698 57.2985 23.8925 57.0987 23.6844 56.9343C23.6288 56.1417 23.7408 55.3463 24.0129 54.5995C23.344 55.0264 23.2689 56.6278 23.3114 57.8078L22.5151 55.9727L22.6554 56.737C22.5418 57.0122 22.484 57.3071 22.4855 57.6047C22.4647 57.5678 22.443 57.5309 22.4217 57.494C22.44 57.4817 22.4583 57.4689 22.4776 57.4571C22.4538 57.4571 22.4306 57.4645 22.4069 57.4684C22.0508 56.77 21.5509 56.1541 20.9398 55.6609C21.4349 56.2299 21.8543 56.86 22.1876 57.5358C22.0905 57.5796 21.9989 57.6344 21.9144 57.6991L21.5953 57.0474L21.7618 57.8245L21.7474 57.8383C21.5093 57.6681 21.2638 57.5033 21.0282 57.3627C20.9674 57.2918 20.9067 57.2215 20.8454 57.1536C20.8587 57.1108 20.8736 57.068 20.8909 57.0262C20.8546 57.045 20.8213 57.0691 20.7921 57.0976C20.4735 56.7068 20.0612 56.4023 19.5931 56.2122C19.9157 56.4727 20.2134 56.7623 20.4823 57.0774C20.3761 57.0301 20.2656 56.9931 20.1523 56.9667C20.306 57.0459 20.4542 57.13 20.5969 57.2161C20.6182 57.2417 20.6394 57.2653 20.6597 57.2923C20.5606 57.5764 20.5211 57.8778 20.5436 58.1777C20.4137 58.097 20.2803 58.0173 20.1454 57.9386L20.0521 57.7729C20.1943 57.6273 20.3537 57.4995 20.5268 57.3922C20.2576 57.4329 20.009 57.5596 19.8184 57.7532C19.504 57.5782 19.1791 57.4223 18.8457 57.2864C18.8667 57.1753 18.8983 57.0664 18.9401 56.9613C18.8332 57.0216 18.7513 57.1176 18.7089 57.2323C18.4281 57.1177 18.1293 57.053 17.8261 57.041C18.1091 57.1413 18.3866 57.2563 18.6575 57.3853C18.6006 57.6344 18.5794 57.8902 18.5943 58.1452L18.577 58.1403L18.5948 58.1491V58.159C18.529 58.1829 18.4663 58.2146 18.4081 58.2534L18.0623 57.6386L18.2702 58.3641C18.2163 58.4148 18.1667 58.4699 18.122 58.5288C17.8437 58.0917 17.4848 57.7109 17.0644 57.4064C17.4438 57.7757 17.7707 58.1948 18.0361 58.6523C18.0045 58.7015 17.9763 58.7507 17.9501 58.7999C17.7703 58.6769 17.5727 58.547 17.3781 58.4305H17.3746L17.3692 58.4275C17.3265 58.2974 17.3138 58.1594 17.3321 58.0237C17.2307 58.0897 17.1782 58.2092 17.1983 58.3282C17.0201 58.2203 16.8293 58.1346 16.6302 58.0729C16.8362 58.1742 17.0313 58.2854 17.2111 58.3965C17.2151 58.4221 17.2205 58.4487 17.2264 58.4757C17.1265 58.5182 17.0346 58.5774 16.9547 58.6508L16.7784 58.5111L16.9187 58.6867C16.8619 58.7431 16.81 58.8041 16.7636 58.8692C16.5234 58.7161 16.2665 58.5907 15.9979 58.4954C15.9939 58.4389 15.9964 58.3821 16.0053 58.3262C15.8255 58.4295 15.8482 58.6784 15.9416 58.9415C15.8671 58.9273 15.7919 58.9176 15.7163 58.9125C15.7958 58.9292 15.8734 58.9474 15.9504 58.9666C16.0028 59.1041 16.0649 59.2377 16.1362 59.3665L15.4446 58.8151L15.9475 59.4447L15.8615 59.457C15.4741 59.1661 15.0443 58.9358 14.587 58.7743C14.9919 58.9625 15.3722 59.1991 15.7198 59.4786L15.5602 59.5032C15.1783 59.3679 14.7835 59.2718 14.382 59.2165C14.7441 59.2952 15.1008 59.3966 15.45 59.5199C13.0255 59.8937 11.6759 60.1918 11.6957 60.2946C11.7481 60.7373 28.7878 58.6011 49.8728 58.642C70.9558 58.6011 87.998 60.7392 88.0504 60.2946C88.0741 60.1716 86.1505 59.7713 82.7805 59.2981ZM82.4223 45.6143C82.8429 45.7757 83.2058 46.0579 83.4652 46.4249C83.6407 46.8307 83.6948 47.2784 83.6208 47.714C83.5467 48.1497 82.7128 47.5542 82.4223 47.0294C82.2645 46.5701 82.2645 46.0716 82.4223 45.6124V45.6143ZM82.036 56.5098L82.3324 55.9294C82.3681 55.8597 82.4299 55.8068 82.5043 55.7819C82.7137 55.6908 82.9584 55.7513 83.1006 55.9294C83.3323 56.2432 83.6069 56.3721 83.4207 56.7301C83.3801 56.8093 83.3059 56.866 83.2187 56.8846L82.5009 57.0415C82.3746 57.0689 82.245 57.0126 82.1793 56.9018L82.043 56.798C81.9897 56.7093 81.9866 56.5995 82.0346 56.5078L82.036 56.5098ZM16.5037 59.3625L16.3916 59.3793C16.3063 59.2664 16.2301 59.147 16.1639 59.0222C16.3185 59.0645 16.4642 59.1087 16.5961 59.152C16.5595 59.2258 16.5314 59.2981 16.5037 59.362V59.3625ZM16.6154 59.1127C16.4553 59.0635 16.2938 59.0202 16.1446 58.9853C16.0656 58.8373 16.0153 58.6757 15.9964 58.5092C16.2478 58.6312 16.4898 58.7714 16.7206 58.9287C16.6822 58.9879 16.6471 59.0492 16.6154 59.1122V59.1127ZM17.0106 58.8008L17.2215 59.065C17.19 59.0769 17.1593 59.0909 17.1296 59.1068C17.0609 59.06 16.9898 59.0118 16.9147 58.9636C16.9427 58.9071 16.9746 58.8526 17.0101 58.8003L17.0106 58.8008ZM16.8624 59.3114L16.7932 59.3212C16.7986 59.2917 16.8055 59.2597 16.8144 59.2268L16.9132 59.2622C16.8964 59.2779 16.8796 59.2942 16.8633 59.3109L16.8624 59.3114ZM16.9612 59.2204L16.8298 59.1781C16.8438 59.1312 16.8603 59.0851 16.8792 59.0399C16.9389 59.0837 16.9918 59.1245 17.0382 59.1619C17.0115 59.1801 16.9854 59.1997 16.9607 59.2199L16.9612 59.2204ZM17.1242 59.2745L17.0461 59.2484C17.0605 59.2342 17.0748 59.2194 17.0906 59.2051L17.1657 59.2686L17.1242 59.2745ZM17.3277 59.2465C17.2783 59.2115 17.2289 59.1751 17.1731 59.1373C17.1943 59.1205 17.2161 59.1043 17.2403 59.0881L17.3623 59.241L17.3277 59.2465ZM17.059 58.7349C17.1137 58.6636 17.1753 58.5978 17.2427 58.5382C17.2995 58.7197 17.3754 58.8948 17.469 59.0605L17.059 58.7349ZM17.8 59.1678C17.6384 58.9732 17.5072 58.7555 17.4107 58.522C17.6083 58.6513 17.7782 58.7758 17.9155 58.881C17.8708 58.9742 17.8312 59.0698 17.797 59.1673L17.8 59.1678ZM18.1176 59.0964C18.1176 59.0812 18.122 59.0645 18.1245 59.0473L18.1457 59.0645C18.1334 59.0748 18.1235 59.0851 18.1146 59.0959L18.1176 59.0964ZM18.1487 58.9336C18.1532 58.9145 18.1591 58.8948 18.165 58.8746C18.1858 58.9154 18.2045 58.9528 18.2194 58.9838L18.1487 58.9336ZM18.2376 58.6877C18.2627 58.634 18.2914 58.5821 18.3236 58.5323L18.4105 58.8353C18.3927 58.8466 18.375 58.8574 18.3582 58.8697C18.3177 58.8097 18.2772 58.7487 18.2347 58.6857L18.2376 58.6877ZM18.3972 58.9307C18.4076 58.9204 18.4179 58.91 18.4288 58.9002L18.4678 59.0355C18.4402 59.003 18.4179 58.9651 18.3942 58.9287L18.3972 58.9307ZM18.4668 59.0404L18.4698 59.0497L18.4668 59.0404ZM18.4668 58.3464C18.5095 58.3 18.555 58.2563 18.6032 58.2155C18.6106 58.3665 18.6239 58.5161 18.6407 58.6548L18.4668 58.3464ZM20.0422 57.7906L20.0718 57.8934L19.9883 57.8442C20.0027 57.8255 20.0209 57.8073 20.0387 57.7886L20.0422 57.7906ZM19.8337 58.0316C19.9528 58.1073 20.0674 58.1826 20.176 58.2569L20.2645 58.5662C20.1731 58.5313 20.0832 58.4993 19.9957 58.4713C20.0614 58.4278 20.1295 58.3883 20.1998 58.3528C20.1143 58.3621 20.0308 58.3852 19.9528 58.4211C19.8861 58.3311 19.8164 58.2411 19.7448 58.1531C19.77 58.1108 19.7996 58.0685 19.8308 58.0296L19.8337 58.0316ZM19.8056 58.4167C19.7364 58.3995 19.6697 58.3852 19.608 58.3749C19.6327 58.3316 19.6574 58.2878 19.6865 58.2436C19.725 58.3011 19.765 58.3587 19.8026 58.4128L19.8056 58.4167ZM19.809 58.4969C19.7319 58.544 19.6583 58.5966 19.5887 58.6543L19.4899 58.5933C19.5166 58.5372 19.5462 58.4787 19.5798 58.4177C19.6564 58.4408 19.7315 58.4674 19.806 58.4949L19.809 58.4969ZM19.6534 57.9209C19.6351 57.9411 19.6159 57.9612 19.5976 57.9819C19.5299 57.9052 19.4608 57.8344 19.3916 57.7655C19.4812 57.8166 19.5684 57.8685 19.6534 57.9209ZM18.9796 58.8869C18.9209 58.687 18.8757 58.4834 18.8442 58.2775C18.9737 58.3488 19.0977 58.4216 19.2143 58.4949C19.1214 58.6375 19.0413 58.7733 18.9796 58.8859V58.8869ZM18.8383 58.2318C18.8007 57.9765 18.7949 57.7177 18.821 57.461C18.9524 57.526 19.0804 57.5933 19.2054 57.6617C19.3284 57.793 19.44 57.9239 19.5393 58.0513C19.4348 58.1771 19.3371 58.3084 19.2468 58.4447C19.1145 58.3664 18.9781 58.295 18.8383 58.2308V58.2318ZM19.4603 58.6562C19.483 58.672 19.5062 58.6872 19.5284 58.703C19.479 58.7458 19.4296 58.7895 19.3871 58.8343C19.4069 58.7807 19.4311 58.7202 19.4603 58.6553V58.6562ZM19.4667 58.9661C19.517 58.8987 19.5713 58.8343 19.6292 58.7733L19.6974 58.8225C19.6142 58.8528 19.5388 58.901 19.4766 58.9636L19.4667 58.9661ZM19.6238 58.9464C19.6627 58.9148 19.7035 58.8854 19.7458 58.8584L19.8288 58.9209L19.6238 58.9464ZM19.9612 58.9051C19.9167 58.8741 19.8708 58.8426 19.8238 58.8112C19.8298 58.8077 19.8342 58.8043 19.8401 58.8013C19.8304 58.8008 19.8207 58.8008 19.811 58.8013L19.6845 58.7167C19.7479 58.6551 19.8152 58.5976 19.8861 58.5446C19.9681 58.6749 20.0343 58.7905 20.0837 58.8889L19.9612 58.9051ZM20.2625 58.8682C20.2072 58.7846 20.1474 58.6961 20.0837 58.6051C20.1578 58.6359 20.2299 58.6675 20.3 58.7L20.3455 58.8584L20.2625 58.8682ZM20.5727 58.6926L20.4275 58.4349L20.5688 58.5377C20.5737 58.5923 20.5791 58.6459 20.5851 58.698L20.5727 58.6926ZM20.8864 58.7944L20.8825 58.7787L20.9002 58.7925L20.8864 58.7944ZM21.1566 58.5711C21.0404 58.4934 20.9192 58.4142 20.793 58.3336C20.7462 58.0406 20.7422 57.7424 20.7812 57.4482C20.9865 57.719 21.176 58.0013 21.3488 58.2937C21.2796 58.3857 21.2154 58.4792 21.1566 58.5702V58.5711ZM21.5335 58.7187L21.4041 58.7335C21.4298 58.6749 21.4599 58.612 21.494 58.5461C21.5212 58.5952 21.5469 58.6444 21.5706 58.6892C21.5582 58.699 21.5459 58.7079 21.5335 58.7187V58.7187ZM21.5558 58.036C21.4639 57.9091 21.3676 57.7817 21.2688 57.6553C21.4026 57.7507 21.5291 57.8452 21.6472 57.9372C21.616 57.9701 21.5854 58.0026 21.5558 58.036V58.036ZM21.8754 58.4954C21.8156 58.4064 21.7534 58.3149 21.6882 58.2219C21.7242 58.1688 21.7637 58.1157 21.8057 58.0626L21.8161 58.0714L21.904 58.4821L21.8754 58.4954ZM21.9139 58.5525L21.9184 58.5495L21.9218 58.5638L21.9139 58.5525ZM22.3704 58.6252L22.3032 58.4885C22.355 58.5352 22.402 58.5785 22.443 58.6174L22.3704 58.6252ZM22.1164 58.1078L21.991 57.8511C22.0675 57.7717 22.149 57.6973 22.235 57.6283C22.3461 57.8585 22.4326 58.064 22.5013 58.2332C22.5057 58.2952 22.5102 58.3562 22.5161 58.4167C22.3921 58.3183 22.2577 58.216 22.1164 58.1078V58.1078ZM22.9888 58.5584C22.9039 58.3847 22.8026 58.185 22.6895 57.9731C22.6502 57.6254 22.6502 57.2745 22.6895 56.9269L22.9888 58.5584ZM23.6873 56.9712C23.8141 57.1431 23.9296 57.323 24.0331 57.5097C23.9321 57.5697 23.839 57.6421 23.756 57.7252C23.7269 57.5009 23.7012 57.2451 23.6873 56.9712V56.9712ZM23.8355 58.2008C23.8163 58.098 23.7955 57.979 23.7763 57.8481C23.8622 57.7397 23.9539 57.6359 24.0509 57.5373C24.0761 57.5825 24.1003 57.6278 24.123 57.6725C24.0124 57.8658 23.9156 58.0454 23.8345 58.2018L23.8355 58.2008ZM27.6748 56.1744L27.8369 57.0567C27.7193 57.1492 27.604 57.2417 27.4911 57.3341C27.4298 57.2295 27.3666 57.1253 27.3014 57.0213L27.6748 56.1744ZM24.5014 58.0434C24.538 57.945 24.5819 57.8388 24.6328 57.7217C24.6477 57.767 24.6625 57.8122 24.6758 57.8565C24.6165 57.9194 24.5587 57.9829 24.5034 58.0468L24.5014 58.0434ZM24.6146 58.2829C24.6541 58.2244 24.6971 58.1634 24.744 58.1009C24.7489 58.1186 24.7539 58.1373 24.7583 58.155C24.7092 58.1984 24.6629 58.2447 24.6195 58.2937L24.6146 58.2829ZM24.7213 58.3813C24.744 58.3552 24.7677 58.3292 24.7929 58.3031C24.7983 58.3267 24.8028 58.3493 24.8077 58.3724L24.7213 58.3813ZM24.7889 57.3848C24.8469 57.2677 24.9111 57.1464 24.9816 57.0208C25.0112 57.1831 25.0349 57.341 25.0537 57.4935C25.0018 57.5378 24.9505 57.5835 24.8996 57.6312C24.864 57.5473 24.8268 57.465 24.7879 57.3843L24.7889 57.3848ZM24.9747 57.8166C25.0078 57.7788 25.0404 57.7409 25.0735 57.703C25.0814 57.7901 25.0888 57.8752 25.0942 57.9578C25.0735 57.9637 25.0527 57.9696 25.032 57.9775C25.0142 57.9234 24.9939 57.8717 24.9737 57.8162L24.9747 57.8166ZM25.0636 58.0577L25.1001 58.0286C25.1031 58.0827 25.1071 58.1383 25.1085 58.19C25.0932 58.1457 25.0774 58.1014 25.0626 58.0572L25.0636 58.0577ZM25.4454 57.8496C25.4222 57.7079 25.396 57.5653 25.3659 57.4237C25.442 57.3563 25.522 57.2899 25.607 57.2269C25.5467 57.4291 25.4929 57.6406 25.4445 57.8491L25.4454 57.8496ZM25.6475 57.0897L25.6396 57.1158C25.5328 57.1603 25.4307 57.2153 25.3348 57.28C25.2893 57.0803 25.236 56.8841 25.1772 56.6942C25.4305 56.2942 25.7299 55.9251 26.0694 55.5945C26.1128 55.6436 26.1553 55.6928 26.1963 55.742C25.9759 56.1475 25.7991 56.575 25.6687 57.0174C25.5373 56.9535 25.3994 56.904 25.2572 56.8698C25.3896 56.9416 25.522 57.0149 25.6465 57.0892L25.6475 57.0897ZM25.8248 57.8521C25.855 57.6642 25.892 57.4679 25.936 57.2658L26.0886 57.3641C25.9953 57.5274 25.9068 57.6927 25.8238 57.8516L25.8248 57.8521ZM25.9577 57.1669C26.0546 56.7412 26.1799 56.3223 26.3327 55.9132C26.4586 56.0745 26.5767 56.2353 26.6839 56.3947C26.4912 56.6805 26.3094 56.978 26.1405 57.2727C26.0787 57.2353 26.016 57.1999 25.9567 57.1664L25.9577 57.1669ZM26.224 58.2372L26.18 58.2416C26.2487 58.0537 26.3331 57.8403 26.4369 57.6061C26.4863 57.643 26.5357 57.6794 26.5851 57.7158L26.224 58.2372ZM26.4888 57.492C26.6009 57.2461 26.7313 56.9825 26.8839 56.7051C26.9487 56.8103 27.0104 56.9136 27.0672 57.0144L26.6587 57.6047C26.6014 57.5678 26.5446 57.5274 26.4878 57.4915L26.4888 57.492ZM27.1976 57.255C27.2381 57.3327 27.2767 57.4079 27.3127 57.4817C27.1957 57.5801 27.0806 57.675 26.9699 57.7689L27.1976 57.255ZM27.3789 58.1339L27.2673 58.0478C27.3331 57.9822 27.404 57.9127 27.4797 57.8393C27.5232 57.9376 27.5617 58.0295 27.5953 58.1147L27.3789 58.1339ZM27.8705 58.0247C27.8089 57.9057 27.743 57.7827 27.6729 57.6558C27.7479 57.586 27.8262 57.5142 27.9075 57.4404L27.9979 57.9352L27.8705 58.0247ZM28.3956 57.6637L28.1896 57.1895C28.2607 57.1282 28.3336 57.0661 28.4084 57.0031C28.4049 57.2254 28.4084 57.4458 28.4148 57.6509L28.3956 57.6637ZM28.8095 55.8576C28.8461 55.9973 28.8816 56.1316 28.9152 56.2604C28.8708 56.2909 28.8268 56.3204 28.7824 56.3514C28.7824 56.1891 28.7932 56.0238 28.8085 55.8551L28.8095 55.8576ZM28.7838 56.6962C28.8497 56.6434 28.9177 56.5905 28.9879 56.5373C29.0537 56.7816 29.1107 56.9997 29.1588 57.1915C29.0501 57.2535 28.9404 57.3179 28.8313 57.3853C28.8071 57.1723 28.7898 56.9402 28.7824 56.6957L28.7838 56.6962ZM28.9958 57.9976L28.9197 58.0035C28.8965 57.8727 28.8728 57.7222 28.8515 57.556C28.9607 57.4807 29.0758 57.4055 29.1973 57.3297C29.2171 57.405 29.2349 57.4773 29.2516 57.5387C29.1543 57.7016 29.0689 57.857 28.9948 57.9972L28.9958 57.9976ZM31.0932 57.8363H31.1041H31.0932ZM31.7587 57.3892C31.7093 57.1015 31.6519 56.8113 31.5769 56.5305C31.6928 56.618 31.8041 56.7074 31.9108 56.7985C31.8545 56.9933 31.8036 57.1915 31.7577 57.3887L31.7587 57.3892ZM32.138 57.3892C32.1553 57.28 32.1756 57.1674 32.1973 57.0528C32.2245 57.0784 32.2512 57.102 32.2768 57.1285C32.2284 57.2186 32.1815 57.3056 32.137 57.3912L32.138 57.3892ZM32.2398 56.8482C32.3426 56.3629 32.4822 55.8861 32.6572 55.4218C32.7471 55.6486 32.8262 55.8719 32.8958 56.0878C32.7086 56.3745 32.5327 56.6701 32.3712 56.9603C32.3262 56.9225 32.2828 56.888 32.2403 56.8497L32.2398 56.8482ZM32.5673 57.7335L32.509 57.7375C32.5397 57.6543 32.5752 57.5648 32.6123 57.4723C32.6389 57.5004 32.6646 57.5284 32.6898 57.5565L32.5673 57.7335ZM32.8202 57.3676C32.7812 57.3307 32.7422 57.2938 32.7022 57.2569C32.796 57.038 32.9062 56.801 33.0351 56.5516C33.0707 56.679 33.1018 56.801 33.1305 56.9185L32.8202 57.3676ZM33.209 56.2275C33.3478 55.9816 33.5054 55.7248 33.6803 55.4676L33.6872 55.8025L33.662 55.7971L33.6877 55.8124L33.6936 56.104L33.3424 56.6121C33.2992 56.4839 33.2545 56.3555 33.208 56.227L33.209 56.2275ZM33.4476 56.9367L33.699 56.3681L33.7114 56.9505C33.6417 57.008 33.5721 57.0651 33.5044 57.1217C33.4851 57.0602 33.4664 56.9987 33.4466 56.9372L33.4476 56.9367ZM33.661 57.6632C33.6501 57.6229 33.6388 57.5825 33.6269 57.5407C33.6571 57.5107 33.6902 57.4792 33.7223 57.4482L33.7267 57.6593L33.661 57.6632ZM34.2247 56.5388L34.155 56.5939L34.031 56.0307C34.1097 56.0842 34.1863 56.1393 34.2607 56.196C34.2472 56.3117 34.2349 56.4259 34.2237 56.5383L34.2247 56.5388ZM34.278 56.047C34.1894 55.9932 34.0975 55.9449 34.0029 55.9024L33.9702 55.7548L34.0345 55.6102L33.9618 55.7155L33.8532 55.2236C34.0656 54.9324 34.2953 54.654 34.5408 54.3899C34.4267 54.9285 34.3412 55.502 34.277 56.0475L34.278 56.047ZM34.73 57.1886L34.6895 57.2151C34.6851 57.0307 34.6831 56.8147 34.6895 56.5708L34.7058 56.557C34.7858 56.6278 34.8634 56.6987 34.9375 56.7695C34.8584 56.9175 34.7918 57.0582 34.729 57.189L34.73 57.1886ZM34.6999 56.1763C34.7216 55.6446 34.7711 55.1143 34.8481 54.5876L35.141 55.8606C34.9928 55.9632 34.8454 56.0686 34.6989 56.1768L34.6999 56.1763ZM35.0224 56.5964C34.9612 56.5442 34.8999 56.4931 34.8382 56.4439C34.9563 56.3455 35.0802 56.2472 35.2067 56.1488L35.221 56.2112C35.1514 56.3436 35.0842 56.4724 35.0215 56.5969L35.0224 56.5964ZM35.4384 57.374C35.4473 57.3577 35.4581 57.34 35.4675 57.3248L35.471 57.3282C35.4591 57.3435 35.4478 57.3587 35.4374 57.3745L35.4384 57.374ZM35.4853 57.5545C35.4957 57.5383 35.5075 57.5215 35.5184 57.5053L35.5293 57.5545H35.4853ZM37.2054 54.1819C37.1725 54.033 37.1395 53.8854 37.1066 53.7392C37.2054 53.6015 37.3042 53.4643 37.4074 53.329C37.3284 53.598 37.2637 53.8877 37.2044 54.1829L37.2054 54.1819ZM37.7083 56.2717C37.6273 55.9491 37.5413 55.6028 37.4553 55.2457C37.6208 55.4641 37.7705 55.6815 37.9029 55.8935C37.8337 56.0238 37.7695 56.1503 37.7073 56.2722L37.7083 56.2717ZM38.0496 57.4251C38.0679 57.3937 38.0877 57.3607 38.1084 57.3268C38.1455 57.3577 38.18 57.3878 38.2146 57.4173L38.0496 57.4251ZM38.3589 56.2742L38.2907 56.167C38.4033 55.8984 38.5377 55.5954 38.6982 55.2723L38.7847 55.7455C38.639 55.9107 38.4962 56.0902 38.3579 56.2747L38.3589 56.2742ZM38.8262 55.9717L38.8929 56.3367C38.7547 56.3767 38.6293 56.4516 38.5288 56.5541C38.512 56.5255 38.4947 56.497 38.4794 56.4685C38.5821 56.3076 38.6982 56.1409 38.8252 55.9722L38.8262 55.9717ZM38.3426 56.6795L38.3653 56.7257C38.28 56.8267 38.2005 56.9325 38.1272 57.0425C38.1899 56.9298 38.2635 56.8069 38.3416 56.68L38.3426 56.6795ZM38.1089 56.619C38.1356 56.5496 38.1647 56.4749 38.1963 56.3972L38.2265 56.4537C38.186 56.5093 38.1464 56.5644 38.1079 56.6195L38.1089 56.619ZM38.474 57.4059C38.3845 57.3361 38.2902 57.2648 38.1939 57.1925C38.2635 57.0872 38.3421 56.9756 38.4305 56.8615C38.5263 57.0646 38.6034 57.2471 38.6627 57.3981L38.474 57.4059ZM38.9833 57.3843C38.8691 57.161 38.7363 56.9156 38.5925 56.6642C38.6849 56.5575 38.7852 56.4508 38.8948 56.346L39.0845 57.3789L38.9833 57.3843ZM39.4654 56.9485L38.964 55.7932C39.1419 55.569 39.3329 55.3555 39.536 55.1538C39.4604 55.749 39.4364 56.3497 39.4644 56.949L39.4654 56.9485ZM39.9871 57.342C39.8477 56.6226 39.8024 55.8882 39.8522 55.1572C40.1227 55.5305 40.3585 55.9276 40.5566 56.3436C40.3254 56.7105 40.1308 57.0641 39.9861 57.3435L39.9871 57.342ZM40.6485 57.1945C40.686 57.0961 40.7325 56.9815 40.7853 56.8595C40.8036 56.9043 40.8209 56.9471 40.8347 56.9879C40.771 57.0558 40.7078 57.1251 40.6475 57.1945H40.6485ZM40.892 57.312H40.8426C40.8669 57.2781 40.892 57.2436 40.9192 57.2082L40.94 57.2677C40.9227 57.2815 40.9069 57.2977 40.8911 57.312H40.892ZM41.1045 57.0346L41.0882 57.0002L41.1138 56.9712C41.1099 56.9923 41.1069 57.0154 41.1035 57.0356L41.1045 57.0346ZM41.1509 56.6819C41.1015 56.7267 41.0521 56.7734 41.0027 56.8216C40.9698 56.7561 40.9352 56.6877 40.899 56.6165C40.9849 56.4365 41.0857 56.2427 41.2037 56.0425C41.1889 56.2835 41.1707 56.499 41.1499 56.6819H41.1509ZM41.43 57.223C41.4384 57.0454 41.4448 56.8423 41.4478 56.6264C41.5179 56.5614 41.5925 56.498 41.6706 56.4355L41.43 57.223ZM41.4493 56.4454C41.4493 56.1994 41.4458 55.9378 41.4335 55.6761C41.6505 55.3536 41.8987 55.053 42.1744 54.7785L41.7131 56.2894C41.6208 56.3344 41.5323 56.3866 41.4483 56.4454H41.4493ZM42.1107 56.5054L42.1572 55.9791C42.2095 56.0076 42.2609 56.0371 42.3118 56.0666C42.2401 56.2171 42.173 56.3647 42.1097 56.5064L42.1107 56.5054ZM42.3953 57.0494C42.4575 56.8413 42.5435 56.5757 42.6556 56.2767C42.6956 56.3027 42.7341 56.3293 42.7732 56.3559C42.7974 56.4542 42.8181 56.5526 42.8354 56.6475C42.6724 56.7926 42.5237 56.9289 42.3943 57.0503L42.3953 57.0494ZM42.6916 56.1822L42.7124 56.1276L42.7346 56.2063L42.6916 56.1822ZM42.9416 56.3298C42.899 56.1938 42.8496 56.06 42.7934 55.9289C42.8616 55.7617 42.9372 55.5881 43.0207 55.4095C43.1145 55.7063 43.1798 56.0113 43.2158 56.3204C43.1738 56.3558 43.1328 56.3908 43.0928 56.4257C43.0404 56.3908 42.9905 56.3588 42.9406 56.3283L42.9416 56.3298ZM43.2528 57.2412H43.2499H43.1866L43.2543 57.192L43.2528 57.2412ZM43.1219 57.0351L43.119 57.0208C43.1609 56.9716 43.2064 56.9225 43.2548 56.8733C43.2548 56.8993 43.2548 56.9264 43.2548 56.952C43.2103 56.9775 43.1654 57.0056 43.1209 57.0356L43.1219 57.0351ZM43.606 56.7493L43.5744 56.7665C43.5655 56.7016 43.5566 56.6367 43.5463 56.5698C43.5784 56.5378 43.6095 56.5064 43.6451 56.4739C43.6312 56.5683 43.6189 56.6593 43.605 56.7479L43.606 56.7493ZM43.69 55.9309C43.6116 55.9929 43.5346 56.055 43.4588 56.1173C43.3924 55.7967 43.2785 55.4877 43.1209 55.2005C43.1797 55.0815 43.241 54.9615 43.3067 54.8405C43.4514 55.0574 43.5808 55.2748 43.6979 55.4887C43.6979 55.6387 43.6959 55.7873 43.689 55.9294L43.69 55.9309ZM43.3625 54.7406C43.4386 54.6042 43.5191 54.4683 43.6041 54.3329C43.647 54.6048 43.6754 54.8788 43.689 55.1538C43.5888 55.0088 43.4794 54.8703 43.3615 54.7391L43.3625 54.7406ZM44.0121 56.5487L43.9869 56.56C43.9918 56.4232 43.9933 56.2855 43.9923 56.1478L44.016 56.1271C44.0486 56.1999 44.0803 56.2712 44.1099 56.3416C44.0758 56.409 44.0427 56.4778 44.0111 56.5472L44.0121 56.5487ZM44.2398 56.0804C44.222 56.046 44.2033 56.0125 44.1855 55.9781C44.2492 55.9235 44.3144 55.8684 44.3831 55.8138C44.3322 55.8999 44.2853 55.9889 44.2388 56.0789L44.2398 56.0804ZM44.469 56.5457C44.4621 56.5305 44.4547 56.5152 44.4473 56.5C44.4789 56.4867 44.509 56.4719 44.5407 56.4591L44.469 56.5457ZM44.4735 56.3849C44.5496 56.1989 44.6345 56.0071 44.7284 55.8128L44.7714 56.1896C44.7233 56.244 44.6762 56.2986 44.6301 56.3534C44.5787 56.3598 44.5263 56.3696 44.4725 56.3834L44.4735 56.3849ZM44.716 57.0956L44.6898 57.0341C44.7366 56.96 44.7872 56.8823 44.8415 56.801L44.8593 56.9579L44.716 57.0956ZM45.3138 56.5201L45.2876 56.5452C45.2634 56.5191 45.2382 56.4936 45.2135 56.4695L45.1685 56.3381C45.2179 56.2693 45.2742 56.1989 45.3301 56.1281C45.3222 56.2594 45.3167 56.3908 45.3128 56.5187L45.3138 56.5201ZM45.3715 55.5404C45.3221 55.5895 45.2767 55.6387 45.2303 55.6879C45.1921 55.6689 45.1526 55.6525 45.1122 55.6387C45.1399 55.6687 45.1651 55.6997 45.1917 55.7297C45.1341 55.7907 45.0771 55.8519 45.0208 55.9132L44.882 55.5104C44.9037 55.4695 44.9255 55.4282 44.9482 55.3869C45.101 55.2787 45.2596 55.1741 45.4239 55.0731C45.4022 55.2236 45.3854 55.381 45.3706 55.5389L45.3715 55.5404ZM45.4664 54.7864C45.3883 54.8214 45.3093 54.8595 45.2293 54.9005C45.3241 54.7475 45.4239 54.595 45.5316 54.4435C45.5069 54.5544 45.4848 54.6681 45.4654 54.7849L45.4664 54.7864ZM45.7406 55.6368C45.8147 55.5531 45.8888 55.469 45.9713 55.3849C46.0197 55.5108 46.064 55.6356 46.1041 55.7592L45.7425 56.1075C45.7376 55.9535 45.7366 55.7981 45.7396 55.6353L45.7406 55.6368ZM45.7608 55.1656C45.7658 55.0888 45.7722 55.0111 45.7791 54.9329C45.8023 54.9821 45.8285 55.0342 45.8487 55.0849C45.8181 55.1095 45.789 55.137 45.7598 55.1666L45.7608 55.1656ZM45.7717 56.6751C45.7717 56.6436 45.7667 56.6131 45.7643 56.5806C45.7776 56.6067 45.7909 56.6323 45.8033 56.6578L45.7717 56.6751ZM45.8211 57.1669C45.8211 57.1482 45.8166 57.1266 45.8142 57.1069L45.8695 57.071C45.8497 57.1005 45.8339 57.134 45.8181 57.164L45.8211 57.1669ZM46.1975 56.4518L46.0281 56.5403C45.9787 56.4567 45.9263 56.376 45.8725 56.2993L46.1511 55.9058C46.1945 56.0494 46.2331 56.1896 46.2667 56.3273C46.24 56.3662 46.2173 56.4075 46.1945 56.4488L46.1975 56.4518ZM46.3171 55.6722L46.5724 55.3112L46.2805 55.5925C46.2248 55.4745 46.1652 55.3615 46.1017 55.2536C46.3965 54.9534 46.7108 54.673 47.0427 54.414C47.1326 54.5232 47.2186 54.6349 47.3006 54.7475C46.9913 55.1472 46.7085 55.5665 46.4539 56.0027C46.4084 55.8866 46.3625 55.7764 46.3141 55.6692L46.3171 55.6722ZM46.77 57.0528L46.7567 56.9977C46.7671 56.983 46.776 56.9687 46.7868 56.9534C46.7784 56.9835 46.7725 57.0169 46.7671 57.0498L46.77 57.0528ZM46.8634 56.5373C46.8041 56.6029 46.7462 56.6685 46.6895 56.7341C46.6772 56.6888 46.6643 56.6436 46.6515 56.5983L46.6569 56.586C46.729 56.5442 46.8017 56.5019 46.8772 56.4596C46.8703 56.4837 46.8654 56.5093 46.8624 56.5344L46.8634 56.5373ZM46.9696 56.0647L46.8753 56.1104C46.9291 56.0007 46.9864 55.8881 47.0487 55.772C47.018 55.8655 46.9913 55.9629 46.9666 56.0617L46.9696 56.0647ZM47.2112 56.889L47.1618 56.9082L47.1667 56.859C47.1959 56.8344 47.2255 56.8098 47.2566 56.7857C47.2379 56.8187 47.223 56.8521 47.2082 56.888L47.2112 56.889ZM47.2581 56.7828C47.2292 56.7856 47.2006 56.7909 47.1726 56.7985C47.1786 56.7429 47.1855 56.6864 47.1924 56.6293C47.229 56.65 47.265 56.6706 47.3001 56.6918C47.2833 56.7193 47.269 56.7498 47.2576 56.7798L47.2581 56.7828ZM47.2131 56.4744C47.2166 56.4518 47.2191 56.4301 47.2225 56.4075C47.3031 56.3175 47.388 56.2275 47.4794 56.1394C47.5189 56.1193 47.557 56.0991 47.5975 56.0789C47.5165 56.2363 47.4389 56.3947 47.3653 56.5511C47.3115 56.5211 47.2606 56.4946 47.2082 56.4714L47.2131 56.4744ZM47.3119 55.9058C47.3668 55.6314 47.435 55.349 47.5199 55.0613C47.6405 55.2438 47.7511 55.4267 47.8529 55.6068C47.8371 55.6343 47.8217 55.6623 47.8064 55.6899C47.6381 55.7568 47.4717 55.8283 47.307 55.9043L47.3119 55.9058ZM47.7017 57.1723H47.5975C47.6217 57.0951 47.6469 57.0139 47.677 56.9303C47.718 56.9579 47.7565 56.9859 47.7951 57.0135L47.7017 57.1723ZM47.8909 56.8531L47.8257 56.8128L47.9398 56.77L47.8909 56.8531ZM48.0391 56.6072C47.9482 56.6333 47.8568 56.6618 47.7635 56.6923C47.8455 56.469 47.9418 56.2294 48.0544 55.9786C48.1122 56.0917 48.1656 56.2014 48.2155 56.3086L48.0391 56.6072ZM48.4664 55.4361C48.4056 55.4577 48.3434 55.4813 48.2817 55.504C48.3192 55.4302 48.3577 55.3564 48.3987 55.2812C48.416 55.3294 48.4387 55.381 48.46 55.4326L48.4664 55.4361ZM48.417 55.2457C48.457 55.172 48.498 55.0982 48.5415 55.0239L48.6151 55.3864L48.54 55.4115C48.5011 55.3524 48.4584 55.2959 48.4121 55.2423L48.417 55.2457ZM48.5459 55.6427C48.5538 55.6643 48.5622 55.6864 48.5696 55.7081L48.3617 56.0593C48.3123 55.9693 48.2599 55.8792 48.2076 55.7902C48.3133 55.7366 48.4264 55.6879 48.542 55.6392L48.5459 55.6427ZM48.2876 56.8664L48.3666 56.6475L48.4091 56.7459L48.2876 56.8664ZM48.5652 57.1684L48.5716 57.161L48.5746 57.1684H48.5652ZM48.7183 56.4523C48.6754 56.4582 48.6309 56.4665 48.5864 56.4744C48.5558 56.4159 48.5242 56.3568 48.4926 56.2978L48.6344 55.9043C48.6877 56.0789 48.7297 56.2486 48.7623 56.409L48.7183 56.4523ZM48.6536 54.837C48.6806 54.7927 48.7083 54.7485 48.7366 54.7042C48.8043 54.8404 48.8642 54.9803 48.9159 55.1233L48.8315 55.2659L48.6536 54.837ZM48.8018 56.9003L48.8359 56.8625C48.8412 56.9097 48.8461 56.9554 48.8507 56.9997C48.8295 56.9638 48.8132 56.9303 48.7964 56.8969L48.8018 56.9003ZM48.8512 55.3121L48.9184 55.1267C48.9367 55.1759 48.955 55.229 48.9713 55.2797L48.8512 55.3121ZM48.9248 55.4887L49.0236 55.4508C49.0731 55.6331 49.112 55.818 49.1402 56.0047L48.9248 55.4887ZM49.159 55.228C49.0679 55.0178 48.9276 54.8323 48.75 54.687C48.8711 54.4971 49.0029 54.3078 49.1451 54.1189C49.1397 54.4844 49.1491 54.8611 49.1679 55.229L49.159 55.228ZM49.6411 55.6215L49.5853 55.6707C49.5665 55.5418 49.5487 55.4061 49.5319 55.2649L49.6426 55.228C49.6416 55.3605 49.6391 55.491 49.6352 55.6195L49.6411 55.6215ZM49.9375 55.8847C49.9375 55.8399 49.9375 55.7951 49.934 55.7509L49.9918 55.6973C49.9671 55.7568 49.9494 55.8212 49.9316 55.8827L49.9375 55.8847ZM50.7615 55.9279C50.7121 55.9579 50.6627 55.9879 50.6108 56.0199C50.6301 55.9707 50.6508 55.9215 50.6716 55.8724L50.7615 55.9279ZM50.7071 55.7858C50.8646 55.4176 51.0513 55.0625 51.2654 54.7239C51.3727 54.8682 51.4715 55.0115 51.5617 55.1538C51.3459 55.3589 51.1359 55.5772 50.9349 55.7986C50.9025 55.8169 50.872 55.8385 50.844 55.863C50.7936 55.834 50.7472 55.8084 50.7012 55.7838L50.7071 55.7858ZM50.4992 55.3712C50.5105 55.322 50.5229 55.2703 50.5357 55.2187C50.5772 55.1838 50.6187 55.1484 50.6612 55.1134C50.6004 55.1956 50.5461 55.2812 50.4932 55.3692L50.4992 55.3712ZM50.595 56.1847L50.5901 56.193L50.5076 56.2914L50.5293 56.2339C50.5451 56.2147 50.5673 56.1994 50.5891 56.1827L50.595 56.1847ZM50.5051 57.103C50.6967 56.7832 50.905 56.4735 51.129 56.1753C51.1952 56.2245 51.2599 56.2688 51.3227 56.3155L50.5051 57.103ZM51.2006 56.0804C51.3612 55.8719 51.54 55.654 51.7391 55.4326C51.8028 55.5384 51.8616 55.6417 51.9169 55.743L51.4175 56.224C51.3411 56.1748 51.2668 56.1263 51.1947 56.0784L51.2006 56.0804ZM52.6288 55.6309L52.6999 56.0243C52.6011 56.0735 52.5023 56.1227 52.4035 56.1719C52.3176 56.0194 52.2262 55.8645 52.1313 55.711L52.5176 55.1661L52.0636 55.6033C51.9984 55.5005 51.9317 55.3987 51.8631 55.2998C52.0473 55.1031 52.2464 54.9064 52.4613 54.7096L52.6179 55.5718C52.5452 55.5439 52.4706 55.5214 52.3946 55.5045C52.4682 55.5428 52.5458 55.5856 52.6228 55.6289L52.6288 55.6309ZM52.1901 56.2801C52.0552 56.3504 51.9224 56.4203 51.7949 56.4901C51.748 56.4557 51.7006 56.4218 51.6531 56.3878L51.9989 55.896C52.0641 56.0288 52.1274 56.1571 52.1842 56.2781L52.1901 56.2801ZM51.5692 56.5034C51.5963 56.5246 51.6245 56.5462 51.6507 56.5673C51.581 56.6052 51.5109 56.6431 51.4432 56.681L51.5692 56.5034ZM52.1358 57.1718L51.4491 57.1679C51.5973 57.0646 51.7707 56.9505 51.9648 56.827C52.0859 56.9308 52.1926 57.0238 52.2795 57.1069L52.1358 57.1718ZM52.4816 57.0184C52.3689 56.9279 52.2459 56.8315 52.1165 56.7321C52.1862 56.6888 52.2578 56.6451 52.3324 56.6003C52.401 56.7631 52.4544 56.9033 52.4939 57.013L52.4816 57.0184ZM52.7854 56.89C52.7182 56.7557 52.6441 56.6121 52.5636 56.4626C52.6273 56.4257 52.693 56.3878 52.7612 56.3504L52.854 56.8625L52.7854 56.89ZM52.8654 57.0513L52.8852 57.042L52.8995 57.1202L52.8654 57.0513ZM53.0136 55.8709L53.0057 55.8532L53.0249 55.8655L53.0136 55.8709ZM53.1317 56.1444L53.2171 56.0991C53.2171 56.1867 53.2206 56.2732 53.2235 56.3573L53.1317 56.1444ZM53.3465 54.2665C53.299 54.2285 53.2496 54.193 53.1983 54.1602C53.2477 54.2148 53.2912 54.2704 53.3362 54.3255C53.2532 54.8045 53.2129 55.2899 53.2156 55.776L53.1326 55.8153C53.0694 55.7794 53.0072 55.745 52.9464 55.714L52.4984 54.6762C52.7919 54.4124 53.1024 54.1681 53.428 53.9448C53.389 54.0471 53.3619 54.1538 53.3386 54.2665H53.3465ZM53.6039 54.6737C53.7764 54.9101 53.9368 55.1551 54.0846 55.4076C53.926 55.469 53.7649 55.5349 53.6034 55.6043C53.582 55.2949 53.5795 54.9844 53.596 54.6747L53.6039 54.6737ZM53.7452 56.7523C53.7407 56.7297 53.7363 56.7031 53.7318 56.6795L53.7961 56.6549C53.7704 56.6883 53.7536 56.7208 53.7373 56.7523H53.7452ZM53.7086 56.5428C53.6968 56.4714 53.6854 56.3952 53.6741 56.3145C53.7485 56.3706 53.8203 56.4259 53.8894 56.4803L53.886 56.4872C53.8193 56.5054 53.7605 56.5231 53.7007 56.5437L53.7086 56.5428ZM53.9418 57.19H53.887L53.9601 57.1659L53.9418 57.19ZM53.9596 56.3539C53.8573 56.2806 53.7546 56.2088 53.6513 56.1394C53.6419 56.0598 53.6331 55.9766 53.6251 55.8906C53.8119 55.7981 54.0049 55.7071 54.2041 55.6176C54.2352 55.6746 54.2649 55.7302 54.294 55.7853C54.1636 55.982 54.051 56.1748 53.9517 56.3539H53.9596ZM54.3844 55.5384L54.4788 55.4986C54.458 55.5295 54.4378 55.5605 54.4175 55.592C54.3987 55.5743 54.3879 55.5561 54.3765 55.5384H54.3844ZM54.4783 56.4237L54.585 56.3918L54.5889 56.4021C54.5267 56.4685 54.4659 56.5359 54.4071 56.6032C54.4205 56.5467 54.4447 56.4857 54.4699 56.4227L54.4783 56.4237ZM54.5173 56.3288C54.5237 56.3145 54.5301 56.2993 54.5366 56.2845L54.5539 56.3224L54.5173 56.3288ZM54.9802 55.6515L55.037 55.9811C54.9485 56.0529 54.8611 56.1286 54.7761 56.2127C54.7391 56.1448 54.7016 56.0765 54.6625 56.0081C54.7267 55.8748 54.7994 55.7342 54.8809 55.5886L54.9802 55.6515ZM54.9061 55.5443C54.9204 55.5197 54.9342 55.4951 54.9486 55.4695L54.9649 55.564C54.9372 55.5561 54.9174 55.5492 54.8982 55.5433L54.9061 55.5443ZM54.6793 56.616C54.6867 56.6357 54.6951 56.6559 54.7025 56.6746C54.6528 56.7161 54.6057 56.7608 54.5618 56.8084L54.5479 56.7975C54.5805 56.7405 54.624 56.6775 54.6714 56.6151L54.6793 56.616ZM54.4259 57.1989C54.459 57.1497 54.498 57.0951 54.5425 57.038C54.6097 57.1 54.6694 57.1566 54.7184 57.2038L54.4259 57.1989ZM54.667 56.892C54.6941 56.8625 54.7228 56.8329 54.7524 56.8029C54.7841 56.8866 54.8107 56.9613 54.8325 57.0248C54.7722 56.981 54.7169 56.9372 54.6591 56.891L54.667 56.892ZM54.8685 56.3839C54.8942 56.3539 54.9214 56.3234 54.949 56.2929L55.0143 56.2762C54.9979 56.2762 54.9792 56.2762 54.9619 56.2762C54.996 56.2393 55.0325 56.2024 55.0691 56.1655L55.1239 56.4842C55.0618 56.4882 55.0008 56.5022 54.9431 56.5255C54.911 56.4793 54.8858 56.4311 54.8606 56.3829L54.8685 56.3839ZM54.9812 56.6013C55.0271 56.5654 55.0745 56.53 55.1254 56.495L55.2311 57.1094C55.1511 56.9564 55.0666 56.7833 54.9732 56.6003L54.9812 56.6013ZM55.3976 55.9471C55.4509 55.9884 55.5033 56.0298 55.5547 56.0716C55.5547 56.1606 55.5547 56.2481 55.5596 56.3332L55.3976 55.9471ZM55.4593 55.8187C55.4914 55.7937 55.5221 55.7696 55.5552 55.7435C55.5552 55.7897 55.5552 55.8365 55.5552 55.8822C55.5147 55.8596 55.4826 55.8379 55.4514 55.8178L55.4593 55.8187ZM55.5581 55.6589C55.4901 55.6872 55.4241 55.7201 55.3605 55.7573C55.3423 55.7464 55.324 55.7346 55.3057 55.7243L55.1081 55.2492C55.2647 55.1907 55.4248 55.1356 55.5863 55.082C55.5606 55.2728 55.5522 55.4666 55.5487 55.6584L55.5581 55.6589ZM55.5912 54.9856C55.4702 55.0018 55.3442 55.0239 55.2133 55.0534C55.3475 54.857 55.493 54.6685 55.649 54.4888C55.6149 54.6486 55.5962 54.8154 55.5818 54.9846L55.5912 54.9856ZM55.8669 53.6359C55.8096 53.7799 55.763 53.9278 55.7276 54.0786C55.4347 54.3063 55.1714 54.5693 54.9436 54.8616L54.7776 54.4652L54.8631 54.9634C54.8043 55.0387 54.747 55.1159 54.6907 55.1941C54.5499 55.2384 54.4061 55.2885 54.2599 55.3417C54.071 55.0477 53.8561 54.7712 53.6177 54.5153C53.6539 54.0436 53.7589 53.5797 53.9294 53.1382C53.6733 53.3409 53.4961 53.6261 53.428 53.9448C52.7672 54.168 52.1692 54.5445 51.6833 55.0431C51.5741 54.8969 51.4576 54.7564 51.334 54.6221C51.3488 54.5995 51.3646 54.5773 51.38 54.5547C51.6408 54.3648 51.9125 54.1794 52.1955 54.0028C51.9447 54.0749 51.7032 54.1758 51.4758 54.3034C51.5464 54.205 51.6186 54.1066 51.6946 54.0082C51.4998 54.1337 51.3227 54.2846 51.168 54.4568C51.0712 54.3654 50.966 54.283 50.8539 54.2109C50.9443 54.3132 51.0287 54.417 51.1107 54.5208C50.9551 54.6191 50.7971 54.7254 50.6365 54.84C50.9136 53.7682 51.3463 52.7423 51.9209 51.7949C51.209 52.243 50.5767 53.8351 50.1425 55.2138C50.0664 55.2738 49.9905 55.3348 49.9148 55.3967C49.9074 55.3146 49.8985 55.233 49.8881 55.1508C49.9375 55.1356 49.9839 55.1193 50.0328 55.1046C49.9834 55.1046 49.934 55.108 49.8847 55.1105C49.8391 54.6788 49.7094 54.2601 49.5028 53.8779C49.5851 54.2917 49.633 54.7115 49.6461 55.1331C49.6055 55.1385 49.565 55.1439 49.5235 55.1508C49.4717 54.6838 49.444 54.2145 49.4406 53.7446L49.4737 53.7048C49.4623 53.7107 49.4514 53.719 49.4406 53.7254C49.4334 53.0918 49.488 52.4589 49.6036 51.8357C49.2714 52.4815 49.1157 53.2029 49.1521 53.9276C48.9274 54.1165 48.7242 54.3293 48.5459 54.5621L48.3646 54.1253L48.4728 54.6555C48.2936 54.8962 48.1277 55.1464 47.9759 55.4051C47.8534 55.2167 47.7289 55.0392 47.6009 54.8798C47.9262 54.4041 48.3093 53.9702 48.7416 53.5882C48.1969 53.796 47.7277 54.1623 47.3949 54.6393C47.3063 54.542 47.2094 54.4525 47.1055 54.3717C47.2295 54.2768 47.3559 54.1833 47.4888 54.0928C47.3134 54.1393 47.1439 54.2053 46.9834 54.2896C46.9592 54.2748 46.934 54.2611 46.9103 54.2488C46.9261 54.2665 46.941 54.2852 46.9563 54.3029C46.5944 54.4985 46.2567 54.7355 45.95 55.0092C45.909 54.9526 45.867 54.8995 45.8236 54.8483C46.0103 54.75 46.2029 54.6545 46.4005 54.5714C46.203 54.5648 46.006 54.5943 45.8191 54.6585C45.8828 54.1026 46.0176 53.5572 46.2202 53.0354C45.876 53.371 45.6506 53.8089 45.578 54.2832C45.2737 54.5331 45.0095 54.8278 44.7946 55.1572L44.7733 55.17L44.6088 54.6929L44.6711 55.2339C44.4562 55.3717 44.2403 55.5231 44.0289 55.681C44.0121 55.652 43.9953 55.623 43.9795 55.5945C43.9539 55.1309 43.8505 54.6749 43.6737 54.2453C43.8863 53.9144 44.1264 53.6018 44.3915 53.3108C43.8667 53.5858 43.4378 54.0124 43.1609 54.5345C43.1151 54.4952 43.0671 54.4584 43.0172 54.4244C43.0567 54.476 43.0943 54.5276 43.1318 54.5793C43.0602 54.6909 42.99 54.807 42.9209 54.9236C42.8774 54.8789 42.8297 54.8384 42.7786 54.8026C42.8132 54.869 42.8448 54.9359 42.8749 55.0028C42.7761 55.1759 42.6803 55.353 42.5884 55.531C42.536 55.4521 42.4758 55.3786 42.4086 55.3117C42.458 55.414 42.5034 55.5158 42.5449 55.6171C42.4751 55.7538 42.4083 55.8897 42.3444 56.0248C42.287 56.0047 42.2285 55.9882 42.169 55.9756L42.2821 54.6924C42.4066 54.5763 42.538 54.4637 42.6773 54.3575C42.5462 54.3823 42.4193 54.4255 42.3004 54.4858L42.3093 54.3875L42.2752 54.5001C41.9472 54.6849 41.6545 54.926 41.4107 55.2123C41.393 54.6746 41.2548 54.1476 41.0062 53.6699C41.143 54.2474 41.2154 54.8383 41.222 55.4317C41.0253 55.6742 40.8418 55.927 40.6722 56.1891C40.4554 55.7796 40.1867 55.3994 39.8729 55.0579C39.9122 54.61 40.0146 54.1699 40.1772 53.7505C39.8054 54.0921 39.5839 54.5659 39.5607 55.0692C39.3155 55.2265 39.0938 55.4176 38.9022 55.6368L38.7298 55.2393C39.248 54.1546 39.926 53.1529 40.7414 52.2676C39.8295 52.6094 38.7654 54.3083 38.0022 55.7371C37.8368 55.5058 37.6517 55.289 37.4489 55.0893C37.5138 54.3251 37.646 53.568 37.8441 52.8268C37.9133 52.7491 37.9824 52.6724 38.0546 52.5976C37.9971 52.62 37.9411 52.6461 37.8871 52.6758C37.9705 52.3831 38.0686 52.0946 38.181 51.8116C37.892 52.1209 37.6792 52.4929 37.5596 52.8981C37.3699 53.0489 37.1934 53.2154 37.032 53.3959C36.9559 53.0368 36.8873 52.6921 36.8305 52.3758C36.253 49.0548 35.2956 47.8134 35.3707 47.0697C35.4117 46.6595 36.127 44.1781 36.6778 42.3288L36.0129 42.2486C35.7659 42.2235 35.5327 42.1896 35.304 42.1502C35.1928 42.5117 35.0354 42.8576 34.8357 43.1792C34.6975 43.3317 34.4986 43.4157 34.2923 43.4084C33.9583 43.405 33.6495 43.231 33.4748 42.9475C33.4375 42.8889 33.4122 42.8236 33.4002 42.7552C33.2849 42.8366 33.1463 42.879 33.005 42.8762C32.6187 42.8685 32.2749 42.6305 32.1331 42.2727C32.0876 42.161 31.9691 41.8659 32.5421 40.9693C32.3893 40.8486 32.2433 40.7196 32.1049 40.5827C31.69 41.8817 31.2024 43.13 30.7568 44.2126C32.4576 46.8874 33.7071 49.8214 34.4558 52.8981L34.6707 53.8327C34.6302 53.9864 34.5923 54.1447 34.5571 54.3073C34.2705 54.476 34.0108 54.6864 33.7865 54.9314L33.6541 54.3309L33.6694 55.0598C33.4502 55.3083 33.2467 55.5699 33.0598 55.8433C32.9655 55.6068 32.8652 55.3771 32.7595 55.1646C32.8316 54.991 32.9077 54.8173 32.9936 54.6432C32.8767 54.7549 32.7717 54.8783 32.6804 55.0116C32.524 54.6827 32.302 54.3888 32.0279 54.1479C32.2299 54.4846 32.408 54.835 32.5609 55.1966C32.3022 55.6495 32.0998 56.1321 31.9582 56.6337C31.8187 56.5279 31.6727 56.4308 31.521 56.3431C31.4473 56.0917 31.354 55.8466 31.2419 55.6097C31.2316 55.5605 31.2212 55.5138 31.2103 55.4622C31.3395 55.3405 31.4748 55.2256 31.6159 55.1179C31.4596 55.1482 31.3094 55.2038 31.1713 55.2826C30.4338 51.8397 29.0027 48.287 29.1005 47.3147C29.1687 46.6344 30.9026 43.2682 31.9276 39.7672C32.0812 39.2601 34.608 37.1112 35.6325 36.6026C36.6571 36.0941 43.775 35.2796 43.775 35.2796C43.775 35.2796 37.3704 36.5348 36.4145 36.7059C35.59 36.8535 32.9363 39.4283 32.2294 40.1268C32.462 40.3791 32.721 40.606 33.002 40.8035L33.8418 39.9792L33.0361 40.9762C32.755 41.3849 32.4305 41.9225 32.512 42.1232C32.554 42.2538 32.6494 42.3608 32.7748 42.4178C32.9001 42.4748 33.0438 42.4766 33.1705 42.4227C33.3961 42.1184 33.6029 41.8007 33.7899 41.4715V41.4715V41.4715C33.824 41.4159 33.8566 41.3613 33.8887 41.3092L34.3333 40.5866L33.9831 41.3485C34.0488 41.3761 34.114 41.4046 34.1807 41.4302C33.9638 41.8886 33.6951 42.5412 33.8171 42.7375C33.8805 42.8593 33.9926 42.9488 34.1258 42.984C34.2589 43.0192 34.4009 42.9969 34.5166 42.9224C34.6968 42.5638 34.8551 42.1948 34.9908 41.8172C34.7802 41.7484 34.5824 41.6453 34.4055 41.5123C34.6302 41.5944 35.0417 41.6869 35.0417 41.6869C35.8961 41.8574 36.7653 41.9432 37.6366 41.9432C37.628 42.3414 37.6999 42.7373 37.8481 43.1074C38.0575 43.2471 38.4577 43.2549 38.5026 43.0582C38.5288 42.7338 38.5385 42.4082 38.5318 42.0828C38.367 42.0649 38.2057 42.0238 38.0526 41.9609C38.2284 41.9746 38.8119 41.9609 38.8119 41.9609L38.7936 40.7091L38.9714 41.955L38.9778 42.0041L38.9887 42.0794C39.0124 42.4943 39.1106 42.9016 39.2787 43.282C39.3958 43.3294 39.5273 43.3275 39.643 43.2766C39.7587 43.2257 39.8486 43.1302 39.8922 43.0119C39.9052 42.7332 39.8995 42.4538 39.8749 42.1758L39.7391 40.6555L39.9712 41.6495C41.4028 41.1039 42.596 40.0742 43.3417 38.7407C44.5869 39.1818 45.8653 39.5241 47.1647 39.7643C48.1675 39.9753 52.1723 38.6148 54.502 39.3914C54.9204 39.5311 55.2716 39.3796 55.6248 39.6162C55.4939 38.6015 55.0439 35.0086 54.7272 34.1773C54.7272 34.1773 54.7134 34.107 54.6966 34.0258C54.6669 33.8814 54.7347 33.7345 54.8641 33.6629C55.2484 33.4514 56.0003 33.0298 56.0003 33.0298L55.2652 33.6692C55.0185 33.8833 54.9265 34.2247 55.0325 34.5329C55.8041 36.791 56.4098 41.6997 56.6533 43.8781C56.8455 45.5996 56.9448 51.7349 56.9868 55.2049C56.9487 55.2585 56.9112 55.3126 56.8746 55.3667C56.6966 54.8718 56.4619 54.399 56.1751 53.9576C56.2537 53.8897 56.3337 53.8228 56.4182 53.7608C56.3093 53.7806 56.2033 53.8137 56.1025 53.8592L56.0561 53.8002C56.1085 53.5484 56.1827 53.3015 56.2779 53.0624C56.0921 53.1994 55.9506 53.3875 55.8708 53.6035C55.8432 53.5784 55.8155 53.5543 55.7878 53.5341C55.8145 53.5592 55.8353 53.5976 55.8575 53.6349L55.8669 53.6359ZM56.0437 56.5044C56.0793 56.5383 56.1134 56.5718 56.147 56.6028L56.0813 56.7292C56.0595 56.6623 56.0472 56.5846 56.0343 56.5034L56.0437 56.5044ZM56.2324 57.2358H56.1144L56.148 57.2023L56.2962 57.1531L56.2324 57.2358ZM56.2433 56.4257C56.1643 56.3558 56.0847 56.2885 56.0047 56.2226C55.9529 55.8069 55.931 55.3881 55.939 54.9693L55.9751 54.9575H55.939C55.9446 54.6728 55.9686 54.3888 56.0106 54.1071C56.0358 54.0835 56.06 54.0609 56.0872 54.0378C56.3415 54.5458 56.5519 55.0745 56.716 55.6181C56.5278 55.9004 56.3683 56.1778 56.2339 56.4247L56.2433 56.4257ZM56.7175 57.2476L56.7244 57.2363L56.7343 57.2481L56.7175 57.2476ZM56.886 56.2319C56.8983 56.2811 56.9107 56.3303 56.9215 56.3795C56.8618 56.4444 56.803 56.5103 56.7462 56.5762C56.7753 56.4714 56.8223 56.3554 56.8766 56.2309L56.886 56.2319ZM56.9803 56.6382L56.9912 56.6903C56.9259 56.7515 56.865 56.8173 56.8089 56.887C56.8494 56.8074 56.9077 56.7238 56.9709 56.6372L56.9803 56.6382ZM56.8741 57.0218C56.9166 56.9672 56.9645 56.9102 57.0179 56.8516C57.0179 56.9713 57.019 57.0781 57.0213 57.1718C56.9635 57.1217 56.9161 57.0725 56.8647 57.0208L56.8741 57.0218ZM59.2868 56.0873C59.3011 56.0514 59.3154 56.017 59.3303 55.9801C59.3477 56.0079 59.3642 56.036 59.3796 56.0642C59.3485 56.1065 59.3189 56.1493 59.2883 56.1921L59.2868 56.0873ZM59.2976 56.5998C59.3599 56.4941 59.4251 56.3849 59.4987 56.2703C59.5111 56.2929 59.5229 56.3155 59.5353 56.3376C59.4501 56.4281 59.3711 56.5241 59.2986 56.6249L59.2976 56.5998ZM59.3154 57.3273L59.312 57.1925C59.3713 57.2417 59.429 57.2879 59.4829 57.3332L59.3154 57.3273ZM59.763 57.344C59.6182 57.2323 59.4666 57.1177 59.3075 57.0046L59.3041 56.861C59.396 56.7225 59.495 56.5887 59.6005 56.4601C59.7533 56.7502 59.8902 57.0484 60.0105 57.3533L59.763 57.344ZM60.3415 57.3661C60.1745 57.038 59.971 56.6618 59.7447 56.2944C59.8223 56.2088 59.9043 56.1237 59.9917 56.0401C59.8777 56.0671 59.7719 56.1213 59.6835 56.198C59.6612 56.1626 59.639 56.1266 59.6158 56.0912C59.759 55.8778 59.9196 55.6564 60.0994 55.4356L60.4452 57.3705L60.3415 57.3661ZM60.2377 55.5571C60.4501 55.7583 60.6472 55.9648 60.8265 56.1675C60.8206 56.4336 60.8236 56.6952 60.8315 56.9392L60.2377 55.5571ZM61.3526 57.3351C61.3196 57.1585 61.284 56.9353 61.2539 56.6815C61.349 56.8034 61.4361 56.9182 61.5152 57.0258C61.4475 57.1374 61.3922 57.2407 61.3433 57.3356L61.3526 57.3351ZM61.5996 56.8792C61.4816 56.7356 61.3581 56.5895 61.2321 56.4463C61.177 55.8708 61.1904 55.2909 61.2721 54.7185C61.525 55.271 61.7205 55.8478 61.8555 56.44C61.7538 56.5929 61.6683 56.7405 61.5898 56.8797L61.5996 56.8792ZM62.393 57.4571H62.3535C62.349 57.4394 62.3456 57.4227 62.3411 57.405C62.3599 57.3858 62.3792 57.3671 62.3989 57.3479L62.393 57.4571ZM62.4078 57.1836C62.3728 57.2068 62.339 57.2317 62.3065 57.2584C62.3011 57.2368 62.2962 57.2151 62.2907 57.1925C62.3298 57.1408 62.3718 57.0882 62.4162 57.0351L62.4078 57.1836ZM62.4315 56.7469C62.3624 56.8118 62.2947 56.8797 62.2285 56.9495C62.2137 56.8934 62.1989 56.8369 62.183 56.7793C62.2601 56.6067 62.3515 56.4183 62.4602 56.2196L62.4315 56.7469ZM65.1421 56.195C65.2196 56.4326 65.2853 56.6603 65.3396 56.8743V56.9023C65.0907 56.9259 64.8483 56.9955 64.6248 57.1074C64.5502 57.0439 64.4766 56.981 64.4006 56.921C64.6252 56.6607 64.8698 56.4181 65.1322 56.1955L65.1421 56.195ZM62.8697 56.9643L62.8084 56.62C62.8638 56.5708 62.9216 56.5167 62.9818 56.4665C62.9295 56.6367 62.8914 56.8044 62.8588 56.9648L62.8697 56.9643ZM62.7798 56.4572L62.6736 55.8586C62.9616 55.392 63.3121 54.9665 63.7154 54.594C63.392 55.122 63.1583 55.6995 63.0238 56.3032C62.9354 56.3488 62.8502 56.4004 62.7689 56.4577L62.7798 56.4572ZM63.2807 57.4699C63.298 57.1041 63.3384 56.7397 63.4017 56.379C63.5934 56.5002 63.7784 56.6315 63.956 56.7724C63.6818 57.0243 63.4501 57.2697 63.2698 57.4704L63.2807 57.4699ZM64.2929 57.0533C64.3467 57.1025 64.3991 57.1517 64.45 57.1969C64.2786 57.2893 64.1121 57.3902 63.951 57.4994C64.0301 57.3715 64.1452 57.2186 64.282 57.0538L64.2929 57.0533ZM64.6816 57.5776C64.6169 57.5624 64.55 57.5587 64.4841 57.5668L64.2469 57.5535C64.3487 57.4763 64.4598 57.3981 64.5814 57.3223C64.6733 57.4123 64.7597 57.5009 64.8407 57.587L64.6816 57.5776ZM65.1756 57.6061C65.0423 57.4773 64.9025 57.3464 64.7587 57.219C64.9476 57.1146 65.1449 57.0259 65.3485 56.9539C65.3727 57.3277 65.3871 57.5663 65.3905 57.6189L65.1756 57.6061ZM65.8771 57.6484L65.8722 57.6312H65.9848V57.6553L65.8771 57.6484ZM67.2109 56.8959C67.2055 56.7115 67.1995 56.4985 67.1936 56.2629C67.2356 56.4227 67.2716 56.5757 67.3013 56.7164C67.2558 56.7779 67.2257 56.8388 67.1966 56.8964L67.2109 56.8959ZM67.7938 57.702L67.7824 57.6529L67.7977 57.6302L67.7938 57.702ZM67.8121 57.3686C67.7874 57.4015 67.7627 57.4355 67.7399 57.4669V57.4591C67.7642 57.4168 67.7893 57.3735 67.8155 57.3287L67.8121 57.3686ZM67.8383 56.8846C67.7859 56.9564 67.734 57.0282 67.6836 57.1005C67.733 56.9761 67.7869 56.8374 67.8491 56.6878L67.8383 56.8846ZM68.2769 57.07L68.27 57.0312L68.2898 57.01C68.2715 57.0302 68.2665 57.0508 68.2626 57.0705L68.2769 57.07ZM68.3179 56.8772C68.2947 56.8896 68.2721 56.9032 68.2502 56.918L68.2132 56.7115C68.281 56.6151 68.3522 56.5178 68.4266 56.4198C68.3728 56.5752 68.3362 56.7287 68.3016 56.8777L68.3179 56.8772ZM68.6879 57.5756C68.7082 57.1556 68.7589 56.7376 68.8396 56.3249C68.9461 56.5911 69.0303 56.8657 69.0915 57.1458C68.9255 57.3012 68.7887 57.4482 68.6736 57.5766L68.6879 57.5756ZM68.8648 56.1985C68.8944 56.0617 68.928 55.922 68.9675 55.7809C69.0199 55.7258 69.0732 55.6722 69.1281 55.6181C69.2958 55.9838 69.413 56.3705 69.4763 56.7675C69.3923 56.8462 69.3108 56.9244 69.2333 57.0012C69.1447 56.7171 69.0158 56.4471 68.8504 56.1994L68.8648 56.1985ZM69.3844 57.5663C69.4309 57.5009 69.4832 57.4301 69.541 57.3548C69.541 57.3971 69.5455 57.4389 69.5475 57.4797C69.4931 57.5137 69.4403 57.5481 69.3879 57.583L69.3844 57.5663ZM69.5509 57.7832C69.5139 57.8029 69.4773 57.8235 69.4417 57.8462L69.4388 57.8309C69.4743 57.8004 69.5119 57.7694 69.5509 57.7375C69.5366 57.7557 69.5366 57.7734 69.5366 57.7861L69.5509 57.7832ZM69.8824 57.552C69.8824 57.5348 69.8779 57.5171 69.8755 57.4994L69.8918 57.4886C69.8745 57.5122 69.8715 57.5348 69.8681 57.555L69.8824 57.552ZM69.9254 57.2653C69.8997 57.2781 69.876 57.2913 69.8488 57.3051C69.835 57.2151 69.8201 57.1251 69.8029 57.0356C69.8552 56.9756 69.9096 56.9146 69.9674 56.8526C69.9417 56.9982 69.9283 57.1369 69.911 57.2682L69.9254 57.2653ZM72.2427 56.8688C72.2733 56.9903 72.3005 57.1074 72.3242 57.2171C72.1987 57.2835 72.0772 57.3494 71.9571 57.4138L71.9023 57.3479L72.2427 56.8688ZM72.0708 56.2786C72.1123 56.4055 72.1498 56.5295 72.1834 56.649L71.6993 57.1153C71.6445 57.0523 71.5886 56.9903 71.5328 56.9289C71.6785 56.7203 71.8583 56.5014 72.0559 56.2791L72.0708 56.2786ZM71.8238 57.4896L71.7882 57.5087L71.8124 57.4748L71.8238 57.4896ZM71.6914 55.3205C71.7102 55.3608 71.7299 55.4012 71.7477 55.4415C71.698 55.4452 71.6485 55.4514 71.5995 55.4602C71.6158 55.4125 71.6484 55.3672 71.6795 55.321L71.6914 55.3205ZM71.4676 55.6707C71.5664 55.6161 71.6731 55.5654 71.7803 55.5172C71.8425 55.6609 71.8995 55.8024 71.9512 55.9417C71.7141 56.165 71.4834 56.4041 71.2636 56.647C71.191 56.5732 71.1193 56.5029 71.0482 56.437C71.1594 56.1857 71.3001 55.9284 71.4557 55.6712L71.4676 55.6707ZM70.9924 55.9629C70.9341 56.0524 70.877 56.1444 70.821 56.2388C70.7869 56.2112 70.7533 56.1862 70.7222 56.1616C70.7958 56.0942 70.8862 56.0278 70.9805 55.9634L70.9924 55.9629ZM70.2776 57.2874V57.2638L70.2909 57.2569L70.2776 57.2874ZM70.283 57.1108C70.287 56.921 70.2855 56.7301 70.2771 56.5408C70.4011 56.4242 70.534 56.3081 70.6767 56.1965C70.7133 56.2314 70.7493 56.2658 70.7849 56.3008C70.6397 56.5511 70.5023 56.8143 70.3749 57.0813C70.3324 57.0902 70.3018 57.1 70.2712 57.1113L70.283 57.1108ZM70.7721 57.0523C70.814 57.0376 70.8546 57.0218 70.8975 57.0085C70.863 57.0056 70.8279 57.0051 70.7918 57.0056C70.8577 56.8482 70.9293 56.6878 71.0067 56.5246C71.0706 56.5901 71.1327 56.6569 71.1929 56.7247C71.0013 56.9397 70.8185 57.1561 70.6496 57.3641C70.6799 57.2625 70.7167 57.1587 70.7602 57.0528L70.7721 57.0523ZM70.8501 57.9308C71.0367 57.6196 71.239 57.318 71.4562 57.0272C71.5066 57.0879 71.556 57.1474 71.6044 57.2058L70.8501 57.9308ZM72.2229 58.1186L71.6835 58.0729C71.7956 57.9942 71.9206 57.9086 72.0614 57.8157C72.1375 57.9239 72.2032 58.0208 72.259 58.1029L72.2229 58.1186ZM72.4363 58.0203C72.3642 57.9263 72.2881 57.8265 72.2041 57.7252C72.2654 57.6855 72.3288 57.645 72.3943 57.6037C72.4215 57.766 72.4403 57.9047 72.4526 58.0144L72.4363 58.0203ZM72.8226 58.1718H72.8058C72.7999 58.1457 72.7935 58.1196 72.7875 58.0926L72.8281 58.0714L72.8226 58.1718ZM72.8404 57.8403L72.7386 57.885C72.7055 57.7498 72.669 57.6061 72.629 57.4576C72.707 57.4084 72.7861 57.3622 72.8691 57.3135L72.8404 57.8403ZM73.3023 57.5978L73.2168 57.1153C73.2899 57.0744 73.365 57.0336 73.4411 56.9928C73.3764 57.1999 73.3304 57.4045 73.2909 57.5983L73.3023 57.5978ZM73.7133 58.1034C73.7197 57.9721 73.7306 57.8147 73.7479 57.6401C73.8052 57.616 73.864 57.5909 73.9232 57.5688C73.9845 57.6096 74.0428 57.6514 74.0971 57.6942C73.941 57.8422 73.8116 57.9814 73.7014 58.1039L73.7133 58.1034ZM73.9603 57.553C74.1035 57.4963 74.2517 57.441 74.4049 57.3873C74.3184 57.4704 74.2349 57.5525 74.1579 57.6332C74.0908 57.6007 74.0211 57.574 73.9494 57.5535L73.9603 57.553ZM74.3826 58.1329C74.4044 58.1019 74.4281 58.069 74.4528 58.0345L74.48 58.068C74.436 58.0906 74.4039 58.1122 74.3718 58.1334L74.3826 58.1329ZM73.7656 57.4714C73.7923 57.253 73.8294 57.0135 73.8817 56.7621C73.9593 56.7233 74.0393 56.6849 74.1193 56.6465C74.2825 56.8228 74.4234 57.0182 74.5392 57.2284C74.2819 57.2923 74.0196 57.3764 73.7548 57.4719L73.7656 57.4714ZM74.7373 57.6711C74.7625 57.7409 74.7867 57.8088 74.803 57.8737C74.7413 57.9081 74.6805 57.9435 74.6207 57.9804C74.596 57.9563 74.5713 57.9312 74.5466 57.9096C74.5936 57.8348 74.6573 57.7547 74.7265 57.6715L74.7373 57.6711ZM74.5916 58.3055C74.5812 58.2967 74.5704 58.2888 74.5595 58.281L74.6089 58.2411L74.6356 58.2829C74.6099 58.2903 74.5956 58.2982 74.5807 58.306L74.5916 58.3055ZM74.8346 58.2136C74.8103 58.1844 74.7856 58.1554 74.7605 58.1265C74.7897 58.1054 74.8188 58.0842 74.8495 58.0631C74.8608 58.1122 74.8697 58.1614 74.8771 58.2062C74.8519 58.2091 74.8376 58.2106 74.8223 58.216L74.8346 58.2136ZM75.7732 57.974C75.7673 57.974 75.7609 57.9711 75.7549 57.9706L75.7703 57.9794C75.6685 58.1541 75.5677 58.306 75.4833 58.4221H75.4803C75.4119 58.2176 75.3328 58.0168 75.2432 57.8206C75.4603 57.7032 75.6885 57.6071 75.9244 57.5338C75.6674 57.5251 75.4121 57.5774 75.1794 57.6863C75.1271 57.5801 75.0688 57.4719 75.0056 57.3656C75.0767 57.2894 75.1538 57.2122 75.2328 57.1344L75.3563 57.1025C75.3267 57.1025 75.2936 57.1054 75.2619 57.1064C75.5743 56.8045 75.9194 56.5381 76.2909 56.3121C76.2919 56.6623 76.2222 57.0092 76.0859 57.3322C75.9041 57.1581 75.6721 57.0451 75.4225 57.009C75.6427 57.1464 75.8409 57.316 76.0103 57.5122C75.9353 57.6705 75.852 57.8248 75.7609 57.9745L75.7732 57.974ZM76.0849 58.2136L76.0968 58.188L76.1062 58.1949L76.0849 58.2136ZM76.1753 58.1324C76.1615 58.1236 76.1472 58.1162 76.1333 58.1078C76.1734 58.0188 76.2129 57.9268 76.2504 57.8329C76.2835 57.8821 76.3141 57.9312 76.3423 57.9804L76.1753 58.1324ZM78.1419 58.2554C78.1498 58.2731 78.1567 58.2898 78.1641 58.307C78.1088 58.3434 78.055 58.3798 78.0026 58.4157C77.964 58.3886 77.9234 58.3644 77.8811 58.3434C77.9585 58.3149 78.0421 58.2857 78.132 58.2559L78.1419 58.2554ZM77.929 58.2411C77.9616 58.186 77.9972 58.127 78.0362 58.066C78.0621 58.1049 78.086 58.1451 78.1078 58.1865L77.929 58.2411ZM78.794 57.0818C78.5045 57.3043 78.2489 57.5674 78.0352 57.8629C77.9572 57.7997 77.8692 57.7499 77.7749 57.7153C78.098 57.4853 78.4347 57.2748 78.7831 57.0848L78.794 57.0818ZM76.3976 58.5185C76.3843 58.5087 76.3705 58.4998 76.3566 58.491L76.3808 58.4561C76.4011 58.4787 76.4189 58.5008 76.4367 58.5229L76.3976 58.5185ZM76.5493 58.4383C76.5191 58.4088 76.4875 58.3788 76.4549 58.3498L76.4974 58.2888C76.5201 58.341 76.5399 58.3872 76.5567 58.4329L76.5493 58.4383ZM76.9716 58.5057C76.9534 58.4728 76.9336 58.4374 76.9124 58.4005C76.9484 58.3675 76.987 58.3336 77.027 58.2987C76.9959 58.3764 76.9786 58.4467 76.9608 58.5062L76.9716 58.5057ZM77.0843 58.0331C76.9909 58.1004 76.901 58.1678 76.8136 58.2342C76.7721 58.1686 76.7276 58.0998 76.6802 58.0277L77.147 57.3582C77.1435 57.5851 77.1189 57.8112 77.0734 58.0336L77.0843 58.0331ZM77.3372 58.0414C77.398 57.9922 77.4607 57.9431 77.5274 57.8939L77.314 58.2726C77.312 58.1988 77.3199 58.1211 77.3263 58.0419L77.3372 58.0414ZM77.5012 58.6375H77.4913L77.5407 58.4679L77.6326 58.4339C77.5738 58.5057 77.5299 58.5746 77.4898 58.638L77.5012 58.6375ZM77.7245 58.2932L77.7141 58.308L77.5718 58.3572L77.7457 57.7498C77.8244 57.8132 77.8961 57.8848 77.9596 57.9632C77.8771 58.0739 77.7996 58.1841 77.7275 58.2898L77.7082 58.2849L77.7245 58.2932ZM77.851 58.3774C77.8838 58.4012 77.9153 58.4268 77.9453 58.4541C77.8712 58.5033 77.8001 58.5554 77.7349 58.6016C77.7522 58.5451 77.7912 58.4683 77.8401 58.3793L77.851 58.3774ZM77.8218 58.6725L77.9127 58.5987C77.9586 58.6272 78.0017 58.6602 78.0411 58.6971L77.8218 58.6725ZM78.1409 58.7084C78.0828 58.6459 78.0051 58.605 77.9206 58.5923L78.0125 58.5205C78.0667 58.5782 78.1142 58.6417 78.1543 58.7098L78.1409 58.7084ZM78.0762 58.4718L78.1933 58.3847C78.2229 58.4713 78.2436 58.5606 78.255 58.6513C78.1973 58.5863 78.1338 58.5266 78.0653 58.4728L78.0762 58.4718ZM79.4223 58.5402C79.3626 58.579 79.3048 58.6174 79.2494 58.6553C79.2212 58.6362 79.1919 58.619 79.1615 58.6036L79.3408 58.3793C79.3677 58.4317 79.3913 58.4858 79.4115 58.5411L79.4223 58.5402ZM79.0271 57.8481C79.0212 57.883 79.0128 57.918 79.0034 57.9524C78.976 57.9438 78.9481 57.9367 78.9199 57.9312C78.9372 57.9431 78.953 57.9553 78.9693 57.9676C78.8967 57.9814 78.8211 57.9967 78.7436 58.0168C78.8266 57.9598 78.9171 57.9039 79.0153 57.8491L79.0271 57.8481ZM78.3281 58.1998V58.1959L78.3444 58.1905L78.3281 58.1998ZM78.3662 58.2623C78.434 58.215 78.5053 58.167 78.5801 58.1182C78.713 58.0788 78.8493 58.0409 78.9881 58.004C78.8929 58.2657 78.7526 58.5089 78.5737 58.7226C78.5158 58.5634 78.4423 58.4102 78.3543 58.2652L78.3662 58.2623ZM78.9906 58.5461L78.9022 58.6169C78.994 58.4536 79.0689 58.2814 79.1254 58.1029C79.1877 58.1647 79.2441 58.232 79.2939 58.3041L78.9975 58.5421C78.9907 58.5399 78.9838 58.5381 78.9768 58.5367L78.9906 58.5461ZM79.0301 58.8112L78.9995 58.8072L79.1324 58.641C79.1551 58.6587 79.1758 58.6759 79.1961 58.6936C79.1245 58.7359 79.0706 58.7748 79.0183 58.8121L79.0301 58.8112ZM79.2302 58.8348L79.1971 58.8308C79.2188 58.8117 79.244 58.79 79.2727 58.7664C79.286 58.7802 79.2978 58.794 79.3102 58.8082L79.2302 58.8348ZM79.3329 58.7162C79.3695 58.6867 79.4105 58.6552 79.4549 58.6218C79.4703 58.6661 79.4831 58.7084 79.493 58.7487C79.4623 58.758 79.4327 58.7679 79.4031 58.7777C79.367 58.7571 79.3453 58.7369 79.3211 58.7172L79.3329 58.7162ZM79.488 58.8638C79.4747 58.849 79.4604 58.8338 79.446 58.819L79.5048 58.7979C79.5098 58.8225 79.5137 58.8471 79.5172 58.8677L79.488 58.8638ZM79.8877 58.913L79.8146 58.9041C79.7938 58.8471 79.7681 58.7841 79.738 58.7182C79.7953 58.699 79.8541 58.6798 79.9168 58.6607C79.9519 58.6848 79.985 58.7098 80.0156 58.7339C79.9598 58.8028 79.9158 58.8633 79.8758 58.9149L79.8877 58.913ZM80.0576 58.6671C80.0359 58.6562 80.0136 58.6464 79.9909 58.6371L80.0937 58.6066C80.07 58.6302 80.0586 58.6503 80.0457 58.67L80.0576 58.6671ZM79.9297 58.6149C79.8823 58.5984 79.8337 58.5855 79.7844 58.5761C79.816 58.5943 79.8457 58.6125 79.8743 58.6307C79.8226 58.6454 79.7708 58.6607 79.7187 58.6764C79.6899 58.6153 79.6579 58.5557 79.6229 58.4979C79.8368 58.3505 80.0606 58.2179 80.2927 58.1009C80.2598 58.2637 80.2007 58.4201 80.1179 58.5643C80.0443 58.5829 79.9815 58.6002 79.9178 58.6179L79.9297 58.6149ZM81.0337 59.0576L80.8277 59.031C80.9092 59.0025 80.9996 58.972 81.096 58.941C81.0738 58.9819 81.049 59.0213 81.0219 59.0591L81.0337 59.0576ZM81.1172 58.8913C80.9794 58.9312 80.8406 58.974 80.7107 59.0163L80.5625 58.9976C80.75 58.8441 80.9481 58.704 81.1553 58.578C81.1678 58.6855 81.1505 58.7944 81.1054 58.8928L81.1172 58.8913Z" fill="#F1F1F1"/>
<path d="M82.4189 36.9953C82.3665 37.2033 82.1778 37.5014 82.0331 37.8546C82.6249 38.2094 83.2473 38.5109 83.893 38.7556C83.9938 38.7923 84.0927 38.834 84.1894 38.8806C84.4447 38.5491 83.6099 35.5227 83.4864 35.2851C83.4004 35.1199 82.7879 35.7553 82.3996 36.1705C82.4541 36.4422 82.4606 36.7213 82.4189 36.9953V36.9953Z" fill="#F1F1F1"/>
<path d="M82.8926 47.0273C83.0828 47.0273 83.2543 46.9132 83.3271 46.7383C83.3999 46.5633 83.3596 46.3619 83.2251 46.228C83.0907 46.0941 82.8884 46.054 82.7126 46.1265C82.5369 46.199 82.4223 46.3697 82.4223 46.5591C82.4223 46.8177 82.6329 47.0273 82.8926 47.0273V47.0273Z" fill="#F1F1F1"/>
<path d="M83.9083 40.8192C84.3183 40.8896 85.9094 42.3277 88.3374 41.979C90.7653 41.6303 88.7607 43.58 87.1276 43.6513C85.782 43.7108 85.6288 43.5038 84.2056 43.2013C82.2687 42.7891 81.4502 40.3972 83.9083 40.8192Z" fill="#F1F1F1"/>
<path d="M85.5774 41.2346V41.3014C85.8333 41.4106 86.1139 41.5179 86.4113 41.6123C87.1315 41.3118 88.0079 40.9945 88.368 41.0565C89.0265 41.1691 88.9356 39.7108 85.6348 40.1077L85.3191 40.1638C85.4946 40.4933 85.5835 40.8616 85.5774 41.2346Z" fill="#F1F1F1"/>
</svg>
