<svg width="71" height="21" viewBox="0 0 71 21" fill="none" xmlns="http://www.w3.org/2000/svg">
<g clip-path="url(#clip0_164_457)">
<path d="M13.5682 7.58044C14.904 8.54922 16.5404 9.11923 18.3078 9.11923V5.66868C17.9734 5.66875 17.6397 5.63336 17.3125 5.56302V8.27909C15.5452 8.27909 13.909 7.70908 12.5729 6.74038V13.7819C12.5729 17.3045 9.75831 20.1599 6.28655 20.1599C4.99115 20.1599 3.78713 19.7625 2.78696 19.0811C3.92849 20.2653 5.52046 20.9999 7.28168 20.9999C10.7537 20.9999 13.5684 18.1445 13.5684 14.6219V7.58044H13.5682ZM14.7961 4.09926C14.1134 3.34258 13.6652 2.36472 13.5682 1.28366V0.839844H12.625C12.8624 2.21388 13.6723 3.38777 14.7961 4.09926ZM4.98285 16.378C4.60143 15.8706 4.39532 15.25 4.39624 14.6118C4.39624 13.0007 5.68361 11.6944 7.27188 11.6944C7.56788 11.6943 7.86211 11.7403 8.14419 11.8311V8.30345C7.81454 8.25762 7.48183 8.23816 7.14927 8.24529V10.9911C6.86697 10.9002 6.57261 10.8541 6.27654 10.8544C4.68827 10.8544 3.40096 12.1606 3.40096 13.7718C3.40096 14.9111 4.04444 15.8975 4.98285 16.378Z" fill="#FF004F"/>
<path d="M12.5729 6.7403C13.909 7.70901 15.5452 8.27902 17.3125 8.27902V5.56295C16.326 5.34976 15.4527 4.82674 14.7961 4.09926C13.6722 3.3877 12.8624 2.21381 12.625 0.839844H10.1474V14.6217C10.1418 16.2284 8.8566 17.5293 7.27174 17.5293C6.33781 17.5293 5.5081 17.0777 4.98263 16.378C4.04429 15.8975 3.40082 14.9111 3.40082 13.7719C3.40082 12.1608 4.68812 10.8545 6.27639 10.8545C6.5807 10.8545 6.874 10.9026 7.14912 10.9911V8.24536C3.73835 8.31686 0.99527 11.1444 0.99527 14.6218C0.99527 16.3577 1.67836 17.9314 2.78703 19.0812C3.7872 19.7625 4.99122 20.1599 6.28662 20.1599C9.75844 20.1599 12.573 17.3044 12.573 13.7819V6.7403H12.5729Z" fill="#F1F1F1"/>
<path d="M17.3125 5.5631V4.82869C16.4229 4.83006 15.5508 4.57731 14.7961 4.09933C15.4642 4.84145 16.344 5.35315 17.3125 5.5631ZM12.625 0.839988C12.6024 0.708675 12.585 0.576497 12.5729 0.443814V0H9.15197V13.782C9.1465 15.3885 7.8614 16.6894 6.2764 16.6894C5.81107 16.6894 5.37172 16.5774 4.98264 16.3782C5.50811 17.0778 6.33782 17.5294 7.27175 17.5294C8.85647 17.5294 10.1419 16.2286 10.1474 14.6219V0.839988H12.625ZM7.14927 8.24551V7.46368C6.86343 7.42404 6.57524 7.40415 6.2867 7.40429C2.81458 7.40422 0 10.2598 0 13.782C0 15.9903 1.10618 17.9364 2.78711 19.0812C1.67844 17.9314 0.995349 16.3577 0.995349 14.6219C0.995349 11.1445 3.73836 8.317 7.14927 8.24551Z" fill="#00F2EA"/>
<path d="M56.9509 17.2725C59.4352 17.2725 61.4491 15.2447 61.4491 12.7436C61.4491 10.2425 59.4352 8.21436 56.9509 8.21436H56.2733C58.7575 8.21436 60.7715 10.2424 60.7715 12.7436C60.7715 15.2447 58.7575 17.2725 56.2733 17.2725H56.9509Z" fill="#FF004F"/>
<path d="M56.2118 8.21436H55.5342C53.0501 8.21436 51.0358 10.2424 51.0358 12.7436C51.0358 15.2447 53.0501 17.2725 55.5342 17.2725H56.2118C53.7273 17.2725 51.7134 15.2447 51.7134 12.7436C51.7133 10.2425 53.7273 8.21436 56.2118 8.21436Z" fill="#00F2EA"/>
<path d="M22.0144 6.16748V8.46316H24.6635V17.2107H27.3136V8.52514H29.47L30.2094 6.16755H22.0144V6.16748ZM43.7036 6.16748V8.46316H46.3527V17.2107H49.0029V8.52514H51.1592L51.8985 6.16755H43.7036V6.16748ZM30.7028 7.47024C30.7028 6.7509 31.2812 6.16748 31.9957 6.16748C32.7109 6.16748 33.2899 6.7509 33.2899 7.47024C33.2899 8.18965 32.7113 8.77307 31.9957 8.77307C31.2812 8.77271 30.7028 8.18965 30.7028 7.47024ZM30.7028 9.70394H33.2899V17.2107H30.7028V9.70394ZM34.3992 6.16748V17.2106H36.9873V14.3571L37.7884 13.6119L40.3144 17.2726H43.0869L39.4512 11.9372L42.717 8.71073H39.5747L36.9873 11.3163V6.16748H34.3992ZM62.3112 6.16748V17.2106H64.8997V14.3571L65.7004 13.6119L68.2271 17.2726H71L67.3643 11.9372L70.6299 8.71073H67.4878L64.8997 11.3163V6.16748H62.3112Z" fill="#F1F1F1"/>
<path d="M56.273 17.2725C58.7572 17.2725 60.7714 15.2447 60.7714 12.7436C60.7714 10.2425 58.7572 8.21436 56.273 8.21436H56.2116C53.7273 8.21436 51.7134 10.2424 51.7134 12.7436C51.7134 15.2447 53.7273 17.2725 56.2116 17.2725H56.273ZM54.0548 12.7436C54.0548 11.527 55.0347 10.5415 56.2429 10.5415C57.4502 10.5415 58.4299 11.527 58.4299 12.7436C58.4299 13.9602 57.4502 14.9463 56.2429 14.9463C55.0347 14.9461 54.0548 13.9602 54.0548 12.7436Z" fill="#F1F1F1"/>
</g>
<defs>
<clipPath id="clip0_164_457">
<rect width="71" height="21" fill="white"/>
</clipPath>
</defs>
</svg>
