<svg width="87" height="87" viewBox="0 0 87 87" fill="none" xmlns="http://www.w3.org/2000/svg">
<path d="M58.4776 44.959C58.4776 44.959 57.9976 44.9909 57.762 45.0278C56.8516 45.1723 56.5808 45.4153 56.5808 46.5204V55.2376C56.5808 56.4262 57.3316 56.4971 58.3907 56.5559C60.9757 56.7004 62.4773 54.4363 62.4773 50.7748C62.4773 47.111 60.9857 44.959 58.4776 44.959C58.4776 44.959 57.9976 44.9909 57.762 45.0278C56.8516 45.1723 56.5808 45.4153 56.5808 46.5204V55.2376C56.5808 56.4262 57.3316 56.4971 58.3907 56.5559C60.9757 56.7004 62.4773 54.4363 62.4773 50.7748C62.4773 47.111 60.9857 44.959 58.4776 44.959ZM31.3411 45.0868C29.0226 45.0868 27.5907 47.268 27.5907 50.8832C27.5907 54.4173 28.9996 56.5566 31.3835 56.5566C33.7028 56.5566 35.157 54.3336 35.157 50.8441C35.157 47.3099 33.6805 45.0868 31.3411 45.0868ZM45.1795 45.0868C42.8603 45.0868 41.4255 47.268 41.4255 50.8832C41.4255 54.4173 42.8381 56.5566 45.2213 56.5566C47.5383 56.5566 48.9925 54.3336 48.9925 50.8441C48.9925 47.3099 47.5182 45.0868 45.1795 45.0868ZM58.4776 44.959C58.4776 44.959 57.9976 44.9909 57.762 45.0278C56.8516 45.1723 56.5808 45.4153 56.5808 46.5204V55.2376C56.5808 56.4262 57.3316 56.4971 58.3907 56.5559C60.9757 56.7004 62.4773 54.4363 62.4773 50.7748C62.4773 47.111 60.9857 44.959 58.4776 44.959C58.4776 44.959 57.9976 44.9909 57.762 45.0278C56.8516 45.1723 56.5808 45.4153 56.5808 46.5204V55.2376C56.5808 56.4262 57.3316 56.4971 58.3907 56.5559C60.9757 56.7004 62.4773 54.4363 62.4773 50.7748C62.4773 47.111 60.9857 44.959 58.4776 44.959ZM45.1795 45.0868C42.8603 45.0868 41.4255 47.268 41.4255 50.8832C41.4255 54.4173 42.8381 56.5566 45.2213 56.5566C47.5383 56.5566 48.9925 54.3336 48.9925 50.8441C48.9925 47.3099 47.5182 45.0868 45.1795 45.0868ZM31.3411 45.0868C29.0226 45.0868 27.5907 47.268 27.5907 50.8832C27.5907 54.4173 28.9996 56.5566 31.3835 56.5566C33.7028 56.5566 35.157 54.3336 35.157 50.8441C35.157 47.3099 33.6805 45.0868 31.3411 45.0868ZM33.2358 65.5738C33.2006 65.5101 32.6812 64.4511 32.6194 64.3186C32.5619 64.201 32.4182 64.1939 32.3657 64.3237C32.3061 64.4682 31.7938 65.4833 31.7594 65.5563C31.7019 65.6767 31.7665 65.7553 31.8837 65.7553H33.1086C33.1984 65.7553 33.2876 65.6766 33.2358 65.5738ZM31.3411 45.0868C29.0226 45.0868 27.5907 47.268 27.5907 50.8832C27.5907 54.4173 28.9996 56.5566 31.3835 56.5566C33.7028 56.5566 35.157 54.3336 35.157 50.8441C35.157 47.3099 33.6805 45.0868 31.3411 45.0868ZM45.1795 45.0868C42.8603 45.0868 41.4255 47.268 41.4255 50.8832C41.4255 54.4173 42.8381 56.5566 45.2213 56.5566C47.5383 56.5566 48.9925 54.3336 48.9925 50.8441C48.9925 47.3099 47.5182 45.0868 45.1795 45.0868ZM58.4776 44.959C58.4776 44.959 57.9976 44.9909 57.762 45.0278C56.8516 45.1723 56.5808 45.4153 56.5808 46.5204V55.2376C56.5808 56.4262 57.3316 56.4971 58.3907 56.5559C60.9757 56.7004 62.4773 54.4363 62.4773 50.7748C62.4773 47.111 60.9857 44.959 58.4776 44.959C58.4776 44.959 57.9976 44.9909 57.762 45.0278C56.8516 45.1723 56.5808 45.4153 56.5808 46.5204V55.2376C56.5808 56.4262 57.3316 56.4971 58.3907 56.5559C60.9757 56.7004 62.4773 54.4363 62.4773 50.7748C62.4773 47.111 60.9857 44.959 58.4776 44.959ZM45.1795 45.0868C42.8603 45.0868 41.4255 47.268 41.4255 50.8832C41.4255 54.4173 42.8381 56.5566 45.2213 56.5566C47.5383 56.5566 48.9925 54.3336 48.9925 50.8441C48.9925 47.3099 47.5182 45.0868 45.1795 45.0868ZM31.3411 45.0868C29.0226 45.0868 27.5907 47.268 27.5907 50.8832C27.5907 54.4173 28.9996 56.5566 31.3835 56.5566C33.7028 56.5566 35.157 54.3336 35.157 50.8441C35.157 47.3099 33.6805 45.0868 31.3411 45.0868ZM33.2358 65.5738C33.2006 65.5101 32.6812 64.4511 32.6194 64.3186C32.5619 64.201 32.4182 64.1939 32.3657 64.3237C32.3061 64.4682 31.7938 65.4833 31.7594 65.5563C31.7019 65.6767 31.7665 65.7553 31.8837 65.7553H33.1086C33.1984 65.7553 33.2876 65.6766 33.2358 65.5738C33.2006 65.5101 32.6812 64.4511 32.6194 64.3186C32.5619 64.201 32.4182 64.1939 32.3657 64.3237C32.3061 64.4682 31.7938 65.4833 31.7594 65.5563C31.7019 65.6767 31.7665 65.7553 31.8837 65.7553H33.1086C33.1984 65.7553 33.2876 65.6766 33.2358 65.5738ZM31.3411 45.0868C29.0226 45.0868 27.5907 47.268 27.5907 50.8832C27.5907 54.4173 28.9996 56.5566 31.3835 56.5566C33.7028 56.5566 35.157 54.3336 35.157 50.8441C35.157 47.3099 33.6805 45.0868 31.3411 45.0868ZM41.2125 63.4148H39.6513C39.4897 63.4148 39.3208 63.4707 39.3208 63.6691V64.7919C39.3208 64.9683 39.4897 65.071 39.6513 65.071H41.2125C41.737 65.071 42.1645 64.799 42.1645 64.2429C42.1645 63.6868 41.737 63.4148 41.2125 63.4148ZM45.1795 45.0868C42.8603 45.0868 41.4255 47.268 41.4255 50.8832C41.4255 54.4173 42.8381 56.5566 45.2213 56.5566C47.5383 56.5566 48.9925 54.3336 48.9925 50.8441C48.9925 47.3099 47.5182 45.0868 45.1795 45.0868ZM58.4776 44.959C58.4776 44.959 57.9976 44.9909 57.762 45.0278C56.8516 45.1723 56.5808 45.4153 56.5808 46.5204V55.2376C56.5808 56.4262 57.3316 56.4971 58.3907 56.5559C60.9757 56.7004 62.4773 54.4363 62.4773 50.7748C62.4773 47.111 60.9857 44.959 58.4776 44.959C58.4776 44.959 57.9976 44.9909 57.762 45.0278C56.8516 45.1723 56.5808 45.4153 56.5808 46.5204V55.2376C56.5808 56.4262 57.3316 56.4971 58.3907 56.5559C60.9757 56.7004 62.4773 54.4363 62.4773 50.7748C62.4773 47.111 60.9857 44.959 58.4776 44.959ZM45.1795 45.0868C42.8603 45.0868 41.4255 47.268 41.4255 50.8832C41.4255 54.4173 42.8381 56.5566 45.2213 56.5566C47.5383 56.5566 48.9925 54.3336 48.9925 50.8441C48.9925 47.3099 47.5182 45.0868 45.1795 45.0868ZM31.3411 45.0868C29.0226 45.0868 27.5907 47.268 27.5907 50.8832C27.5907 54.4173 28.9996 56.5566 31.3835 56.5566C33.7028 56.5566 35.157 54.3336 35.157 50.8441C35.157 47.3099 33.6805 45.0868 31.3411 45.0868ZM41.2125 63.4148H39.6513C39.4897 63.4148 39.3208 63.4707 39.3208 63.6691V64.7919C39.3208 64.9683 39.4897 65.071 39.6513 65.071H41.2125C41.737 65.071 42.1645 64.799 42.1645 64.2429C42.1645 63.6868 41.737 63.4148 41.2125 63.4148ZM33.2358 65.5738C33.2006 65.5101 32.6812 64.4511 32.6194 64.3186C32.5619 64.201 32.4182 64.1939 32.3657 64.3237C32.3061 64.4682 31.7938 65.4833 31.7594 65.5563C31.7019 65.6767 31.7665 65.7553 31.8837 65.7553H33.1086C33.1984 65.7553 33.2876 65.6766 33.2358 65.5738C33.2006 65.5101 32.6812 64.4511 32.6194 64.3186C32.5619 64.201 32.4182 64.1939 32.3657 64.3237C32.3061 64.4682 31.7938 65.4833 31.7594 65.5563C31.7019 65.6767 31.7665 65.7553 31.8837 65.7553H33.1086C33.1984 65.7553 33.2876 65.6766 33.2358 65.5738ZM31.3411 45.0868C29.0226 45.0868 27.5907 47.268 27.5907 50.8832C27.5907 54.4173 28.9996 56.5566 31.3835 56.5566C33.7028 56.5566 35.157 54.3336 35.157 50.8441C35.157 47.3099 33.6805 45.0868 31.3411 45.0868ZM41.2125 63.4148H39.6513C39.4897 63.4148 39.3208 63.4707 39.3208 63.6691V64.7919C39.3208 64.9683 39.4897 65.071 39.6513 65.071H41.2125C41.737 65.071 42.1645 64.799 42.1645 64.2429C42.1645 63.6868 41.737 63.4148 41.2125 63.4148ZM45.1795 45.0868C42.8603 45.0868 41.4255 47.268 41.4255 50.8832C41.4255 54.4173 42.8381 56.5566 45.2213 56.5566C47.5383 56.5566 48.9925 54.3336 48.9925 50.8441C48.9925 47.3099 47.5182 45.0868 45.1795 45.0868ZM58.4776 44.959C58.4776 44.959 57.9976 44.9909 57.762 45.0278C56.8516 45.1723 56.5808 45.4153 56.5808 46.5204V55.2376C56.5808 56.4262 57.3316 56.4971 58.3907 56.5559C60.9757 56.7004 62.4773 54.4363 62.4773 50.7748C62.4773 47.111 60.9857 44.959 58.4776 44.959C58.4776 44.959 57.9976 44.9909 57.762 45.0278C56.8516 45.1723 56.5808 45.4153 56.5808 46.5204V55.2376C56.5808 56.4262 57.3316 56.4971 58.3907 56.5559C60.9757 56.7004 62.4773 54.4363 62.4773 50.7748C62.4773 47.111 60.9857 44.959 58.4776 44.959ZM45.1795 45.0868C42.8603 45.0868 41.4255 47.268 41.4255 50.8832C41.4255 54.4173 42.8381 56.5566 45.2213 56.5566C47.5383 56.5566 48.9925 54.3336 48.9925 50.8441C48.9925 47.3099 47.5182 45.0868 45.1795 45.0868ZM31.3411 45.0868C29.0226 45.0868 27.5907 47.268 27.5907 50.8832C27.5907 54.4173 28.9996 56.5566 31.3835 56.5566C33.7028 56.5566 35.157 54.3336 35.157 50.8441C35.157 47.3099 33.6805 45.0868 31.3411 45.0868ZM41.2125 63.4148H39.6513C39.4897 63.4148 39.3208 63.4707 39.3208 63.6691V64.7919C39.3208 64.9683 39.4897 65.071 39.6513 65.071H41.2125C41.737 65.071 42.1645 64.799 42.1645 64.2429C42.1645 63.6868 41.737 63.4148 41.2125 63.4148ZM33.2358 65.5738C33.2006 65.5101 32.6812 64.4511 32.6194 64.3186C32.5619 64.201 32.4182 64.1939 32.3657 64.3237C32.3061 64.4682 31.7938 65.4833 31.7594 65.5563C31.7019 65.6767 31.7665 65.7553 31.8837 65.7553H33.1086C33.1984 65.7553 33.2876 65.6766 33.2358 65.5738ZM76.2041 57.6309C76.2041 57.4864 76.0575 57.4517 75.9131 57.4517H75.7148V57.8073H75.8635C76.0453 57.8073 76.2041 57.7974 76.2041 57.6309ZM76.2041 58.5178L75.8362 58.0056H75.7119V58.5178H75.4928V57.2533H75.9749C76.2759 57.2533 76.4125 57.3709 76.4125 57.6309C76.4125 57.8831 76.2709 57.9809 76.0848 58.0007L76.457 58.5178L76.2041 58.5178ZM75.9081 57.0472C75.4131 57.0472 75.0452 57.4127 75.0452 57.9171C75.0452 58.4222 75.4131 58.7848 75.9081 58.7848C76.4053 58.7848 76.7703 58.4221 76.7703 57.9171C76.7703 57.4127 76.4053 57.0472 75.9081 57.0472ZM32.6194 64.3186C32.5619 64.201 32.4182 64.1939 32.3657 64.3237C32.3061 64.4682 31.7938 65.4833 31.7594 65.5563C31.7019 65.6767 31.7665 65.7553 31.8837 65.7553H33.1086C33.1984 65.7553 33.2876 65.6766 33.2358 65.5738C33.2006 65.5101 32.6812 64.4511 32.6194 64.3186ZM31.3411 45.0868C29.0226 45.0868 27.5907 47.268 27.5907 50.8832C27.5907 54.4173 28.9996 56.5566 31.3835 56.5566C33.7028 56.5566 35.157 54.3336 35.157 50.8441C35.157 47.3099 33.6805 45.0868 31.3411 45.0868ZM41.2125 63.4148H39.6513C39.4897 63.4148 39.3208 63.4707 39.3208 63.6691V64.7919C39.3208 64.9683 39.4897 65.071 39.6513 65.071H41.2125C41.737 65.071 42.1645 64.799 42.1645 64.2429C42.1645 63.6868 41.737 63.4148 41.2125 63.4148ZM45.1795 45.0868C42.8603 45.0868 41.4255 47.268 41.4255 50.8832C41.4255 54.4173 42.8381 56.5566 45.2213 56.5566C47.5383 56.5566 48.9925 54.3336 48.9925 50.8441C48.9925 47.3099 47.5182 45.0868 45.1795 45.0868ZM62.4773 50.7748C62.4773 47.111 60.9857 44.959 58.4776 44.959C58.4776 44.959 57.9976 44.9909 57.762 45.0278C56.8516 45.1723 56.5808 45.4153 56.5808 46.5204V55.2376C56.5808 56.4262 57.3316 56.4971 58.3907 56.5559C60.9757 56.7004 62.4773 54.4363 62.4773 50.7748ZM77.0288 40.6887C76.9447 41.0705 76.7033 41.2108 76.278 41.2108L75.7391 41.213H67.4634C66.7529 41.213 66.5115 41.0735 66.5115 40.6101C66.5115 40.3041 66.7529 40.0512 67.036 40.0512H67.4635C67.61 40.0512 67.7573 39.9237 67.8019 39.7842C67.8665 39.6149 67.8838 39.5121 67.8838 38.9511V29.6479C67.8838 29.1088 67.8665 29.0004 67.8019 28.8319C67.7573 28.6477 67.5878 28.523 67.4635 28.523H67.036C66.7529 28.523 66.4942 28.251 66.4942 27.9421C66.4942 27.4809 66.7529 27.3315 67.4634 27.3315H75.8874C76.3128 27.3315 76.5513 27.4717 76.6382 27.8536L76.9364 29.3001C77.0506 29.8342 76.8595 30.1212 76.4744 30.1212C76.2703 30.1212 76.0742 30.0694 75.9319 29.7974C75.9075 29.7557 75.8206 29.604 75.7236 29.349C75.5174 28.8142 75.092 28.7483 74.1099 28.7483H72.1218C70.9708 28.7483 70.8415 28.8978 70.8415 30.0029V32.4738C70.8415 32.9392 70.9083 33.1425 71.0355 33.2261C71.1325 33.2919 71.2891 33.3068 71.8934 33.3068H72.8748C73.76 33.3068 73.8864 33.2431 73.9511 32.8265L73.9662 32.699C74.0309 32.3462 74.2198 32.1798 74.5381 32.1798C74.98 32.1798 75.1272 32.427 75.1272 33.1574V34.905C75.1272 35.6325 74.98 35.8826 74.5381 35.8826C74.2198 35.8826 74.0309 35.6941 73.9662 35.3414L73.9439 35.2039C73.8814 34.7874 73.755 34.7258 72.8677 34.7258H71.8934C71.2892 34.7258 71.1325 34.7407 71.0356 34.8065C70.9084 34.8901 70.8416 35.0913 70.8416 35.5596V38.1962C70.8416 39.297 70.9084 39.5294 71.2418 39.6569C71.5126 39.7575 71.8058 39.8014 72.497 39.8014L74.5949 39.7963C75.3479 39.7963 75.8802 39.564 76.1411 39.0249C76.2603 38.7798 76.2977 38.6863 76.3229 38.6445C76.4644 38.3725 76.6878 38.2528 76.894 38.2528C77.277 38.2528 77.466 38.5397 77.3539 39.0738L77.0288 40.6887ZM75.9079 59.0015C75.2987 59.0015 74.8116 58.5162 74.8116 57.9176C74.8116 57.3147 75.2987 56.8324 75.9079 56.8324C76.5143 56.8324 77.0043 57.3148 77.0043 57.9176C77.0043 58.5162 76.5143 59.0015 75.9079 59.0015ZM70.9936 58.0629C70.2154 58.0629 69.3806 57.9545 68.7785 57.7682C68.4753 57.6874 68.4408 57.6655 68.3215 57.6655C68.1426 57.6655 68.0528 57.7073 67.8718 57.8716C67.6727 58.0211 67.5686 58.0629 67.3818 58.0629C67.029 58.0629 66.8551 57.8716 66.7308 57.3736L66.1984 55.2931C66.1589 55.1684 66.1438 54.9793 66.1438 54.8766C66.1438 54.5068 66.4348 54.227 66.8099 54.227C67.029 54.227 67.2101 54.3375 67.3394 54.5068L67.6426 54.9184C68.3733 55.9356 69.5544 56.5654 70.7601 56.5654C72.1295 56.5654 73.0643 55.8102 73.0643 54.7101C73.0643 54.1462 72.8279 53.6489 72.3782 53.1488C71.9212 52.6515 71.3544 52.1932 70.1408 51.3622C68.1428 49.9823 67.956 49.8569 67.3 49.1124C66.7683 48.5046 66.4967 47.7593 66.4967 46.9284C66.4967 44.9115 68.0529 43.5784 70.3772 43.5784C70.9735 43.5784 71.5828 43.6343 72.197 43.7647C72.261 43.7867 72.4327 43.8256 72.7309 43.8922C72.8279 43.9113 72.9378 43.9333 73.0197 43.9333C73.1591 43.9333 73.32 43.8653 73.504 43.7449C73.713 43.5954 73.7798 43.5784 73.9494 43.5784C74.2598 43.5784 74.4588 43.7867 74.5436 44.1593L75.048 46.4091C75.0853 46.5069 75.0853 46.6323 75.0853 46.6982C75.0853 46.9702 74.8389 47.1954 74.479 47.1954C74.2526 47.1954 74.1132 47.1126 73.9193 46.8455C73.4443 46.1371 73.3553 46.0556 72.9148 45.7206C72.3487 45.2842 71.6223 45.0512 70.9318 45.0512C69.9568 45.0512 69.326 45.5981 69.326 46.451C69.326 46.757 69.3806 47.0729 69.5545 47.3032C69.7679 47.617 70.1063 47.9457 70.5237 48.2595C70.7845 48.443 71.1179 48.681 71.5676 48.9899C73.233 50.134 73.7798 50.5512 74.4587 51.2348C75.1721 51.9623 75.5997 53.0015 75.5997 54.0705C75.5997 56.4748 73.7799 58.0629 70.9936 58.0629ZM65.6667 63.4248H64.4389C64.27 63.4248 64.1479 63.4793 64.1479 63.6798L64.1551 67.2997C64.1551 67.5547 63.9711 67.5845 63.683 67.5845C63.405 67.5845 63.2182 67.5569 63.2182 67.3096V63.6848C63.2182 63.5084 63.1535 63.4248 62.9301 63.4248H61.6871C61.4859 63.4248 61.4285 63.2342 61.4285 63.0749C61.4285 62.8985 61.4133 62.5577 61.6799 62.5577H65.6466C65.8255 62.5577 65.9448 62.6555 65.9448 62.9792C65.9448 63.2661 65.8679 63.4248 65.6667 63.4248ZM55.4649 64.5447H57.2173C57.4285 64.5447 57.4839 64.7268 57.4839 64.991C57.4839 65.2213 57.4336 65.4224 57.2374 65.4224H55.4901C55.3507 65.4224 55.2243 65.5181 55.2243 65.6775V66.4099C55.2243 66.5863 55.3213 66.6699 55.465 66.6699H58.4704C58.6694 66.6699 58.7391 66.7996 58.7391 67.1233C58.7391 67.3564 58.6845 67.5476 58.4732 67.5476H54.6028C54.3786 67.5476 54.2867 67.4421 54.2867 67.18V62.8808C54.2867 62.6852 54.3664 62.5478 54.5977 62.5478H58.4804C58.7117 62.5478 58.7534 62.6994 58.7534 62.9714C58.7534 63.2243 58.7189 63.4248 58.4682 63.4248H55.4326C55.3112 63.4248 55.2243 63.5183 55.2243 63.6479V64.3245C55.2243 64.4669 55.3284 64.5447 55.4649 64.5447ZM52.2764 57.1067C52.2764 56.7929 52.4876 56.5286 52.7779 56.5286H53.2082C53.3527 56.5286 53.4964 56.4181 53.5661 56.2566C53.6084 56.1071 53.6307 55.9818 53.6307 55.4377V46.1765C53.6307 45.6345 53.6085 45.5077 53.5661 45.3576C53.4964 45.1989 53.3527 45.0855 53.2082 45.0855H52.7779C52.4876 45.0855 52.2764 44.8213 52.2764 44.5075C52.2764 44.0541 52.594 43.9904 53.2082 43.8997C53.8247 43.8111 55.5447 43.5788 58.1772 43.5788C60.8068 43.5788 62.4399 44.142 63.7325 45.4313C64.9733 46.6596 65.6465 48.551 65.6465 50.7987C65.6465 53.3156 64.7865 55.3962 63.2209 56.6245C62.0052 57.595 60.4792 58.0364 58.1772 58.0364C55.5447 58.0364 53.8247 57.8033 53.2082 57.7148C52.5939 57.627 52.2764 57.5629 52.2764 57.1067ZM45.1543 58.0556C41.7516 58.0556 39.3157 56.1613 38.5328 53.1074C38.5227 53.0854 38.5156 53.0635 38.5106 53.0387C38.4409 52.6958 38.1276 52.671 38.0529 53.0364C38.0529 53.0485 38.0428 53.0605 38.0378 53.0733C37.2474 56.171 34.7989 58.0554 31.3163 58.0554C27.1427 58.0554 24.4258 55.2077 24.4258 50.8644C24.4258 46.4192 27.123 43.5906 31.3582 43.5906C34.8357 43.5906 37.3095 45.5026 38.0671 48.6195C38.1468 48.9773 38.4551 48.9503 38.5219 48.6103C38.5219 48.6103 38.5219 48.6004 38.5291 48.5975C39.3021 45.4799 41.7356 43.5906 45.1977 43.5906C49.4137 43.5906 52.1525 46.3965 52.1525 50.7618C52.1525 55.2077 49.4329 58.0556 45.1543 58.0556ZM50.9972 67.587C50.5697 67.587 50.4526 67.5211 50.3434 67.3908L48.7203 65.6828C48.499 65.4936 48.2777 65.4646 47.9746 65.4646C47.805 65.4646 47.6735 65.636 47.6735 65.8344V67.2902C47.6735 67.5671 47.4328 67.5849 47.1691 67.5849C46.8904 67.5849 46.7438 67.5083 46.7438 67.288V62.8443C46.7438 62.5822 46.9105 62.5383 47.2388 62.5383C47.4975 62.5383 47.6735 62.5971 47.6735 62.8372V64.1782C47.6735 64.3935 47.7734 64.4991 47.9099 64.4991C48.305 64.4991 48.3898 64.4155 48.5364 64.2908C48.7002 64.1534 50.3656 62.6459 50.3656 62.6459C50.5747 62.4696 50.7859 62.4724 50.9871 62.6629C51.1538 62.8202 51.2278 62.9966 51.0417 63.1779C50.9124 63.3026 49.451 64.6067 49.451 64.6067C49.2692 64.7612 49.3145 64.9057 49.4388 65.0403C49.4388 65.0403 51.1933 66.9473 51.3772 67.1435C51.6531 67.4396 51.3995 67.587 50.9972 67.587ZM42.0777 65.974C42.1179 66.0335 42.8284 67.0501 42.9327 67.2023C43.0893 67.4326 42.9478 67.5849 42.4635 67.5849C42.1926 67.5849 42.0109 67.5381 41.8937 67.3667L41.1063 66.1603C41.0165 66.0257 40.8872 65.94 40.7104 65.94H39.5845C39.448 65.94 39.3187 66.0505 39.3187 66.1851L39.3259 67.3886C39.3259 67.626 38.8589 67.587 38.7051 67.587C38.5032 67.587 38.3919 67.5303 38.3919 67.3079L38.399 62.7317C38.399 62.612 38.5032 62.5404 38.6153 62.5404H41.2852C42.3162 62.5404 43.0922 63.195 43.0922 64.2441C43.0922 65.1508 42.4283 65.4477 42.1624 65.67C42.031 65.7834 41.9986 65.8614 42.0777 65.974ZM34.5739 67.5869C34.4194 67.5869 34.1859 67.5621 34.1134 67.3956L33.7857 66.7269C33.7433 66.6384 33.6564 66.5675 33.5494 66.5675H31.4586C31.3271 66.5675 31.2078 66.6653 31.1331 66.8495L30.8429 67.3956C30.7782 67.555 30.4621 67.5798 30.3155 67.5798C30.1862 67.5798 29.7616 67.5649 29.8952 67.2851L32.1153 62.7443C32.1771 62.6119 32.2942 62.5113 32.5033 62.5113C32.7116 62.5113 32.8259 62.58 32.8955 62.7266C32.8955 62.7266 35.0158 67.1824 35.0754 67.3128C35.1853 67.5451 34.7277 67.5869 34.5739 67.5869ZM26.5373 67.5869C26.408 67.5869 26.1673 67.5161 26.1673 67.3489L25.8095 64.6804C25.7865 64.5698 25.7448 64.521 25.655 64.521C25.5832 64.521 25.5458 64.555 25.4962 64.6166L24.2806 66.151C24.2181 66.2339 24.1362 66.2856 24.0392 66.2856C23.9005 66.2856 23.8402 66.2508 23.7611 66.1361L22.6425 64.6485C22.5929 64.5868 22.5383 64.5698 22.4808 64.5698C22.3917 64.5698 22.3465 64.6485 22.3343 64.7512L21.9836 67.3319C21.9513 67.5451 21.6855 67.5869 21.4663 67.5869C21.3147 67.5869 21.0568 67.5161 21.0568 67.3248L21.5712 62.9746C21.6258 62.7146 21.6826 62.5652 22.0634 62.5652C22.1604 62.5652 22.317 62.5921 22.4384 62.7784L23.828 64.7045C23.9027 64.8101 23.9875 64.8986 24.0794 64.8958C24.1714 64.8935 24.2655 64.8002 24.3453 64.6974L25.8117 62.7316C25.9015 62.597 26.038 62.5404 26.1996 62.5404C26.3757 62.5404 26.505 62.58 26.5797 62.8719L27.0941 67.3319C27.1193 67.5869 26.7141 67.5869 26.5373 67.5869ZM17.7955 55.4831C17.7955 56.0441 17.7955 56.1447 17.8451 56.2913C17.9342 56.4578 18.126 56.5662 18.2948 56.5662H18.7719C19.1024 56.5662 19.3316 56.8332 19.3316 57.1471C19.3316 57.6054 19.073 57.7499 18.2948 57.7499H14.4122C13.6915 57.7499 13.4379 57.6054 13.4379 57.1471C13.4379 56.8332 13.6915 56.5662 13.9818 56.5662H14.4122C14.5559 56.5662 14.6981 56.4578 14.7678 56.2913C14.8124 56.1447 14.8346 56.0441 14.8346 55.4831V46.1788C14.8346 45.6397 14.8174 45.532 14.7499 45.3655C14.7053 45.1813 14.5365 45.0538 14.4122 45.0538H13.9847C13.7009 45.0538 13.4429 44.7846 13.4429 44.4736C13.4429 44.0153 13.7009 43.8658 14.4121 43.8658H23.5598C23.9844 43.8658 24.2258 44.0054 24.3099 44.3872L24.6088 45.8337C24.723 46.365 24.5312 46.6548 24.1482 46.6548C23.942 46.6548 23.7459 46.601 23.6043 46.3289C23.5792 46.2893 23.4951 46.1348 23.3953 45.8827C23.189 45.3485 22.7637 45.2798 21.7823 45.2798H19.0729C17.9198 45.2798 17.7904 45.4314 17.7904 46.5344V49.0074C17.7904 49.4728 17.8573 49.674 17.9866 49.7597C18.0836 49.8263 18.2373 49.8405 18.8444 49.8405H20.5889C21.4741 49.8405 21.6005 49.7767 21.6652 49.3602L21.6803 49.2305C21.745 48.8778 21.9339 48.7106 22.2493 48.7106C22.6948 48.7106 22.8414 48.9606 22.8414 49.6888V51.4386C22.8414 52.1668 22.6948 52.4162 22.2493 52.4162C21.9339 52.4162 21.745 52.2277 21.6803 51.8749L21.658 51.7375C21.5955 51.321 21.469 51.2572 20.5817 51.2572H18.8444C18.2373 51.2572 18.0835 51.2721 17.9866 51.338C17.8572 51.4237 17.7904 51.6249 17.7904 52.0931L17.7955 55.4831ZM10.8498 29.5185C10.5344 28.6634 10.4345 28.5608 9.75843 28.4162C9.30866 28.3348 9.16928 28.1903 9.16928 27.8545C9.16928 27.5017 9.39344 27.3154 9.87769 27.3154H14.2352C14.7152 27.3154 14.9285 27.5017 14.9285 27.8765C14.9285 28.2271 14.7151 28.3695 14.1684 28.4162C13.7035 28.4573 13.5146 28.6047 13.5146 28.9355C13.5146 29.0779 13.5318 29.2274 13.5914 29.3988L13.7581 29.8741C13.7581 29.8741 16.0874 36.3789 16.4553 37.425C16.5171 37.5922 16.7089 37.5844 16.7736 37.3981C17.1831 36.2392 18.2967 33.0507 18.337 32.9211C18.4512 32.5534 18.5008 32.1659 18.3664 31.7416C18.3197 31.5921 17.6063 29.5187 17.6063 29.5187C17.5265 29.2934 17.4791 29.1269 17.4317 29.0412C17.3074 28.7373 17.1364 28.6268 16.6493 28.4993C16.2139 28.3937 16.0472 28.2521 16.0472 27.9432C16.0472 27.5437 16.2908 27.3156 16.7829 27.3156H20.9242C21.4042 27.3156 21.6376 27.5019 21.6376 27.8766C21.6376 28.2074 21.4242 28.3697 20.9543 28.4355C20.3925 28.4993 20.2409 28.6268 20.2409 28.9994C20.2409 29.1879 20.2833 29.3742 20.4572 29.8743C20.4572 29.8743 22.5005 36.2493 22.8238 37.2518C22.8856 37.4402 23.0674 37.3984 23.1191 37.232C23.4374 36.2126 25.4585 29.519 25.4585 29.519C25.5181 29.3107 25.5404 29.1442 25.5404 29.0196C25.5404 28.7079 25.3141 28.5414 24.8018 28.4776C24.3369 28.4358 24.1236 28.2276 24.1236 27.8968C24.1236 27.4802 24.365 27.3159 24.9261 27.3159H32.2396C32.9358 27.3159 33.1664 27.4554 33.1664 27.9116C33.1664 28.2524 32.9358 28.4996 32.6448 28.4996H32.2396C32.0657 28.4996 31.9012 28.6271 31.8365 28.7645C31.797 28.9189 31.7798 29.0635 31.7798 29.5827V32.2668C31.7798 33.2274 31.8638 33.3082 32.6448 33.3082H35.5108C35.9304 33.3082 36.1474 33.2423 36.2537 33.1218C36.3507 32.9943 36.3507 32.9136 36.3507 32.1414V29.5827C36.3507 29.0415 36.3507 28.919 36.299 28.7645C36.2242 28.6051 36.0576 28.4996 35.9131 28.4996H35.5108C35.1925 28.4996 34.9367 28.2523 34.9367 27.9116C34.9367 27.4554 35.1925 27.3159 35.9132 27.3159H39.7491C40.4669 27.3159 40.7234 27.4554 40.7234 27.9116C40.7234 28.2523 40.4669 28.4996 40.1788 28.4996H39.7491C39.6047 28.4996 39.4359 28.6271 39.3906 28.7645C39.331 28.9189 39.3166 29.0634 39.3166 29.5827V38.9256C39.3166 39.4668 39.331 39.5893 39.3906 39.7586C39.4359 39.9031 39.6047 40.0066 39.7491 40.0066H40.1788C40.4921 40.0066 40.7234 40.2786 40.7234 40.5868C40.7234 41.0479 40.4921 41.1903 39.7491 41.1903H35.9132C35.1925 41.1903 34.9641 41.0479 34.9641 40.5868C34.9641 40.2786 35.2199 40.0066 35.5109 40.0066H35.9132C36.0576 40.0066 36.2243 39.9031 36.299 39.7586C36.3508 39.5893 36.3508 39.4668 36.3508 38.9256V35.8887C36.3508 35.1165 36.3508 35.0358 36.2538 34.9111C36.1474 34.7885 35.9304 34.7219 35.5109 34.7219H32.6449C31.8639 34.7219 31.7798 34.8034 31.7798 35.764V38.9256C31.7798 39.4668 31.7971 39.5893 31.8366 39.7587C31.9012 39.9032 32.0658 40.0066 32.2396 40.0066H32.6449C32.9358 40.0066 33.1521 40.2786 33.1521 40.6116C33.1521 41.0479 32.9107 41.1903 32.2396 41.1903H28.3944C27.6859 41.1903 27.4294 41.0479 27.4294 40.5867C27.4294 40.2786 27.6859 40.0065 27.9762 40.0065H28.3943C28.543 40.0065 28.7169 39.9031 28.7572 39.7586C28.8218 39.5893 28.8218 39.4816 28.8218 38.9255V29.5827C28.8218 28.5215 28.3167 28.4507 27.9467 28.4996C27.5738 28.5513 27.3554 28.7844 27.1262 29.519L23.7631 40.1953C23.4599 41.2126 23.1739 41.5037 22.5431 41.5037C21.9137 41.5037 21.5933 41.2345 21.3396 40.4645C21.3396 40.4645 19.6023 35.3428 19.5448 35.1735C19.4852 35.0042 19.3063 34.9993 19.2567 35.1615C19.2093 35.3251 17.3398 40.4645 17.3398 40.4645C17.1365 40.9625 17.0841 41.107 16.9124 41.2763C16.7464 41.3989 16.4698 41.5037 16.1939 41.5037C15.5824 41.5037 15.2822 41.2536 14.9911 40.4645L10.8498 29.5185ZM38.8566 23.22C39.5621 20.6365 42.1099 18.0289 44.9263 18.8259C47.3152 19.4974 47.1464 21.4434 48.8837 22.0533C49.5073 22.2715 49.4577 22.8892 48.9138 22.9919C47.9964 23.1633 46.7584 22.5066 45.8337 21.6806C44.7524 20.713 42.995 20.7547 42.1372 21.3987C41.7621 21.6806 41.9532 21.9505 42.2967 21.8747C43.092 21.7054 44.4392 21.6615 45.4759 22.8084C46.4947 23.9355 48.3936 24.9427 50.0741 23.8618C50.5368 23.5657 50.8372 22.9529 51.307 23.0854C51.8093 23.2249 51.8164 23.9454 51.1583 24.7834C49.6042 26.7591 48.0114 26.5239 46.3036 28.173C44.5979 29.8222 44.2531 31.6973 44.2531 34.0793C44.2531 37.7729 45.7267 40.01 48.2176 40.01C50.641 40.01 52.1621 37.6871 52.1621 34.0357C52.1621 31.0257 51.4393 29.0798 49.6266 28.3934C48.7494 28.0725 48.8988 27.2273 50.0297 27.0949C50.9615 26.9872 51.874 27.3003 52.8755 28.0286C54.6034 29.2831 55.4656 31.278 55.4656 33.9501C55.4656 38.5994 52.6247 41.5747 48.1532 41.5747C43.7884 41.5747 40.9466 38.5995 40.9466 34.0578C40.9466 31.1364 42.0603 28.8866 43.9865 27.6171C44.7919 27.0235 46.1541 26.3399 47.4891 25.8943C47.765 25.8008 47.7629 25.3177 47.2729 25.4112C46.6888 25.5267 45.6146 25.6095 44.7273 25.2568C42.7363 24.4825 42.1573 23.0976 39.8136 24.09C39.1073 24.389 38.6526 23.9653 38.8566 23.22ZM56.669 27.3323H60.5667C61.3269 27.3323 61.5855 27.4818 61.5855 27.9429C61.5855 28.2737 61.3269 28.5238 61.0266 28.5238H60.5667C60.3728 28.5238 60.1838 28.6265 60.1242 28.7958C60.0617 28.9354 60.0617 29.0629 60.0617 29.6048V38.3413C60.0617 39.2558 60.1019 39.469 60.3505 39.6107C60.5667 39.7581 60.8893 39.797 61.7371 39.797H62.9255C63.6785 39.797 64.2108 39.5647 64.4717 39.0256C64.5909 38.7777 64.6283 38.687 64.6527 38.6452C64.795 38.3732 65.0184 38.2506 65.2225 38.2506C65.6076 38.2506 65.7965 38.5404 65.6845 39.0745L65.359 40.6897C65.2742 41.0715 65.0335 41.2117 64.6082 41.2117H56.6693C55.9659 41.2117 55.7346 41.0743 55.7346 40.611C55.7346 40.305 55.966 40.0521 56.2613 40.0521H56.6694C56.8087 40.0521 56.9797 39.9246 57.0221 39.785C57.0846 39.6306 57.104 39.53 57.104 39.0108V29.6045C57.104 29.0427 57.0847 28.9598 57.0221 28.7955C56.9797 28.6262 56.8087 28.5235 56.6694 28.5235H56.2613C55.9437 28.5235 55.6872 28.2734 55.6872 27.9426C55.6872 27.4814 55.9433 27.3323 56.669 27.3323ZM43.5 0.529785C19.4753 0.529785 0 19.7323 0 43.4193C0 67.1068 19.4759 86.3087 43.5 86.3087C67.5276 86.3087 87 67.1062 87 43.4193C87 19.7318 67.527 0.529785 43.5 0.529785ZM76.2041 57.6309C76.2041 57.4864 76.0575 57.4517 75.9131 57.4517H75.7148V57.8073H75.8635C76.0453 57.8073 76.2041 57.7974 76.2041 57.6309ZM76.2041 58.5178L75.8362 58.0056H75.7119V58.5178H75.4928V57.2533H75.9749C76.2759 57.2533 76.4125 57.3709 76.4125 57.6309C76.4125 57.8831 76.2709 57.9809 76.0848 58.0007L76.457 58.5178L76.2041 58.5178ZM75.9081 57.0472C75.4131 57.0472 75.0452 57.4127 75.0452 57.9171C75.0452 58.4222 75.4131 58.7848 75.9081 58.7848C76.4053 58.7848 76.7703 58.4221 76.7703 57.9171C76.7703 57.4127 76.4053 57.0472 75.9081 57.0472ZM33.2315 65.5749C33.1964 65.5112 32.6769 64.4522 32.6151 64.3197C32.5576 64.2021 32.4139 64.195 32.3615 64.3248C32.3018 64.4693 31.7896 65.4844 31.7551 65.5574C31.6976 65.6778 31.7623 65.7564 31.8794 65.7564H33.1043C33.1942 65.7564 33.2833 65.6777 33.2315 65.5749ZM41.2083 63.4159H39.6471C39.4855 63.4159 39.3166 63.4718 39.3166 63.6702V64.793C39.3166 64.9694 39.4855 65.0721 39.6471 65.0721H41.2083C41.7328 65.0721 42.1603 64.8001 42.1603 64.244C42.1603 63.688 41.7328 63.4159 41.2083 63.4159ZM31.337 45.0884C29.0185 45.0884 27.5866 47.2696 27.5866 50.8848C27.5866 54.4189 28.9955 56.5581 31.3795 56.5581C33.6987 56.5581 35.1529 54.3352 35.1529 50.8457C35.1529 47.3115 33.6764 45.0884 31.337 45.0884ZM45.1755 45.0884C42.8562 45.0884 41.4215 47.2696 41.4215 50.8848C41.4215 54.4189 42.834 56.5581 45.2172 56.5581C47.5342 56.5581 48.9884 54.3352 48.9884 50.8457C48.9884 47.3115 47.5141 45.0884 45.1755 45.0884ZM58.4736 44.9609C58.4736 44.9609 57.9937 44.9927 57.758 45.0296C56.8477 45.1741 56.5768 45.4171 56.5768 46.5222V55.2394C56.5768 56.4281 57.3276 56.4989 58.3867 56.5577C60.9718 56.7022 62.4734 54.4382 62.4734 50.7767C62.4734 47.1129 60.9818 44.9609 58.4736 44.9609ZM76.1993 57.6322C76.1993 57.4877 76.0528 57.453 75.9083 57.453H75.7101V57.8086H75.8588C76.0406 57.8086 76.1993 57.7987 76.1993 57.6322ZM76.1993 58.5191L75.8315 58.0069H75.7072V58.5191H75.488V57.2547H75.9701C76.2712 57.2547 76.4077 57.3722 76.4077 57.6322C76.4077 57.8844 76.2661 57.9822 76.0801 58.002L76.4522 58.5191L76.1993 58.5191ZM75.9033 57.0485C75.4083 57.0485 75.0405 57.414 75.0405 57.9184C75.0405 58.4235 75.4083 58.7861 75.9033 58.7861C76.4005 58.7861 76.7655 58.4234 76.7655 57.9184C76.7655 57.414 76.4005 57.0485 75.9033 57.0485ZM58.4736 44.9609C58.4736 44.9609 57.9937 44.9927 57.758 45.0296C56.8477 45.1741 56.5768 45.4171 56.5768 46.5222V55.2394C56.5768 56.4281 57.3276 56.4989 58.3867 56.5577C60.9718 56.7022 62.4734 54.4382 62.4734 50.7767C62.4734 47.1129 60.9818 44.9609 58.4736 44.9609ZM45.1755 45.0884C42.8562 45.0884 41.4215 47.2696 41.4215 50.8848C41.4215 54.4189 42.834 56.5581 45.2172 56.5581C47.5342 56.5581 48.9884 54.3352 48.9884 50.8457C48.9884 47.3115 47.5141 45.0884 45.1755 45.0884ZM41.2083 63.4159H39.6471C39.4855 63.4159 39.3166 63.4718 39.3166 63.6702V64.793C39.3166 64.9694 39.4855 65.0721 39.6471 65.0721H41.2083C41.7328 65.0721 42.1603 64.8001 42.1603 64.244C42.1603 63.688 41.7328 63.4159 41.2083 63.4159ZM31.337 45.0884C29.0185 45.0884 27.5866 47.2696 27.5866 50.8848C27.5866 54.4189 28.9955 56.5581 31.3795 56.5581C33.6987 56.5581 35.1529 54.3352 35.1529 50.8457C35.1529 47.3115 33.6764 45.0884 31.337 45.0884ZM33.2315 65.5749C33.1964 65.5112 32.6769 64.4522 32.6151 64.3197C32.5576 64.2021 32.4139 64.195 32.3615 64.3248C32.3018 64.4693 31.7896 65.4844 31.7551 65.5574C31.6976 65.6778 31.7623 65.7564 31.8794 65.7564H33.1043C33.1942 65.7564 33.2833 65.6777 33.2315 65.5749C33.1964 65.5112 32.6769 64.4522 32.6151 64.3197C32.5576 64.2021 32.4139 64.195 32.3615 64.3248C32.3018 64.4693 31.7896 65.4844 31.7551 65.5574C31.6976 65.6778 31.7623 65.7564 31.8794 65.7564H33.1043C33.1942 65.7564 33.2803 65.6784 33.2285 65.5757M41.2083 63.4159H39.6471C39.4855 63.4159 39.3166 63.4718 39.3166 63.6702V64.793C39.3166 64.9694 39.4855 65.0721 39.6471 65.0721H41.2083C41.7328 65.0721 42.1603 64.8001 42.1603 64.244C42.1603 63.688 41.7328 63.4159 41.2083 63.4159ZM31.337 45.0884C29.0185 45.0884 27.5866 47.2696 27.5866 50.8848C27.5866 54.4189 28.9955 56.5581 31.3795 56.5581C33.6987 56.5581 35.1529 54.3352 35.1529 50.8457C35.1529 47.3115 33.6764 45.0884 31.337 45.0884ZM45.1755 45.0884C42.8562 45.0884 41.4215 47.2696 41.4215 50.8848C41.4215 54.4189 42.834 56.5581 45.2172 56.5581C47.5342 56.5581 48.9884 54.3352 48.9884 50.8457C48.9884 47.3115 47.5141 45.0884 45.1755 45.0884ZM58.4736 44.9609C58.4736 44.9609 57.9937 44.9927 57.758 45.0296C56.8477 45.1741 56.5768 45.4171 56.5768 46.5222V55.2394C56.5768 56.4281 57.3276 56.4989 58.3867 56.5577C60.9718 56.7022 62.4734 54.4382 62.4734 50.7767C62.4734 47.1129 60.9818 44.9609 58.4736 44.9609C58.4736 44.9609 57.9937 44.9927 57.758 45.0296C56.8477 45.1741 56.5768 45.4171 56.5768 46.5222V55.2394C56.5768 56.4281 57.3276 56.4989 58.3867 56.5577C60.9718 56.7022 62.4734 54.4382 62.4734 50.7767C62.4734 47.1129 60.9818 44.9609 58.4736 44.9609ZM45.1755 45.0884C42.8562 45.0884 41.4215 47.2696 41.4215 50.8848C41.4215 54.4189 42.834 56.5581 45.2172 56.5581C47.5342 56.5581 48.9884 54.3352 48.9884 50.8457C48.9884 47.3115 47.5141 45.0884 45.1755 45.0884ZM41.2052 63.4163H39.6439C39.4823 63.4163 39.3134 63.4722 39.3134 63.6706V64.7934C39.3134 64.9697 39.4823 65.0725 39.6439 65.0725H41.2052C41.7297 65.0725 42.1571 64.8004 42.1571 64.2444C42.1571 63.6883 41.7296 63.4163 41.2052 63.4163ZM31.3339 45.0888C29.0153 45.0888 27.5834 47.2699 27.5834 50.8851C27.5834 54.4193 28.9923 56.5585 31.3763 56.5585C33.6955 56.5585 35.1497 54.3356 35.1497 50.846C35.1497 47.3119 33.6732 45.0888 31.3339 45.0888ZM33.2285 65.5757C33.1934 65.512 32.6738 64.4527 32.612 64.3202C32.5545 64.2026 32.4108 64.1955 32.3584 64.3253C32.2988 64.4698 31.7865 65.4849 31.752 65.5579C31.6945 65.6783 31.7592 65.757 31.8763 65.757H33.1013C33.1911 65.757 33.2803 65.6784 33.2285 65.5757C33.1934 65.512 32.6738 64.4527 32.612 64.3202C32.5545 64.2026 32.4108 64.1955 32.3584 64.3253C32.2988 64.4698 31.7865 65.4849 31.752 65.5579C31.6945 65.6783 31.7592 65.757 31.8763 65.757H33.1013C33.1911 65.757 33.2803 65.6784 33.2285 65.5757ZM41.2052 63.4163H39.6439C39.4823 63.4163 39.3134 63.4722 39.3134 63.6706V64.7934C39.3134 64.9697 39.4823 65.0725 39.6439 65.0725H41.2052C41.7297 65.0725 42.1571 64.8004 42.1571 64.2444C42.1571 63.6883 41.7296 63.4163 41.2052 63.4163ZM31.3339 45.0888C29.0153 45.0888 27.5866 47.2696 27.5866 50.8848C27.5866 54.4189 28.9923 56.5585 31.3763 56.5585C33.6955 56.5585 35.1529 54.3352 35.1529 50.8457C35.1529 47.3115 33.6732 45.0888 31.3339 45.0888ZM45.1755 45.0884C42.8562 45.0884 41.4184 47.2697 41.4184 50.8849C41.4184 54.419 42.834 56.5581 45.2172 56.5581C47.5342 56.5581 48.9853 54.3353 48.9853 50.8458C48.9853 47.3116 47.5141 45.0884 45.1755 45.0884ZM58.4705 44.961C58.4705 44.961 57.9906 44.9929 57.7549 45.0297C56.8446 45.1742 56.5737 45.4172 56.5737 46.5223V55.2395C56.5737 56.4282 57.3245 56.4991 58.3836 56.5578C60.9687 56.7023 62.4703 54.4383 62.4703 50.7768C62.4703 47.113 60.9787 44.961 58.4705 44.961C58.4705 44.961 57.9937 44.9927 57.758 45.0296C56.8477 45.1741 56.5768 45.4171 56.5768 46.5222L56.5737 55.2395C56.5737 56.4282 57.3276 56.4989 58.3867 56.5577C60.9718 56.7022 62.4734 54.4382 62.4734 50.7767C62.4734 47.1129 60.9787 44.961 58.4705 44.961ZM45.1755 45.0884C42.8562 45.0884 41.4215 47.2696 41.4215 50.8848C41.4215 54.4189 42.834 56.5581 45.2172 56.5581C47.5342 56.5581 48.9884 54.3352 48.9884 50.8457C48.9884 47.3115 47.5141 45.0884 45.1755 45.0884ZM41.2052 63.4163H39.6439C39.4823 63.4163 39.3134 63.4722 39.3134 63.6706V64.7934C39.3134 64.9697 39.4823 65.0725 39.6439 65.0725H41.2052C41.7297 65.0725 42.1571 64.8004 42.1571 64.2444C42.1571 63.6883 41.7296 63.4163 41.2052 63.4163ZM31.3339 45.0888C29.0153 45.0888 27.5834 47.2699 27.5834 50.8851C27.5834 54.4193 28.9923 56.5585 31.3763 56.5585C33.6955 56.5585 35.1497 54.3356 35.1497 50.846C35.1497 47.3119 33.6732 45.0888 31.3339 45.0888ZM33.2285 65.5757C33.1934 65.512 32.6738 64.4527 32.612 64.3202C32.5545 64.2026 32.4108 64.1955 32.3584 64.3253C32.2988 64.4698 31.7865 65.4849 31.752 65.5579C31.6945 65.6783 31.7592 65.757 31.8763 65.757H33.1013C33.1911 65.757 33.2803 65.6784 33.2285 65.5757ZM31.3339 45.0888C29.0153 45.0888 27.5834 47.2699 27.5834 50.8851C27.5834 54.4193 28.9923 56.5585 31.3763 56.5585C33.6955 56.5585 35.1497 54.3356 35.1497 50.846C35.1497 47.3119 33.6732 45.0888 31.3339 45.0888ZM45.1722 45.089C42.8529 45.089 41.4184 47.2697 41.4184 50.8849C41.4184 54.419 42.8307 56.5587 45.2139 56.5587C47.5309 56.5587 48.9853 54.3353 48.9853 50.8458C48.9853 47.3116 47.5108 45.089 45.1722 45.089ZM58.4705 44.961C58.4705 44.961 57.9906 44.9929 57.7549 45.0297C56.8446 45.1742 56.5737 45.4172 56.5737 46.5223V55.2395C56.5737 56.4282 57.3245 56.4991 58.3836 56.5578C60.9687 56.7023 62.4703 54.4383 62.4703 50.7768C62.4703 47.113 60.9787 44.961 58.4705 44.961C58.4705 44.961 57.9906 44.9929 57.7549 45.0297C56.8446 45.1742 56.5737 45.4172 56.5737 46.5223V55.2395C56.5737 56.4282 57.3245 56.4991 58.3836 56.5578C60.9687 56.7023 62.4703 54.4383 62.4703 50.7768C62.4703 47.113 60.9787 44.961 58.4705 44.961ZM45.1722 45.089C42.8529 45.089 41.4184 47.2697 41.4184 50.8849C41.4184 54.419 42.8307 56.5587 45.2139 56.5587C47.5309 56.5587 48.9853 54.3353 48.9853 50.8458C48.9853 47.3116 47.5108 45.089 45.1722 45.089ZM31.3339 45.0888C29.0153 45.0888 27.5834 47.2699 27.5834 50.8851C27.5834 54.4193 28.9923 56.5585 31.3763 56.5585C33.6955 56.5585 35.1497 54.3356 35.1497 50.846C35.1497 47.3119 33.6732 45.0888 31.3339 45.0888C29.0153 45.0888 27.5834 47.2699 27.5834 50.8851C27.5834 54.4193 28.9923 56.5585 31.3763 56.5585C33.6955 56.5585 35.1497 54.3356 35.1497 50.846C35.1497 47.3119 33.6732 45.0888 31.3339 45.0888ZM45.1722 45.089C42.8529 45.089 41.4184 47.2697 41.4184 50.8849C41.4184 54.419 42.8307 56.5587 45.2139 56.5587C47.5309 56.5587 48.9853 54.3353 48.9853 50.8458C48.9853 47.3116 47.5108 45.089 45.1722 45.089ZM58.4705 44.961C58.4705 44.961 57.9906 44.9929 57.7549 45.0297C56.8446 45.1742 56.5737 45.4172 56.5737 46.5223V55.2395C56.5737 56.4282 57.3245 56.4991 58.3836 56.5578C60.9687 56.7023 62.4703 54.4383 62.4703 50.7768C62.4703 47.113 60.9787 44.961 58.4705 44.961C58.4705 44.961 57.9906 44.9929 57.7549 45.0297C56.8446 45.1742 56.5737 45.4172 56.5737 46.5223V55.2395C56.5737 56.4282 57.3245 56.4991 58.3836 56.5578C60.9687 56.7023 62.4703 54.4383 62.4703 50.7768C62.4703 47.113 60.9787 44.961 58.4705 44.961ZM45.1722 45.089C42.8529 45.089 41.4184 47.2697 41.4184 50.8849C41.4184 54.419 42.8307 56.5587 45.2139 56.5587C47.5309 56.5587 48.9853 54.3353 48.9853 50.8458C48.9853 47.3116 47.5108 45.089 45.1722 45.089ZM31.3339 45.0888C29.0153 45.0888 27.5834 47.2699 27.5834 50.8851C27.5834 54.4193 28.9923 56.5585 31.3763 56.5585C33.6955 56.5585 35.1497 54.3356 35.1497 50.846C35.1497 47.3119 33.6732 45.0888 31.3339 45.0888Z" fill="white"/>
</svg>
